SplineFontDB: 3.2
FontName: Lato-Share-Regular
FullName: Lato Share Regular
FamilyName: Lato Share
Weight: Regular
Copyright: Copyright (c) 2010-2011 by tyPoland Lukasz Dziedzic with Reserved Font Name "Lato". Licensed under the SIL Open Font License, Version 1.1.
Version: 1.104; Western+Polish opensource
ItalicAngle: 0
UnderlinePosition: -204
UnderlineWidth: 163
Ascent: 1649
Descent: 399
InvalidEm: 0
sfntRevision: 0x00011aa0
LayerCount: 2
Layer: 0 1 "Back" 1
Layer: 1 1 "Fore" 0
XUID: [1021 508 542950195 3310]
StyleMap: 0x0020
FSType: 0
OS2Version: 3
OS2_WeightWidthSlopeOnly: 0
OS2_UseTypoMetrics: 0
CreationTime: 1315810800
ModificationTime: 1758671580
PfmFamily: 17
TTFWeight: 400
TTFWidth: 5
LineGap: 0
VLineGap: 0
Panose: 2 15 8 2 2 2 4 3 2 3
OS2TypoAscent: 1649
OS2TypoAOffset: 0
OS2TypoDescent: -399
OS2TypoDOffset: 0
OS2TypoLinegap: 410
OS2WinAscent: 2021
OS2WinAOffset: 0
OS2WinDescent: 436
OS2WinDOffset: 0
HheadAscent: 2021
HheadAOffset: 0
HheadDescent: -436
HheadDOffset: 0
OS2SubXSize: 1434
OS2SubYSize: 1331
OS2SubXOff: 0
OS2SubYOff: 287
OS2SupXSize: 1434
OS2SupYSize: 1331
OS2SupXOff: 0
OS2SupYOff: 977
OS2StrikeYSize: 164
OS2StrikeYPos: 512
OS2CapHeight: 1481
OS2XHeight: 1051
OS2FamilyClass: 2051
OS2Vendor: 'tyPL'
OS2CodePages: 20000093.00000000
OS2UnicodeRanges: 800000af.4000604a.00000000.00000000
Lookup: 1 0 0 "'case' Case-Sensitive Forms in Latin lookup 0" { "'case' Case-Sensitive Forms in Latin lookup 0 subtable"  } ['case' ('DFLT' <'dflt' > 'latn' <'dflt' > ) ]
Lookup: 4 0 1 "'liga' Standard Ligatures in Latin lookup 1" { "'liga' Standard Ligatures in Latin lookup 1 subtable"  } ['liga' ('DFLT' <'dflt' > 'latn' <'dflt' > ) ]
Lookup: 1 0 0 "'sups' Superscript in Latin lookup 2" { "'sups' Superscript in Latin lookup 2 subtable" ("superior") } ['sups' ('DFLT' <'dflt' > 'latn' <'dflt' > ) ]

StartChar: .notdef
Encoding: 65536 -1 0
Width: 1120
GlyphClass: 1
Flags: W
LayerCount: 2
Fore
SplineSet
245 1175 m 1,0,1
 303 1222 303 1222 377.5 1254 c 128,-1,2
 452 1286 452 1286 553 1286 c 0,3,4
 625 1286 625 1286 682 1266.5 c 128,-1,5
 739 1247 739 1247 779 1212 c 128,-1,6
 819 1177 819 1177 840 1127 c 128,-1,7
 861 1077 861 1077 861 1017 c 0,8,9
 861 961 861 961 847 920.5 c 128,-1,10
 833 880 833 880 811.5 849.5 c 128,-1,11
 790 819 790 819 764 797.5 c 128,-1,12
 738 776 738 776 714.5 757 c 128,-1,13
 691 738 691 738 673 719.5 c 128,-1,14
 655 701 655 701 650 679 c 2,15,-1
 628 581 l 1,16,-1
 455 581 l 1,17,-1
 437 697 l 2,18,19
 435 710 435 710 435 721 c 0,20,21
 435 744 435 744 443 762 c 0,22,23
 455 790 455 790 476 812 c 128,-1,24
 497 834 497 834 523 852.5 c 128,-1,25
 549 871 549 871 572 892 c 128,-1,26
 595 913 595 913 611 939.5 c 128,-1,27
 627 966 627 966 627 1001 c 256,28,29
 627 1037 627 1037 602.5 1059.5 c 128,-1,30
 578 1082 578 1082 530 1082 c 0,31,32
 493 1082 493 1082 468 1075 c 128,-1,33
 443 1068 443 1068 425 1060 c 128,-1,34
 407 1052 407 1052 393 1044.5 c 128,-1,35
 379 1037 379 1037 364 1037 c 0,36,37
 329 1037 329 1037 312 1067 c 2,38,-1
 245 1175 l 1,0,1
394 321 m 0,39,40
 394 350 394 350 405 375 c 128,-1,41
 416 400 416 400 434.5 419 c 128,-1,42
 453 438 453 438 478.5 449 c 128,-1,43
 504 460 504 460 534 460 c 0,44,45
 563 460 563 460 587.5 449 c 128,-1,46
 612 438 612 438 631 419 c 128,-1,47
 650 400 650 400 661 374.5 c 128,-1,48
 672 349 672 349 672 321 c 0,49,50
 672 291 672 291 661 266 c 128,-1,51
 650 241 650 241 631 222.5 c 128,-1,52
 612 204 612 204 587 193 c 128,-1,53
 562 182 562 182 534 182 c 0,54,55
 504 182 504 182 478.5 193 c 128,-1,56
 453 204 453 204 434.5 222.5 c 128,-1,57
 416 241 416 241 405 266 c 128,-1,58
 394 291 394 291 394 321 c 0,39,40
43 1481 m 1,59,-1
 1077 1481 l 1,60,-1
 1077 0 l 1,61,-1
 43 0 l 1,62,-1
 43 1481 l 1,59,-1
110 71 m 1,63,-1
 1004 71 l 1,64,-1
 1004 1411 l 1,65,-1
 110 1411 l 1,66,-1
 110 71 l 1,63,-1
EndSplineSet
Validated: 1
EndChar

StartChar: exclam
Encoding: 33 33 4
Width: 738
GlyphClass: 1
Flags: W
LayerCount: 2
Fore
SplineSet
492 1481 m 1,0,-1
 492 895 l 2,1,2
 492 802 492 802 482.5 712.5 c 128,-1,3
 473 623 473 623 458 522 c 1,4,-1
 287 522 l 1,5,6
 272 622 272 622 262.5 712 c 128,-1,7
 253 802 253 802 253 895 c 2,8,-1
 253 1481 l 1,9,-1
 492 1481 l 1,0,-1
214 139 m 0,10,11
 214 171 214 171 226 199.5 c 128,-1,12
 238 228 238 228 259 248.5 c 128,-1,13
 280 269 280 269 308.5 281.5 c 128,-1,14
 337 294 337 294 370 294 c 0,15,16
 402 294 402 294 430.5 281.5 c 128,-1,17
 459 269 459 269 479.5 248.5 c 128,-1,18
 500 228 500 228 512 199.5 c 128,-1,19
 524 171 524 171 524 139 c 0,20,21
 524 106 524 106 512 78 c 128,-1,22
 500 50 500 50 479.5 29.5 c 128,-1,23
 459 9 459 9 430 -2.5 c 128,-1,24
 401 -14 401 -14 370 -14 c 0,25,26
 337 -14 337 -14 308.5 -2.5 c 128,-1,27
 280 9 280 9 259 29.5 c 128,-1,28
 238 50 238 50 226 78 c 128,-1,29
 214 106 214 106 214 139 c 0,10,11
EndSplineSet
Validated: 1
EndChar

StartChar: quotedbl
Encoding: 34 34 5
Width: 864
GlyphClass: 1
Flags: W
LayerCount: 2
Fore
SplineSet
354 1481 m 1,0,-1
 354 1186 l 1,1,-1
 331 1026 l 2,2,3
 324 981 324 981 305 957 c 128,-1,4
 286 933 286 933 243 933 c 0,5,6
 206 933 206 933 184.5 957 c 128,-1,7
 163 981 163 981 157 1026 c 2,8,-1
 134 1186 l 1,9,-1
 134 1481 l 1,10,-1
 354 1481 l 1,0,-1
731 1481 m 1,11,-1
 731 1186 l 1,12,-1
 708 1026 l 2,13,14
 701 981 701 981 682 957 c 128,-1,15
 663 933 663 933 620 933 c 0,16,17
 583 933 583 933 561.5 957 c 128,-1,18
 540 981 540 981 534 1026 c 2,19,-1
 511 1186 l 1,20,-1
 511 1481 l 1,21,-1
 731 1481 l 1,11,-1
EndSplineSet
Validated: 1
EndChar

StartChar: numbersign
Encoding: 35 35 6
Width: 1187
GlyphClass: 1
Flags: W
LayerCount: 2
Fore
SplineSet
851 418 m 1,0,-1
 772 0 l 1,1,-1
 656 0 l 2,2,3
 625 0 625 0 603 24.5 c 128,-1,4
 581 49 581 49 581 85 c 0,5,6
 581 90 581 90 581.5 94.5 c 128,-1,7
 582 99 582 99 583 104 c 2,8,-1
 643 418 l 1,9,-1
 433 418 l 1,10,-1
 374 92 l 2,11,12
 365 43 365 43 332 21.5 c 128,-1,13
 299 0 299 0 259 0 c 2,14,-1
 147 0 l 1,15,-1
 225 418 l 1,16,-1
 108 418 l 2,17,18
 75 418 75 418 57.5 434 c 128,-1,19
 40 450 40 450 40 486 c 0,20,21
 40 500 40 500 43 519 c 2,22,-1
 56 600 l 1,23,-1
 251 600 l 1,24,-1
 304 883 l 1,25,-1
 85 883 l 1,26,-1
 104 988 l 2,27,28
 111 1027 111 1027 136 1046 c 128,-1,29
 161 1065 161 1065 216 1065 c 2,30,-1
 330 1065 l 1,31,-1
 393 1395 l 2,32,33
 401 1436 401 1436 431 1458.5 c 128,-1,34
 461 1481 461 1481 501 1481 c 2,35,-1
 615 1481 l 1,36,-1
 538 1065 l 1,37,-1
 746 1065 l 1,38,-1
 825 1481 l 1,39,-1
 938 1481 l 2,40,41
 974 1481 974 1481 996.5 1460.5 c 128,-1,42
 1019 1440 1019 1440 1019 1408 c 0,43,44
 1019 1398 1019 1398 1018 1393 c 2,45,-1
 954 1065 l 1,46,-1
 1162 1065 l 1,47,-1
 1143 959 l 2,48,49
 1136 920 1136 920 1110.5 901.5 c 128,-1,50
 1085 883 1085 883 1031 883 c 2,51,-1
 929 883 l 1,52,-1
 877 600 l 1,53,-1
 1022 600 l 2,54,55
 1055 600 1055 600 1072 584 c 128,-1,56
 1089 568 1089 568 1089 530 c 0,57,58
 1089 516 1089 516 1085 498 c 2,59,-1
 1073 418 l 1,60,-1
 851 418 l 1,0,-1
459 600 m 1,61,-1
 669 600 l 1,62,-1
 721 883 l 1,63,-1
 512 883 l 1,64,-1
 459 600 l 1,61,-1
EndSplineSet
Validated: 1
EndChar

StartChar: dollar
Encoding: 36 36 7
Width: 1187
GlyphClass: 1
Flags: W
LayerCount: 2
Fore
SplineSet
474 -9 m 1,0,1
 354 7 354 7 249 56 c 128,-1,2
 144 105 144 105 71 178 c 1,3,-1
 148 294 l 2,4,5
 158 309 158 309 175.5 319 c 128,-1,6
 193 329 193 329 211 329 c 0,7,8
 234 329 234 329 259.5 313 c 128,-1,9
 285 297 285 297 317.5 275.5 c 128,-1,10
 350 254 350 254 392 232.5 c 128,-1,11
 434 211 434 211 492 201 c 1,12,-1
 530 659 l 1,13,14
 457 679 457 679 386 707 c 128,-1,15
 315 735 315 735 258.5 780.5 c 128,-1,16
 202 826 202 826 167 896 c 128,-1,17
 132 966 132 966 132 1070 c 0,18,19
 132 1148 132 1148 163.5 1222 c 128,-1,20
 195 1296 195 1296 254 1354.5 c 128,-1,21
 313 1413 313 1413 400 1451 c 128,-1,22
 487 1489 487 1489 600 1494 c 1,23,-1
 611 1623 l 2,24,25
 613 1648 613 1648 631.5 1667.5 c 128,-1,26
 650 1687 650 1687 680 1687 c 2,27,-1
 773 1687 l 1,28,-1
 756 1485 l 1,29,30
 865 1468 865 1468 943.5 1423.5 c 128,-1,31
 1022 1379 1022 1379 1080 1324 c 1,32,-1
 1019 1231 l 2,33,34
 1005 1211 1005 1211 990.5 1200.5 c 128,-1,35
 976 1190 976 1190 955 1190 c 0,36,37
 940 1190 940 1190 919 1199.5 c 128,-1,38
 898 1209 898 1209 871 1223 c 128,-1,39
 844 1237 844 1237 811 1251.5 c 128,-1,40
 778 1266 778 1266 738 1275 c 1,41,-1
 702 851 l 1,42,43
 776 828 776 828 848.5 801 c 128,-1,44
 921 774 921 774 978.5 731 c 128,-1,45
 1036 688 1036 688 1072 624 c 128,-1,46
 1108 560 1108 560 1108 464 c 0,47,48
 1108 369 1108 369 1076 285.5 c 128,-1,49
 1044 202 1044 202 983.5 138 c 128,-1,50
 923 74 923 74 833.5 34 c 128,-1,51
 744 -6 744 -6 630 -14 c 1,52,-1
 617 -165 l 2,53,54
 615 -189 615 -189 597 -208.5 c 128,-1,55
 579 -228 579 -228 549 -228 c 2,56,-1
 456 -228 l 1,57,-1
 474 -9 l 1,0,1
868 425 m 0,58,59
 868 464 868 464 854.5 493 c 128,-1,60
 841 522 841 522 816 544.5 c 128,-1,61
 791 567 791 567 757 583.5 c 128,-1,62
 723 600 723 600 683 613 c 1,63,-1
 648 198 l 1,64,65
 757 212 757 212 812.5 271 c 128,-1,66
 868 330 868 330 868 425 c 0,58,59
371 1095 m 0,67,68
 371 1056 371 1056 384 1026 c 128,-1,69
 397 996 397 996 421 973 c 128,-1,70
 445 950 445 950 478 932 c 128,-1,71
 511 914 511 914 550 900 c 1,72,-1
 582 1279 l 1,73,74
 526 1272 526 1272 485.5 1255 c 128,-1,75
 445 1238 445 1238 419.5 1213.5 c 128,-1,76
 394 1189 394 1189 382.5 1159 c 128,-1,77
 371 1129 371 1129 371 1095 c 0,67,68
EndSplineSet
Validated: 1
EndChar

StartChar: percent
Encoding: 37 37 8
Width: 1644
GlyphClass: 1
Flags: W
LayerCount: 2
Fore
SplineSet
746 1122 m 0,0,1
 746 1038 746 1038 718 970.5 c 128,-1,2
 690 903 690 903 643 855.5 c 128,-1,3
 596 808 596 808 533.5 782.5 c 128,-1,4
 471 757 471 757 403 757 c 0,5,6
 329 757 329 757 267 782.5 c 128,-1,7
 205 808 205 808 159.5 855.5 c 128,-1,8
 114 903 114 903 88 970.5 c 128,-1,9
 62 1038 62 1038 62 1122 c 0,10,11
 62 1208 62 1208 88 1278 c 128,-1,12
 114 1348 114 1348 159.5 1396 c 128,-1,13
 205 1444 205 1444 267.5 1470 c 128,-1,14
 330 1496 330 1496 403 1496 c 256,15,16
 477 1496 477 1496 540 1470 c 128,-1,17
 603 1444 603 1444 649 1396 c 128,-1,18
 695 1348 695 1348 720.5 1278 c 128,-1,19
 746 1208 746 1208 746 1122 c 0,0,1
551 1122 m 0,20,21
 551 1181 551 1181 539.5 1221.5 c 128,-1,22
 528 1262 528 1262 508 1286.5 c 128,-1,23
 488 1311 488 1311 461 1321.5 c 128,-1,24
 434 1332 434 1332 403 1332 c 256,25,26
 372 1332 372 1332 345.5 1321.5 c 128,-1,27
 319 1311 319 1311 300 1286.5 c 128,-1,28
 281 1262 281 1262 270 1222 c 128,-1,29
 259 1182 259 1182 259 1122 c 0,30,31
 259 1065 259 1065 270 1026.5 c 128,-1,32
 281 988 281 988 300 964.5 c 128,-1,33
 319 941 319 941 346 931 c 128,-1,34
 373 921 373 921 403 921 c 256,35,36
 434 921 434 921 461 931 c 128,-1,37
 488 941 488 941 508 964.5 c 128,-1,38
 528 988 528 988 539.5 1026.5 c 128,-1,39
 551 1065 551 1065 551 1122 c 0,20,21
1239 1441 m 2,40,41
 1251 1456 1251 1456 1269.5 1468.5 c 128,-1,42
 1288 1481 1288 1481 1321 1481 c 2,43,-1
 1504 1481 l 1,44,-1
 404 38 l 2,45,46
 392 22 392 22 373 11 c 128,-1,47
 354 0 354 0 328 0 c 2,48,-1
 139 0 l 1,49,-1
 1239 1441 l 2,40,41
1582 348 m 0,50,51
 1582 264 1582 264 1554 196.5 c 128,-1,52
 1526 129 1526 129 1479 81.5 c 128,-1,53
 1432 34 1432 34 1369.5 8 c 128,-1,54
 1307 -18 1307 -18 1239 -18 c 0,55,56
 1165 -18 1165 -18 1102.5 8 c 128,-1,57
 1040 34 1040 34 994.5 81.5 c 128,-1,58
 949 129 949 129 923.5 196.5 c 128,-1,59
 898 264 898 264 898 348 c 0,60,61
 898 434 898 434 923.5 503.5 c 128,-1,62
 949 573 949 573 994.5 621.5 c 128,-1,63
 1040 670 1040 670 1102.5 696 c 128,-1,64
 1165 722 1165 722 1239 722 c 256,65,66
 1313 722 1313 722 1376 696 c 128,-1,67
 1439 670 1439 670 1485 621.5 c 128,-1,68
 1531 573 1531 573 1556.5 503.5 c 128,-1,69
 1582 434 1582 434 1582 348 c 0,50,51
1388 348 m 0,70,71
 1388 407 1388 407 1376 447 c 128,-1,72
 1364 487 1364 487 1344 512 c 128,-1,73
 1324 537 1324 537 1297 547.5 c 128,-1,74
 1270 558 1270 558 1239 558 c 256,75,76
 1208 558 1208 558 1181.5 547.5 c 128,-1,77
 1155 537 1155 537 1136 512 c 128,-1,78
 1117 487 1117 487 1106 447.5 c 128,-1,79
 1095 408 1095 408 1095 348 c 0,80,81
 1095 291 1095 291 1106 252 c 128,-1,82
 1117 213 1117 213 1136 189.5 c 128,-1,83
 1155 166 1155 166 1181.5 155.5 c 128,-1,84
 1208 145 1208 145 1239 145 c 256,85,86
 1270 145 1270 145 1297 155.5 c 128,-1,87
 1324 166 1324 166 1344 189.5 c 128,-1,88
 1364 213 1364 213 1376 252 c 128,-1,89
 1388 291 1388 291 1388 348 c 0,70,71
EndSplineSet
Validated: 1
EndChar

StartChar: ampersand
Encoding: 38 38 9
Width: 1462
GlyphClass: 1
Flags: W
LayerCount: 2
Fore
SplineSet
679 1497 m 0,0,1
 769 1497 769 1497 840 1469.5 c 128,-1,2
 911 1442 911 1442 962 1396 c 128,-1,3
 1013 1350 1013 1350 1042 1290.5 c 128,-1,4
 1071 1231 1071 1231 1076 1167 c 1,5,-1
 915 1134 l 2,6,7
 912 1133 912 1133 908.5 1133 c 128,-1,8
 905 1133 905 1133 902 1133 c 0,9,10
 885 1133 885 1133 871 1142.5 c 128,-1,11
 857 1152 857 1152 849 1172 c 0,12,13
 840 1199 840 1199 825.5 1223 c 128,-1,14
 811 1247 811 1247 790.5 1265 c 128,-1,15
 770 1283 770 1283 742.5 1294 c 128,-1,16
 715 1305 715 1305 679 1305 c 0,17,18
 636 1305 636 1305 602 1290 c 128,-1,19
 568 1275 568 1275 544.5 1250 c 128,-1,20
 521 1225 521 1225 509 1191.5 c 128,-1,21
 497 1158 497 1158 497 1121 c 0,22,23
 497 1090 497 1090 503.5 1061.5 c 128,-1,24
 510 1033 510 1033 524.5 1004.5 c 128,-1,25
 539 976 539 976 562 945.5 c 128,-1,26
 585 915 585 915 618 881 c 2,27,-1
 1012 472 l 1,28,29
 1046 537 1046 537 1066 608.5 c 128,-1,30
 1086 680 1086 680 1093 754 c 0,31,32
 1095 778 1095 778 1108 792 c 128,-1,33
 1121 806 1121 806 1145 806 c 2,34,-1
 1304 806 l 1,35,36
 1303 671 1303 671 1265 548 c 128,-1,37
 1227 425 1227 425 1156 322 c 1,38,-1
 1466 0 l 1,39,-1
 1219 0 l 2,40,41
 1200 0 1200 0 1184.5 2 c 128,-1,42
 1169 4 1169 4 1156 9.5 c 128,-1,43
 1143 15 1143 15 1130.5 24.5 c 128,-1,44
 1118 34 1118 34 1105 48 c 2,45,-1
 1002 154 l 1,46,47
 904 74 904 74 784 29 c 128,-1,48
 664 -16 664 -16 523 -16 c 0,49,50
 437 -16 437 -16 355 13 c 128,-1,51
 273 42 273 42 208.5 97.5 c 128,-1,52
 144 153 144 153 105 231 c 128,-1,53
 66 309 66 309 66 408 c 0,54,55
 66 477 66 477 88.5 538.5 c 128,-1,56
 111 600 111 600 150.5 653.5 c 128,-1,57
 190 707 190 707 245 750 c 128,-1,58
 300 793 300 793 366 823 c 1,59,60
 312 900 312 900 286.5 973.5 c 128,-1,61
 261 1047 261 1047 261 1119 c 0,62,63
 261 1196 261 1196 289 1265 c 128,-1,64
 317 1334 317 1334 371 1385.5 c 128,-1,65
 425 1437 425 1437 503 1467 c 128,-1,66
 581 1497 581 1497 679 1497 c 0,0,1
323 428 m 0,67,68
 323 372 323 372 342 327 c 128,-1,69
 361 282 361 282 395 250.5 c 128,-1,70
 429 219 429 219 473.5 202 c 128,-1,71
 518 185 518 185 568 185 c 0,72,73
 658 185 658 185 732.5 213.5 c 128,-1,74
 807 242 807 242 868 292 c 1,75,-1
 479 691 l 1,76,77
 397 638 397 638 360 571.5 c 128,-1,78
 323 505 323 505 323 428 c 0,67,68
EndSplineSet
Validated: 1
EndChar

StartChar: quotesingle
Encoding: 39 39 10
Width: 487
GlyphClass: 1
Flags: W
LayerCount: 2
Fore
SplineSet
354 1481 m 1,0,-1
 354 1186 l 1,1,-1
 331 1026 l 2,2,3
 324 981 324 981 305 957 c 128,-1,4
 286 933 286 933 243 933 c 0,5,6
 206 933 206 933 184.5 957 c 128,-1,7
 163 981 163 981 157 1026 c 2,8,-1
 134 1186 l 1,9,-1
 134 1481 l 1,10,-1
 354 1481 l 1,0,-1
EndSplineSet
Validated: 1
EndChar

StartChar: parenleft
Encoding: 40 40 11
Width: 614
GlyphClass: 1
Flags: W
LayerCount: 2
Fore
SplineSet
328 642 m 256,0,1
 328 431 328 431 379 227.5 c 128,-1,2
 430 24 430 24 525 -156 c 0,3,4
 532 -169 532 -169 535 -180 c 128,-1,5
 538 -191 538 -191 538 -201 c 0,6,7
 538 -221 538 -221 527.5 -234 c 128,-1,8
 517 -247 517 -247 503 -255 c 2,9,-1
 390 -324 l 1,10,11
 314 -207 314 -207 261 -89 c 128,-1,12
 208 29 208 29 174 148.5 c 128,-1,13
 140 268 140 268 124.5 391 c 128,-1,14
 109 514 109 514 109 642 c 256,15,16
 109 770 109 770 124.5 893.5 c 128,-1,17
 140 1017 140 1017 174 1136.5 c 128,-1,18
 208 1256 208 1256 261 1373.5 c 128,-1,19
 314 1491 314 1491 390 1608 c 1,20,-1
 503 1540 l 2,21,22
 517 1532 517 1532 527.5 1519 c 128,-1,23
 538 1506 538 1506 538 1487 c 256,24,25
 538 1468 538 1468 524 1441 c 0,26,27
 430 1262 430 1262 379 1057.5 c 128,-1,28
 328 853 328 853 328 642 c 256,0,1
EndSplineSet
Validated: 1
EndChar

StartChar: parenright
Encoding: 41 41 12
Width: 614
GlyphClass: 1
Flags: W
LayerCount: 2
Fore
SplineSet
287 642 m 256,0,1
 287 853 287 853 235.5 1057.5 c 128,-1,2
 184 1262 184 1262 90 1441 c 0,3,4
 77 1468 77 1468 77 1487 c 256,5,6
 77 1506 77 1506 87 1519 c 128,-1,7
 97 1532 97 1532 112 1540 c 2,8,-1
 224 1608 l 1,9,10
 300 1491 300 1491 353.5 1373.5 c 128,-1,11
 407 1256 407 1256 440.5 1136.5 c 128,-1,12
 474 1017 474 1017 490 893.5 c 128,-1,13
 506 770 506 770 506 642 c 256,14,15
 506 514 506 514 490 391 c 128,-1,16
 474 268 474 268 440.5 148.5 c 128,-1,17
 407 29 407 29 353.5 -89 c 128,-1,18
 300 -207 300 -207 224 -324 c 1,19,-1
 112 -255 l 2,20,21
 98 -247 98 -247 87.5 -234 c 128,-1,22
 77 -221 77 -221 77 -201 c 0,23,24
 77 -192 77 -192 79.5 -180.5 c 128,-1,25
 82 -169 82 -169 89 -156 c 0,26,27
 184 23 184 23 235.5 227 c 128,-1,28
 287 431 287 431 287 642 c 256,0,1
EndSplineSet
Validated: 1
EndChar

StartChar: asterisk
Encoding: 42 42 13
Width: 819
GlyphClass: 1
Flags: W
LayerCount: 2
Fore
SplineSet
348 857 m 1,0,-1
 348 1044 l 2,1,2
 348 1064 348 1064 350.5 1084 c 128,-1,3
 353 1104 353 1104 359 1121 c 1,4,5
 348 1107 348 1107 332.5 1095.5 c 128,-1,6
 317 1084 317 1084 300 1073 c 2,7,-1
 138 979 l 1,8,-1
 78 1081 l 1,9,-1
 241 1176 l 2,10,11
 259 1187 259 1187 277 1194 c 128,-1,12
 295 1201 295 1201 314 1204 c 1,13,14
 295 1206 295 1206 277 1214.5 c 128,-1,15
 259 1223 259 1223 241 1234 c 2,16,-1
 78 1329 l 1,17,-1
 137 1432 l 1,18,-1
 300 1335 l 2,19,20
 317 1324 317 1324 333 1312 c 128,-1,21
 349 1300 349 1300 360 1286 c 1,22,23
 353 1303 353 1303 350.5 1322.5 c 128,-1,24
 348 1342 348 1342 348 1363 c 2,25,-1
 348 1552 l 1,26,-1
 469 1552 l 1,27,-1
 469 1365 l 2,28,29
 469 1343 469 1343 466.5 1323.5 c 128,-1,30
 464 1304 464 1304 457 1286 c 1,31,32
 468 1300 468 1300 483.5 1312 c 128,-1,33
 499 1324 499 1324 517 1335 c 2,34,-1
 679 1430 l 1,35,-1
 739 1327 l 1,36,-1
 577 1234 l 2,37,38
 559 1223 559 1223 540.5 1215 c 128,-1,39
 522 1207 522 1207 503 1204 c 1,40,41
 538 1198 538 1198 577 1176 c 2,42,-1
 739 1080 l 1,43,-1
 680 978 l 1,44,-1
 517 1073 l 2,45,46
 499 1084 499 1084 483.5 1095.5 c 128,-1,47
 468 1107 468 1107 456 1121 c 1,48,49
 469 1088 469 1088 469 1046 c 2,50,-1
 469 857 l 1,51,-1
 348 857 l 1,0,-1
EndSplineSet
Validated: 1
EndChar

StartChar: plus
Encoding: 43 43 14
Width: 1187
GlyphClass: 1
Flags: W
LayerCount: 2
Fore
SplineSet
694 1201 m 1,0,-1
 694 781 l 1,1,-1
 1093 781 l 1,2,-1
 1093 594 l 1,3,-1
 694 594 l 1,4,-1
 694 172 l 1,5,-1
 489 172 l 1,6,-1
 489 594 l 1,7,-1
 93 594 l 1,8,-1
 93 781 l 1,9,-1
 489 781 l 1,10,-1
 489 1201 l 1,11,-1
 694 1201 l 1,0,-1
EndSplineSet
Validated: 1
EndChar

StartChar: comma
Encoding: 44 44 15
Width: 460
GlyphClass: 1
Flags: W
LayerCount: 2
Fore
SplineSet
82 156 m 0,0,1
 82 185 82 185 92.5 209.5 c 128,-1,2
 103 234 103 234 122.5 253 c 128,-1,3
 142 272 142 272 170 283 c 128,-1,4
 198 294 198 294 230 294 c 0,5,6
 269 294 269 294 298 280 c 128,-1,7
 327 266 327 266 346.5 242 c 128,-1,8
 366 218 366 218 375 187 c 128,-1,9
 384 156 384 156 384 121 c 0,10,11
 384 72 384 72 369 17.5 c 128,-1,12
 354 -37 354 -37 325.5 -91 c 128,-1,13
 297 -145 297 -145 255 -196.5 c 128,-1,14
 213 -248 213 -248 159 -291 c 1,15,-1
 115 -251 l 2,16,17
 97 -236 97 -236 96 -213 c 0,18,19
 96 -205 96 -205 102 -194.5 c 128,-1,20
 108 -184 108 -184 116 -176 c 0,21,22
 127 -164 127 -164 143.5 -146 c 128,-1,23
 160 -128 160 -128 176.5 -105 c 128,-1,24
 193 -82 193 -82 206.5 -55 c 128,-1,25
 220 -28 220 -28 226 3 c 1,26,27
 194 3 194 3 167.5 15 c 128,-1,28
 141 27 141 27 122 47.5 c 128,-1,29
 103 68 103 68 92.5 95.5 c 128,-1,30
 82 123 82 123 82 156 c 0,0,1
EndSplineSet
Validated: 1
EndChar

StartChar: hyphen
Encoding: 45 45 16
Width: 735
GlyphClass: 1
Flags: W
LayerCount: 2
Fore
SplineSet
102 724 m 1,0,-1
 633 724 l 1,1,-1
 633 513 l 1,2,-1
 102 513 l 1,3,-1
 102 724 l 1,0,-1
EndSplineSet
Validated: 1
EndChar

StartChar: period
Encoding: 46 46 17
Width: 460
GlyphClass: 1
Flags: W
LayerCount: 2
Fore
SplineSet
75 139 m 0,0,1
 75 171 75 171 86.5 199.5 c 128,-1,2
 98 228 98 228 119 248.5 c 128,-1,3
 140 269 140 269 169 281.5 c 128,-1,4
 198 294 198 294 230 294 c 256,5,6
 262 294 262 294 290.5 281.5 c 128,-1,7
 319 269 319 269 339.5 248.5 c 128,-1,8
 360 228 360 228 372.5 199.5 c 128,-1,9
 385 171 385 171 385 139 c 0,10,11
 385 106 385 106 372.5 78 c 128,-1,12
 360 50 360 50 339.5 29.5 c 128,-1,13
 319 9 319 9 290.5 -2.5 c 128,-1,14
 262 -14 262 -14 230 -14 c 0,15,16
 197 -14 197 -14 168.5 -2.5 c 128,-1,17
 140 9 140 9 119 29.5 c 128,-1,18
 98 50 98 50 86.5 78 c 128,-1,19
 75 106 75 106 75 139 c 0,0,1
EndSplineSet
Validated: 1
EndChar

StartChar: slash
Encoding: 47 47 18
Width: 792
GlyphClass: 1
Flags: W
LayerCount: 2
Fore
SplineSet
223 -3 m 2,0,1
 214 -27 214 -27 199.5 -44 c 128,-1,2
 185 -61 185 -61 166.5 -73 c 128,-1,3
 148 -85 148 -85 128 -91 c 128,-1,4
 108 -97 108 -97 88 -97 c 2,5,-1
 -18 -97 l 1,6,-1
 580 1433 l 2,7,8
 597 1476 597 1476 630 1499 c 128,-1,9
 663 1522 663 1522 709 1522 c 2,10,-1
 816 1522 l 1,11,-1
 223 -3 l 2,0,1
EndSplineSet
Validated: 1
EndChar

StartChar: zero
Encoding: 48 48 19
Width: 1187
GlyphClass: 1
Flags: W
LayerCount: 2
Fore
SplineSet
1137 740 m 0,0,1
 1137 546 1137 546 1095.5 403.5 c 128,-1,2
 1054 261 1054 261 980.5 168 c 128,-1,3
 907 75 907 75 807.5 29.5 c 128,-1,4
 708 -16 708 -16 592 -16 c 256,5,6
 476 -16 476 -16 377.5 29.5 c 128,-1,7
 279 75 279 75 206 168 c 128,-1,8
 133 261 133 261 92 404 c 128,-1,9
 51 547 51 547 51 740 c 0,10,11
 51 935 51 935 92 1077.5 c 128,-1,12
 133 1220 133 1220 206 1313 c 128,-1,13
 279 1406 279 1406 377.5 1451.5 c 128,-1,14
 476 1497 476 1497 592 1497 c 256,15,16
 708 1497 708 1497 807.5 1451.5 c 128,-1,17
 907 1406 907 1406 980.5 1313 c 128,-1,18
 1054 1220 1054 1220 1095.5 1077.5 c 128,-1,19
 1137 935 1137 935 1137 740 c 0,0,1
876 740 m 256,20,21
 876 901 876 901 852 1006.5 c 128,-1,22
 828 1112 828 1112 789 1174.5 c 128,-1,23
 750 1237 750 1237 698.5 1262 c 128,-1,24
 647 1287 647 1287 592 1287 c 0,25,26
 538 1287 538 1287 487 1262 c 128,-1,27
 436 1237 436 1237 397 1174.5 c 128,-1,28
 358 1112 358 1112 335 1006.5 c 128,-1,29
 312 901 312 901 312 740 c 256,30,31
 312 579 312 579 335 474 c 128,-1,32
 358 369 358 369 397 306.5 c 128,-1,33
 436 244 436 244 487 219 c 128,-1,34
 538 194 538 194 592 194 c 0,35,36
 647 194 647 194 698.5 219 c 128,-1,37
 750 244 750 244 789 306.5 c 128,-1,38
 828 369 828 369 852 474 c 128,-1,39
 876 579 876 579 876 740 c 256,20,21
EndSplineSet
Validated: 1
EndChar

StartChar: one
Encoding: 49 49 20
Width: 1187
GlyphClass: 1
Flags: W
LayerCount: 2
Fore
SplineSet
275 189 m 1,0,-1
 575 189 l 1,1,-1
 575 1053 l 2,2,3
 575 1103 575 1103 579 1158 c 1,4,-1
 366 980 l 2,5,6
 353 969 353 969 339 965 c 128,-1,7
 325 961 325 961 311 961 c 0,8,9
 291 961 291 961 274 969.5 c 128,-1,10
 257 978 257 978 249 989 c 2,11,-1
 169 1099 l 1,12,-1
 621 1483 l 1,13,-1
 828 1483 l 1,14,-1
 828 189 l 1,15,-1
 1095 189 l 1,16,-1
 1095 0 l 1,17,-1
 275 0 l 1,18,-1
 275 189 l 1,0,-1
EndSplineSet
Validated: 1
Substitution2: "'sups' Superscript in Latin lookup 2 subtable" onesuperior
EndChar

StartChar: two
Encoding: 50 50 21
Width: 1187
GlyphClass: 1
Flags: W
LayerCount: 2
Fore
SplineSet
616 1497 m 0,0,1
 718 1497 718 1497 803.5 1467 c 128,-1,2
 889 1437 889 1437 949.5 1381.5 c 128,-1,3
 1010 1326 1010 1326 1043.5 1248 c 128,-1,4
 1077 1170 1077 1170 1077 1075 c 0,5,6
 1077 993 1077 993 1053 923.5 c 128,-1,7
 1029 854 1029 854 988.5 790.5 c 128,-1,8
 948 727 948 727 894 667.5 c 128,-1,9
 840 608 840 608 780 547 c 2,10,-1
 446 206 l 1,11,12
 495 220 495 220 542.5 228 c 128,-1,13
 590 236 590 236 633 236 c 2,14,-1
 1013 236 l 2,15,16
 1054 236 1054 236 1078 212.5 c 128,-1,17
 1102 189 1102 189 1102 152 c 2,18,-1
 1102 0 l 1,19,-1
 86 0 l 1,20,-1
 86 84 l 2,21,22
 86 110 86 110 97 137.5 c 128,-1,23
 108 165 108 165 131 188 c 2,24,-1
 581 639 l 2,25,26
 637 696 637 696 681.5 748.5 c 128,-1,27
 726 801 726 801 756 852 c 128,-1,28
 786 903 786 903 802 956 c 128,-1,29
 818 1009 818 1009 818 1067 c 0,30,31
 818 1120 818 1120 802.5 1160.5 c 128,-1,32
 787 1201 787 1201 758.5 1228.5 c 128,-1,33
 730 1256 730 1256 690.5 1270 c 128,-1,34
 651 1284 651 1284 602 1284 c 0,35,36
 511 1284 511 1284 452 1238 c 128,-1,37
 393 1192 393 1192 370 1114 c 0,38,39
 359 1075 359 1075 336 1058 c 128,-1,40
 313 1041 313 1041 279 1041 c 0,41,42
 264 1041 264 1041 245 1044 c 2,43,-1
 112 1068 l 1,44,45
 127 1174 127 1174 171 1254.5 c 128,-1,46
 215 1335 215 1335 281 1389 c 128,-1,47
 347 1443 347 1443 432.5 1470 c 128,-1,48
 518 1497 518 1497 616 1497 c 0,0,1
EndSplineSet
Validated: 1
Substitution2: "'sups' Superscript in Latin lookup 2 subtable" twosuperior
EndChar

StartChar: three
Encoding: 51 51 22
Width: 1187
GlyphClass: 1
Flags: W
LayerCount: 2
Fore
SplineSet
640 1497 m 0,0,1
 742 1497 742 1497 824.5 1468 c 128,-1,2
 907 1439 907 1439 965.5 1387 c 128,-1,3
 1024 1335 1024 1335 1055 1265.5 c 128,-1,4
 1086 1196 1086 1196 1086 1115 c 0,5,6
 1086 1044 1086 1044 1070.5 990.5 c 128,-1,7
 1055 937 1055 937 1024.5 897 c 128,-1,8
 994 857 994 857 950.5 829.5 c 128,-1,9
 907 802 907 802 852 783 c 1,10,11
 985 741 985 741 1050.5 655 c 128,-1,12
 1116 569 1116 569 1116 439 c 0,13,14
 1116 328 1116 328 1075 243.5 c 128,-1,15
 1034 159 1034 159 964.5 101 c 128,-1,16
 895 43 895 43 803.5 13.5 c 128,-1,17
 712 -16 712 -16 609 -16 c 0,18,19
 497 -16 497 -16 414.5 9.5 c 128,-1,20
 332 35 332 35 270.5 85 c 128,-1,21
 209 135 209 135 166 208 c 128,-1,22
 123 281 123 281 92 376 c 1,23,-1
 204 422 l 2,24,25
 233 434 233 434 262 434 c 0,26,27
 289 434 289 434 310 423 c 128,-1,28
 331 412 331 412 342 390 c 0,29,30
 360 354 360 354 382 319.5 c 128,-1,31
 404 285 404 285 435 257.5 c 128,-1,32
 466 230 466 230 507.5 213.5 c 128,-1,33
 549 197 549 197 606 197 c 0,34,35
 671 197 671 197 719 218 c 128,-1,36
 767 239 767 239 799 272.5 c 128,-1,37
 831 306 831 306 847 347.5 c 128,-1,38
 863 389 863 389 863 431 c 0,39,40
 863 484 863 484 852 527.5 c 128,-1,41
 841 571 841 571 805 602 c 128,-1,42
 769 633 769 633 702 650.5 c 128,-1,43
 635 668 635 668 522 668 c 1,44,-1
 522 848 l 1,45,46
 615 849 615 849 676.5 865.5 c 128,-1,47
 738 882 738 882 774.5 911 c 128,-1,48
 811 940 811 940 825.5 981 c 128,-1,49
 840 1022 840 1022 840 1071 c 0,50,51
 840 1176 840 1176 782.5 1230 c 128,-1,52
 725 1284 725 1284 626 1284 c 0,53,54
 536 1284 536 1284 476.5 1236.5 c 128,-1,55
 417 1189 417 1189 393 1114 c 0,56,57
 381 1075 381 1075 359.5 1058 c 128,-1,58
 338 1041 338 1041 303 1041 c 0,59,60
 287 1041 287 1041 268 1044 c 2,61,-1
 135 1068 l 1,62,63
 150 1174 150 1174 194.5 1254.5 c 128,-1,64
 239 1335 239 1335 305 1389 c 128,-1,65
 371 1443 371 1443 456.5 1470 c 128,-1,66
 542 1497 542 1497 640 1497 c 0,0,1
EndSplineSet
Validated: 1
Substitution2: "'sups' Superscript in Latin lookup 2 subtable" threesuperior
EndChar

StartChar: four
Encoding: 52 52 23
Width: 1187
GlyphClass: 1
Flags: W
LayerCount: 2
Fore
SplineSet
965 558 m 1,0,-1
 1151 558 l 1,1,-1
 1151 412 l 2,2,3
 1151 392 1151 392 1137.5 376.5 c 128,-1,4
 1124 361 1124 361 1099 361 c 2,5,-1
 965 361 l 1,6,-1
 965 0 l 1,7,-1
 743 0 l 1,8,-1
 743 361 l 1,9,-1
 119 361 l 2,10,11
 93 361 93 361 73.5 377 c 128,-1,12
 54 393 54 393 49 417 c 2,13,-1
 24 545 l 1,14,-1
 725 1482 l 1,15,-1
 965 1482 l 1,16,-1
 965 558 l 1,0,-1
743 1042 m 2,17,18
 743 1075 743 1075 745.5 1113 c 128,-1,19
 748 1151 748 1151 753 1192 c 1,20,-1
 293 558 l 1,21,-1
 743 558 l 1,22,-1
 743 1042 l 2,17,18
EndSplineSet
Validated: 1
EndChar

StartChar: five
Encoding: 53 53 24
Width: 1187
GlyphClass: 1
Flags: W
LayerCount: 2
Fore
SplineSet
1013 1373 m 2,0,1
 1013 1319 1013 1319 978.5 1285 c 128,-1,2
 944 1251 944 1251 864 1251 c 2,3,-1
 457 1251 l 1,4,-1
 403 942 l 1,5,6
 503 962 503 962 587 963 c 0,7,8
 704 963 704 963 792.5 928 c 128,-1,9
 881 893 881 893 941 831.5 c 128,-1,10
 1001 770 1001 770 1032 687.5 c 128,-1,11
 1063 605 1063 605 1063 510 c 0,12,13
 1063 392 1063 392 1021.5 295 c 128,-1,14
 980 198 980 198 906.5 128.5 c 128,-1,15
 833 59 833 59 732 21.5 c 128,-1,16
 631 -16 631 -16 512 -16 c 0,17,18
 442 -16 442 -16 379.5 -2 c 128,-1,19
 317 12 317 12 262.5 36 c 128,-1,20
 208 60 208 60 161.5 91.5 c 128,-1,21
 115 123 115 123 78 158 c 1,22,-1
 156 265 l 2,23,24
 181 300 181 300 221 300 c 0,25,26
 247 300 247 300 273 283.5 c 128,-1,27
 299 267 299 267 334 247.5 c 128,-1,28
 369 228 369 228 415 212 c 128,-1,29
 461 196 461 196 526 196 c 0,30,31
 596 196 596 196 649 218.5 c 128,-1,32
 702 241 702 241 737.5 281.5 c 128,-1,33
 773 322 773 322 791 377.5 c 128,-1,34
 809 433 809 433 809 499 c 0,35,36
 809 620 809 620 739 688 c 128,-1,37
 669 756 669 756 532 756 c 0,38,39
 424 756 424 756 316 717 c 1,40,-1
 159 762 l 1,41,-1
 282 1481 l 1,42,-1
 1013 1481 l 1,43,-1
 1013 1373 l 2,0,1
EndSplineSet
Validated: 1
EndChar

StartChar: six
Encoding: 54 54 25
Width: 1187
GlyphClass: 1
Flags: W
LayerCount: 2
Fore
SplineSet
686 925 m 0,0,1
 770 925 770 925 849.5 897 c 128,-1,2
 929 869 929 869 989.5 813.5 c 128,-1,3
 1050 758 1050 758 1086.5 675 c 128,-1,4
 1123 592 1123 592 1123 481 c 0,5,6
 1123 378 1123 378 1085.5 287.5 c 128,-1,7
 1048 197 1048 197 979 129 c 128,-1,8
 910 61 910 61 813.5 22.5 c 128,-1,9
 717 -16 717 -16 600 -16 c 0,10,11
 481 -16 481 -16 387 21.5 c 128,-1,12
 293 59 293 59 226.5 127.5 c 128,-1,13
 160 196 160 196 124.5 291.5 c 128,-1,14
 89 387 89 387 89 504 c 0,15,16
 89 608 89 608 131.5 718 c 128,-1,17
 174 828 174 828 263 947 c 2,18,-1
 616 1421 l 2,19,20
 634 1446 634 1446 670 1463.5 c 128,-1,21
 706 1481 706 1481 752 1481 c 2,22,-1
 977 1481 l 1,23,-1
 538 943 l 2,24,25
 524 926 524 926 511 910.5 c 128,-1,26
 498 895 498 895 485 879 c 1,27,28
 528 901 528 901 578 913 c 128,-1,29
 628 925 628 925 686 925 c 0,0,1
332 465 m 0,30,31
 332 404 332 404 349 353 c 128,-1,32
 366 302 366 302 399 266 c 128,-1,33
 432 230 432 230 481 210 c 128,-1,34
 530 190 530 190 595 190 c 0,35,36
 655 190 655 190 706 210.5 c 128,-1,37
 757 231 757 231 793 268 c 128,-1,38
 829 305 829 305 849.5 354.5 c 128,-1,39
 870 404 870 404 870 463 c 0,40,41
 870 526 870 526 850.5 577 c 128,-1,42
 831 628 831 628 795.5 663 c 128,-1,43
 760 698 760 698 709.5 716.5 c 128,-1,44
 659 735 659 735 599 735 c 256,45,46
 539 735 539 735 489.5 714.5 c 128,-1,47
 440 694 440 694 405 658 c 128,-1,48
 370 622 370 622 351 572 c 128,-1,49
 332 522 332 522 332 465 c 0,30,31
EndSplineSet
Validated: 1
EndChar

StartChar: seven
Encoding: 55 55 26
Width: 1187
GlyphClass: 1
Flags: W
LayerCount: 2
Fore
SplineSet
1122 1481 m 1,0,-1
 1122 1371 l 2,1,2
 1122 1322 1122 1322 1111.5 1292 c 128,-1,3
 1101 1262 1101 1262 1091 1241 c 2,4,-1
 530 86 l 2,5,6
 513 50 513 50 481.5 25 c 128,-1,7
 450 0 450 0 395 0 c 2,8,-1
 212 0 l 1,9,-1
 785 1132 l 2,10,11
 821 1202 821 1202 865 1251 c 1,12,-1
 157 1251 l 2,13,14
 133 1251 133 1251 115.5 1268.5 c 128,-1,15
 98 1286 98 1286 98 1310 c 2,16,-1
 98 1481 l 1,17,-1
 1122 1481 l 1,0,-1
EndSplineSet
Validated: 1
EndChar

StartChar: eight
Encoding: 56 56 27
Width: 1187
GlyphClass: 1
Flags: W
LayerCount: 2
Fore
SplineSet
594 -16 m 256,0,1
 479 -16 479 -16 384.5 14.5 c 128,-1,2
 290 45 290 45 222.5 101.5 c 128,-1,3
 155 158 155 158 117.5 237.5 c 128,-1,4
 80 317 80 317 80 416 c 0,5,6
 80 547 80 547 144.5 637.5 c 128,-1,7
 209 728 209 728 345 772 c 1,8,9
 236 817 236 817 182.5 900 c 128,-1,10
 129 983 129 983 129 1100 c 0,11,12
 129 1184 129 1184 163.5 1256.5 c 128,-1,13
 198 1329 198 1329 259.5 1383 c 128,-1,14
 321 1437 321 1437 406.5 1467 c 128,-1,15
 492 1497 492 1497 594 1497 c 256,16,17
 696 1497 696 1497 781.5 1467 c 128,-1,18
 867 1437 867 1437 928.5 1383 c 128,-1,19
 990 1329 990 1329 1024.5 1256.5 c 128,-1,20
 1059 1184 1059 1184 1059 1100 c 0,21,22
 1059 983 1059 983 1004.5 900 c 128,-1,23
 950 817 950 817 843 772 c 1,24,25
 979 728 979 728 1043.5 637.5 c 128,-1,26
 1108 547 1108 547 1108 416 c 0,27,28
 1108 318 1108 318 1070.5 238 c 128,-1,29
 1033 158 1033 158 965.5 101.5 c 128,-1,30
 898 45 898 45 803.5 14.5 c 128,-1,31
 709 -16 709 -16 594 -16 c 256,0,1
594 181 m 256,32,33
 656 181 656 181 703.5 199 c 128,-1,34
 751 217 751 217 783 249 c 128,-1,35
 815 281 815 281 831.5 325 c 128,-1,36
 848 369 848 369 848 420 c 0,37,38
 848 542 848 542 780.5 604.5 c 128,-1,39
 713 667 713 667 594 667 c 256,40,41
 475 667 475 667 407.5 604.5 c 128,-1,42
 340 542 340 542 340 420 c 0,43,44
 340 369 340 369 356.5 325 c 128,-1,45
 373 281 373 281 405 249 c 128,-1,46
 437 217 437 217 484.5 199 c 128,-1,47
 532 181 532 181 594 181 c 256,32,33
594 865 m 256,48,49
 655 865 655 865 697 884.5 c 128,-1,50
 739 904 739 904 765 936.5 c 128,-1,51
 791 969 791 969 801.5 1010.5 c 128,-1,52
 812 1052 812 1052 812 1096 c 0,53,54
 812 1138 812 1138 798.5 1175.5 c 128,-1,55
 785 1213 785 1213 758.5 1242.5 c 128,-1,56
 732 1272 732 1272 691 1289.5 c 128,-1,57
 650 1307 650 1307 594 1307 c 256,58,59
 538 1307 538 1307 497 1289.5 c 128,-1,60
 456 1272 456 1272 428.5 1242.5 c 128,-1,61
 401 1213 401 1213 388.5 1175.5 c 128,-1,62
 376 1138 376 1138 376 1096 c 0,63,64
 376 1052 376 1052 386.5 1010.5 c 128,-1,65
 397 969 397 969 423 936.5 c 128,-1,66
 449 904 449 904 491 884.5 c 128,-1,67
 533 865 533 865 594 865 c 256,48,49
EndSplineSet
Validated: 1
EndChar

StartChar: nine
Encoding: 57 57 28
Width: 1187
GlyphClass: 1
Flags: W
LayerCount: 2
Fore
SplineSet
543 591 m 0,0,1
 466 591 466 591 392 617.5 c 128,-1,2
 318 644 318 644 260.5 698 c 128,-1,3
 203 752 203 752 168 831 c 128,-1,4
 133 910 133 910 133 1017 c 0,5,6
 133 1116 133 1116 170 1203 c 128,-1,7
 207 1290 207 1290 273.5 1355.5 c 128,-1,8
 340 1421 340 1421 433 1459 c 128,-1,9
 526 1497 526 1497 639 1497 c 0,10,11
 753 1497 753 1497 843.5 1461 c 128,-1,12
 934 1425 934 1425 998 1360.5 c 128,-1,13
 1062 1296 1062 1296 1096 1206 c 128,-1,14
 1130 1116 1130 1116 1130 1009 c 0,15,16
 1130 940 1130 940 1118.5 878.5 c 128,-1,17
 1107 817 1107 817 1085 760 c 128,-1,18
 1063 703 1063 703 1032 649.5 c 128,-1,19
 1001 596 1001 596 964 542 c 2,20,-1
 625 58 l 2,21,22
 608 33 608 33 573.5 16.5 c 128,-1,23
 539 0 539 0 495 0 c 2,24,-1
 262 0 l 1,25,-1
 722 574 l 2,26,27
 739 596 739 596 754.5 616.5 c 128,-1,28
 770 637 770 637 784 657 c 1,29,30
 733 624 733 624 672 607.5 c 128,-1,31
 611 591 611 591 543 591 c 0,0,1
888 1034 m 0,32,33
 888 1094 888 1094 869.5 1142 c 128,-1,34
 851 1190 851 1190 817 1222.5 c 128,-1,35
 783 1255 783 1255 736.5 1272.5 c 128,-1,36
 690 1290 690 1290 635 1290 c 0,37,38
 578 1290 578 1290 531.5 1271 c 128,-1,39
 485 1252 485 1252 453 1218.5 c 128,-1,40
 421 1185 421 1185 403.5 1138.5 c 128,-1,41
 386 1092 386 1092 386 1036 c 0,42,43
 386 912 386 912 450 847 c 128,-1,44
 514 782 514 782 632 782 c 0,45,46
 693 782 693 782 740.5 801.5 c 128,-1,47
 788 821 788 821 821 855 c 128,-1,48
 854 889 854 889 871 935 c 128,-1,49
 888 981 888 981 888 1034 c 0,32,33
EndSplineSet
Validated: 1
EndChar

StartChar: colon
Encoding: 58 58 29
Width: 542
GlyphClass: 1
Flags: W
LayerCount: 2
Fore
SplineSet
116 139 m 0,0,1
 116 171 116 171 127.5 199.5 c 128,-1,2
 139 228 139 228 160 248.5 c 128,-1,3
 181 269 181 269 210 281.5 c 128,-1,4
 239 294 239 294 271 294 c 256,5,6
 303 294 303 294 331.5 281.5 c 128,-1,7
 360 269 360 269 380.5 248.5 c 128,-1,8
 401 228 401 228 413.5 199.5 c 128,-1,9
 426 171 426 171 426 139 c 0,10,11
 426 106 426 106 413.5 78 c 128,-1,12
 401 50 401 50 380.5 29.5 c 128,-1,13
 360 9 360 9 331.5 -2.5 c 128,-1,14
 303 -14 303 -14 271 -14 c 0,15,16
 238 -14 238 -14 209.5 -2.5 c 128,-1,17
 181 9 181 9 160 29.5 c 128,-1,18
 139 50 139 50 127.5 78 c 128,-1,19
 116 106 116 106 116 139 c 0,0,1
116 869 m 0,20,21
 116 901 116 901 127.5 929.5 c 128,-1,22
 139 958 139 958 160 978.5 c 128,-1,23
 181 999 181 999 210 1011.5 c 128,-1,24
 239 1024 239 1024 271 1024 c 256,25,26
 303 1024 303 1024 331.5 1011.5 c 128,-1,27
 360 999 360 999 380.5 978.5 c 128,-1,28
 401 958 401 958 413.5 929.5 c 128,-1,29
 426 901 426 901 426 869 c 0,30,31
 426 836 426 836 413.5 808 c 128,-1,32
 401 780 401 780 380.5 759.5 c 128,-1,33
 360 739 360 739 331.5 727.5 c 128,-1,34
 303 716 303 716 271 716 c 0,35,36
 238 716 238 716 209.5 727.5 c 128,-1,37
 181 739 181 739 160 759.5 c 128,-1,38
 139 780 139 780 127.5 808 c 128,-1,39
 116 836 116 836 116 869 c 0,20,21
EndSplineSet
Validated: 1
EndChar

StartChar: semicolon
Encoding: 59 59 30
Width: 542
GlyphClass: 1
Flags: W
LayerCount: 2
Fore
SplineSet
123 156 m 0,0,1
 123 185 123 185 133.5 209.5 c 128,-1,2
 144 234 144 234 163.5 253 c 128,-1,3
 183 272 183 272 211 283 c 128,-1,4
 239 294 239 294 271 294 c 0,5,6
 310 294 310 294 339 280 c 128,-1,7
 368 266 368 266 387.5 242 c 128,-1,8
 407 218 407 218 416 187 c 128,-1,9
 425 156 425 156 425 121 c 0,10,11
 425 72 425 72 410 17.5 c 128,-1,12
 395 -37 395 -37 366.5 -91 c 128,-1,13
 338 -145 338 -145 296 -196.5 c 128,-1,14
 254 -248 254 -248 200 -291 c 1,15,-1
 156 -251 l 2,16,17
 138 -236 138 -236 137 -213 c 0,18,19
 137 -205 137 -205 142.5 -194.5 c 128,-1,20
 148 -184 148 -184 157 -176 c 0,21,22
 168 -164 168 -164 184.5 -146 c 128,-1,23
 201 -128 201 -128 217 -105 c 128,-1,24
 233 -82 233 -82 247 -55 c 128,-1,25
 261 -28 261 -28 267 3 c 1,26,27
 235 3 235 3 208.5 15 c 128,-1,28
 182 27 182 27 163 47.5 c 128,-1,29
 144 68 144 68 133.5 95.5 c 128,-1,30
 123 123 123 123 123 156 c 0,0,1
116 869 m 0,31,32
 116 901 116 901 127.5 929.5 c 128,-1,33
 139 958 139 958 160 978.5 c 128,-1,34
 181 999 181 999 210 1011.5 c 128,-1,35
 239 1024 239 1024 271 1024 c 256,36,37
 303 1024 303 1024 331.5 1011.5 c 128,-1,38
 360 999 360 999 380.5 978.5 c 128,-1,39
 401 958 401 958 413.5 929.5 c 128,-1,40
 426 901 426 901 426 869 c 0,41,42
 426 836 426 836 413.5 808 c 128,-1,43
 401 780 401 780 380.5 759.5 c 128,-1,44
 360 739 360 739 331.5 727.5 c 128,-1,45
 303 716 303 716 271 716 c 0,46,47
 238 716 238 716 209.5 727.5 c 128,-1,48
 181 739 181 739 160 759.5 c 128,-1,49
 139 780 139 780 127.5 808 c 128,-1,50
 116 836 116 836 116 869 c 0,31,32
EndSplineSet
Validated: 1
EndChar

StartChar: less
Encoding: 60 60 31
Width: 1187
GlyphClass: 1
Flags: W
LayerCount: 2
Fore
SplineSet
142 741 m 1,0,-1
 953 1164 l 1,1,-1
 953 984 l 2,2,3
 953 964 953 964 943 947 c 128,-1,4
 933 930 933 930 909 918 c 2,5,-1
 538 727 l 2,6,7
 514 715 514 715 488 706 c 128,-1,8
 462 697 462 697 432 690 c 1,9,10
 462 683 462 683 488 674.5 c 128,-1,11
 514 666 514 666 538 653 c 2,12,-1
 909 462 l 2,13,14
 933 450 933 450 943 433 c 128,-1,15
 953 416 953 416 953 395 c 2,16,-1
 953 215 l 1,17,-1
 142 639 l 1,18,-1
 142 741 l 1,0,-1
EndSplineSet
Validated: 1
EndChar

StartChar: equal
Encoding: 61 61 32
Width: 1187
GlyphClass: 1
Flags: W
LayerCount: 2
Fore
SplineSet
139 602 m 1,0,-1
 1047 602 l 1,1,-1
 1047 414 l 1,2,-1
 139 414 l 1,3,-1
 139 602 l 1,0,-1
139 963 m 1,4,-1
 1047 963 l 1,5,-1
 1047 775 l 1,6,-1
 139 775 l 1,7,-1
 139 963 l 1,4,-1
EndSplineSet
Validated: 1
EndChar

StartChar: greater
Encoding: 62 62 33
Width: 1187
GlyphClass: 1
Flags: W
LayerCount: 2
Fore
SplineSet
234 215 m 1,0,-1
 234 395 l 2,1,2
 234 415 234 415 244.5 432.5 c 128,-1,3
 255 450 255 450 279 462 c 2,4,-1
 650 653 l 2,5,6
 695 676 695 676 756 690 c 1,7,8
 726 697 726 697 700 706 c 128,-1,9
 674 715 674 715 650 727 c 2,10,-1
 279 918 l 2,11,12
 255 930 255 930 244.5 947 c 128,-1,13
 234 964 234 964 234 984 c 2,14,-1
 234 1164 l 1,15,-1
 1046 741 l 1,16,-1
 1046 639 l 1,17,-1
 234 215 l 1,0,-1
EndSplineSet
Validated: 1
EndChar

StartChar: question
Encoding: 63 63 34
Width: 861
GlyphClass: 1
Flags: W
LayerCount: 2
Fore
SplineSet
38 1347 m 1,0,1
 73 1378 73 1378 114.5 1405.5 c 128,-1,2
 156 1433 156 1433 204 1453.5 c 128,-1,3
 252 1474 252 1474 308.5 1485.5 c 128,-1,4
 365 1497 365 1497 430 1497 c 0,5,6
 519 1497 519 1497 592.5 1472.5 c 128,-1,7
 666 1448 666 1448 718 1402.5 c 128,-1,8
 770 1357 770 1357 798.5 1292.5 c 128,-1,9
 827 1228 827 1228 827 1148 c 0,10,11
 827 1070 827 1070 804.5 1013 c 128,-1,12
 782 956 782 956 748 914 c 128,-1,13
 714 872 714 872 674 841.5 c 128,-1,14
 634 811 634 811 598 784 c 128,-1,15
 562 757 562 757 536 731 c 128,-1,16
 510 705 510 705 505 672 c 2,17,-1
 481 522 l 1,18,-1
 308 522 l 1,19,-1
 291 689 l 2,20,21
 290 694 290 694 290 697.5 c 128,-1,22
 290 701 290 701 290 707 c 0,23,24
 290 752 290 752 312.5 785 c 128,-1,25
 335 818 335 818 368.5 847.5 c 128,-1,26
 402 877 402 877 441 904.5 c 128,-1,27
 480 932 480 932 514 964 c 128,-1,28
 548 996 548 996 570.5 1037 c 128,-1,29
 593 1078 593 1078 593 1134 c 0,30,31
 593 1171 593 1171 579 1200 c 128,-1,32
 565 1229 565 1229 540.5 1250 c 128,-1,33
 516 1271 516 1271 481.5 1282 c 128,-1,34
 447 1293 447 1293 408 1293 c 0,35,36
 350 1293 350 1293 309 1280.5 c 128,-1,37
 268 1268 268 1268 240 1252 c 128,-1,38
 212 1236 212 1236 192.5 1223 c 128,-1,39
 173 1210 173 1210 158 1210 c 0,40,41
 121 1210 121 1210 104 1241 c 2,42,-1
 38 1347 l 1,0,1
231 139 m 0,43,44
 231 171 231 171 243 199.5 c 128,-1,45
 255 228 255 228 276 248.5 c 128,-1,46
 297 269 297 269 325.5 281.5 c 128,-1,47
 354 294 354 294 387 294 c 0,48,49
 419 294 419 294 447.5 281.5 c 128,-1,50
 476 269 476 269 496.5 248.5 c 128,-1,51
 517 228 517 228 529.5 199.5 c 128,-1,52
 542 171 542 171 542 139 c 0,53,54
 542 106 542 106 529.5 78 c 128,-1,55
 517 50 517 50 496.5 29.5 c 128,-1,56
 476 9 476 9 447.5 -2.5 c 128,-1,57
 419 -14 419 -14 387 -14 c 0,58,59
 354 -14 354 -14 325.5 -2.5 c 128,-1,60
 297 9 297 9 276 29.5 c 128,-1,61
 255 50 255 50 243 78 c 128,-1,62
 231 106 231 106 231 139 c 0,43,44
EndSplineSet
Validated: 1
EndChar

StartChar: at
Encoding: 64 64 35
Width: 1684
GlyphClass: 1
Flags: W
LayerCount: 2
Fore
SplineSet
1194 188 m 0,0,1
 1124 188 1124 188 1069.5 221 c 128,-1,2
 1015 254 1015 254 993 327 c 1,3,4
 933 253 933 253 865.5 221 c 128,-1,5
 798 189 798 189 720 189 c 0,6,7
 655 189 655 189 607.5 211.5 c 128,-1,8
 560 234 560 234 528 273.5 c 128,-1,9
 496 313 496 313 480 367 c 128,-1,10
 464 421 464 421 464 484 c 0,11,12
 464 542 464 542 479 602.5 c 128,-1,13
 494 663 494 663 523.5 718.5 c 128,-1,14
 553 774 553 774 597.5 822.5 c 128,-1,15
 642 871 642 871 702.5 907.5 c 128,-1,16
 763 944 763 944 837.5 965 c 128,-1,17
 912 986 912 986 1004 986 c 0,18,19
 1083 986 1083 986 1139 974 c 128,-1,20
 1195 962 1195 962 1247 939 c 1,21,-1
 1149 559 l 2,22,23
 1133 493 1133 493 1133 450 c 0,24,25
 1133 419 1133 419 1140.5 398.5 c 128,-1,26
 1148 378 1148 378 1161 365.5 c 128,-1,27
 1174 353 1174 353 1192 348.5 c 128,-1,28
 1210 344 1210 344 1232 344 c 0,29,30
 1275 344 1275 344 1313.5 371 c 128,-1,31
 1352 398 1352 398 1380.5 447.5 c 128,-1,32
 1409 497 1409 497 1426 564.5 c 128,-1,33
 1443 632 1443 632 1443 712 c 0,34,35
 1443 845 1443 845 1401.5 946.5 c 128,-1,36
 1360 1048 1360 1048 1285.5 1116 c 128,-1,37
 1211 1184 1211 1184 1108 1218 c 128,-1,38
 1005 1252 1005 1252 882 1252 c 0,39,40
 748 1252 748 1252 632.5 1201.5 c 128,-1,41
 517 1151 517 1151 432.5 1063 c 128,-1,42
 348 975 348 975 300.5 855 c 128,-1,43
 253 735 253 735 253 597 c 0,44,45
 253 429 253 429 305 301.5 c 128,-1,46
 357 174 357 174 448.5 88.5 c 128,-1,47
 540 3 540 3 663 -40 c 128,-1,48
 786 -83 786 -83 930 -83 c 0,49,50
 1009 -83 1009 -83 1077.5 -74.5 c 128,-1,51
 1146 -66 1146 -66 1203.5 -51 c 128,-1,52
 1261 -36 1261 -36 1308 -17 c 128,-1,53
 1355 2 1355 2 1392 24 c 0,54,55
 1412 35 1412 35 1426 35 c 0,56,57
 1456 35 1456 35 1468 2 c 2,58,-1
 1503 -89 l 1,59,60
 1397 -159 1397 -159 1254.5 -203 c 128,-1,61
 1112 -247 1112 -247 930 -247 c 0,62,63
 745 -247 745 -247 587 -188.5 c 128,-1,64
 429 -130 429 -130 314 -21 c 128,-1,65
 199 88 199 88 134 244.5 c 128,-1,66
 69 401 69 401 69 597 c 0,67,68
 69 707 69 707 97 810 c 128,-1,69
 125 913 125 913 177 1004 c 128,-1,70
 229 1095 229 1095 303 1170.5 c 128,-1,71
 377 1246 377 1246 467 1300.5 c 128,-1,72
 557 1355 557 1355 662 1385 c 128,-1,73
 767 1415 767 1415 882 1415 c 0,74,75
 1027 1415 1027 1415 1160.5 1366.5 c 128,-1,76
 1294 1318 1294 1318 1397 1227.5 c 128,-1,77
 1500 1137 1500 1137 1561.5 1006.5 c 128,-1,78
 1623 876 1623 876 1623 712 c 0,79,80
 1623 602 1623 602 1591 506.5 c 128,-1,81
 1559 411 1559 411 1501 340 c 128,-1,82
 1443 269 1443 269 1364.5 228.5 c 128,-1,83
 1286 188 1286 188 1194 188 c 0,0,1
770 352 m 0,84,85
 797 352 797 352 824 360.5 c 128,-1,86
 851 369 851 369 875.5 390 c 128,-1,87
 900 411 900 411 920.5 445.5 c 128,-1,88
 941 480 941 480 954 532 c 2,89,-1
 1029 821 l 1,90,91
 996 827 996 827 962 827 c 0,92,93
 899 827 899 827 843 799.5 c 128,-1,94
 787 772 787 772 747 725 c 128,-1,95
 707 678 707 678 683 617 c 128,-1,96
 659 556 659 556 659 490 c 256,97,98
 659 424 659 424 687.5 388 c 128,-1,99
 716 352 716 352 770 352 c 0,84,85
EndSplineSet
Validated: 1
EndChar

StartChar: A
Encoding: 65 65 36
Width: 1454
GlyphClass: 1
Flags: W
LayerCount: 2
Fore
SplineSet
1451 0 m 1,0,-1
 1238 0 l 2,1,2
 1202 0 1202 0 1179 18 c 128,-1,3
 1156 36 1156 36 1146 62 c 2,4,-1
 1035 365 l 1,5,-1
 422 365 l 1,6,-1
 311 62 l 2,7,8
 303 38 303 38 279 19 c 128,-1,9
 255 0 255 0 220 0 c 2,10,-1
 6 0 l 1,11,-1
 588 1481 l 1,12,-1
 869 1481 l 1,13,-1
 1451 0 l 1,0,-1
493 559 m 1,14,-1
 965 559 l 1,15,-1
 784 1052 l 2,16,17
 772 1085 772 1085 757 1129.5 c 128,-1,18
 742 1174 742 1174 728 1226 c 1,19,20
 714 1174 714 1174 700 1128.5 c 128,-1,21
 686 1083 686 1083 673 1050 c 2,22,-1
 493 559 l 1,14,-1
EndSplineSet
Validated: 1
EndChar

StartChar: B
Encoding: 66 66 37
Width: 1334
GlyphClass: 1
Flags: W
LayerCount: 2
Fore
SplineSet
150 0 m 1,0,-1
 150 1481 l 1,1,-1
 660 1481 l 2,2,3
 805 1481 805 1481 908.5 1453 c 128,-1,4
 1012 1425 1012 1425 1078 1374 c 128,-1,5
 1144 1323 1144 1323 1174.5 1250.5 c 128,-1,6
 1205 1178 1205 1178 1205 1086 c 0,7,8
 1205 1034 1205 1034 1190 986.5 c 128,-1,9
 1175 939 1175 939 1142.5 897.5 c 128,-1,10
 1110 856 1110 856 1060.5 822 c 128,-1,11
 1011 788 1011 788 942 765 c 1,12,13
 1247 696 1247 696 1247 435 c 0,14,15
 1247 341 1247 341 1211.5 261 c 128,-1,16
 1176 181 1176 181 1107 123.5 c 128,-1,17
 1038 66 1038 66 938 33 c 128,-1,18
 838 0 838 0 709 0 c 2,19,-1
 150 0 l 1,0,-1
425 649 m 1,20,-1
 425 215 l 1,21,-1
 705 215 l 2,22,23
 782 215 782 215 833.5 233.5 c 128,-1,24
 885 252 885 252 916 282.5 c 128,-1,25
 947 313 947 313 961 354 c 128,-1,26
 975 395 975 395 975 441 c 0,27,28
 975 489 975 489 959.5 527.5 c 128,-1,29
 944 566 944 566 911.5 593.5 c 128,-1,30
 879 621 879 621 827.5 635 c 128,-1,31
 776 649 776 649 703 649 c 2,32,-1
 425 649 l 1,20,-1
425 840 m 1,33,-1
 645 840 l 2,34,35
 785 840 785 840 858 891 c 128,-1,36
 931 942 931 942 931 1054 c 0,37,38
 931 1170 931 1170 865.5 1219 c 128,-1,39
 800 1268 800 1268 660 1268 c 2,40,-1
 425 1268 l 1,41,-1
 425 840 l 1,33,-1
EndSplineSet
Validated: 1
EndChar

StartChar: C
Encoding: 67 67 38
Width: 1373
GlyphClass: 1
Flags: W
LayerCount: 2
Fore
SplineSet
1167 349 m 0,0,1
 1190 349 1190 349 1206 332 c 2,2,-1
 1315 214 l 1,3,4
 1225 102 1225 102 1093.5 43 c 128,-1,5
 962 -16 962 -16 777 -16 c 0,6,7
 612 -16 612 -16 480.5 40 c 128,-1,8
 349 96 349 96 256 196.5 c 128,-1,9
 163 297 163 297 113 436 c 128,-1,10
 63 575 63 575 63 740 c 0,11,12
 63 907 63 907 118.5 1046 c 128,-1,13
 174 1185 174 1185 274.5 1285 c 128,-1,14
 375 1385 375 1385 514.5 1441 c 128,-1,15
 654 1497 654 1497 823 1497 c 0,16,17
 988 1497 988 1497 1111.5 1444.5 c 128,-1,18
 1235 1392 1235 1392 1323 1305 c 1,19,-1
 1231 1177 l 2,20,21
 1223 1165 1223 1165 1210 1155.5 c 128,-1,22
 1197 1146 1197 1146 1175 1146 c 0,23,24
 1151 1146 1151 1146 1126.5 1164.5 c 128,-1,25
 1102 1183 1102 1183 1064 1204.5 c 128,-1,26
 1026 1226 1026 1226 968 1244.5 c 128,-1,27
 910 1263 910 1263 821 1263 c 0,28,29
 717 1263 717 1263 629.5 1226.5 c 128,-1,30
 542 1190 542 1190 479 1122.5 c 128,-1,31
 416 1055 416 1055 380.5 958 c 128,-1,32
 345 861 345 861 345 740 c 0,33,34
 345 615 345 615 380.5 518 c 128,-1,35
 416 421 416 421 476.5 354.5 c 128,-1,36
 537 288 537 288 618.5 252.5 c 128,-1,37
 700 217 700 217 795 217 c 0,38,39
 851 217 851 217 896.5 223 c 128,-1,40
 942 229 942 229 980.5 242.5 c 128,-1,41
 1019 256 1019 256 1053 277 c 128,-1,42
 1087 298 1087 298 1121 329 c 0,43,44
 1131 338 1131 338 1142.5 343.5 c 128,-1,45
 1154 349 1154 349 1167 349 c 0,0,1
EndSplineSet
Validated: 1
EndChar

StartChar: D
Encoding: 68 68 39
Width: 1530
GlyphClass: 1
Flags: W
LayerCount: 2
Fore
SplineSet
1464 740 m 256,0,1
 1464 577 1464 577 1410 441 c 128,-1,2
 1356 305 1356 305 1257.5 207 c 128,-1,3
 1159 109 1159 109 1021 54.5 c 128,-1,4
 883 0 883 0 715 0 c 2,5,-1
 150 0 l 1,6,-1
 150 1481 l 1,7,-1
 715 1481 l 2,8,9
 883 1481 883 1481 1021 1426 c 128,-1,10
 1159 1371 1159 1371 1257.5 1273.5 c 128,-1,11
 1356 1176 1356 1176 1410 1039.5 c 128,-1,12
 1464 903 1464 903 1464 740 c 256,0,1
1183 740 m 256,13,14
 1183 862 1183 862 1150 959 c 128,-1,15
 1117 1056 1117 1056 1056.5 1123 c 128,-1,16
 996 1190 996 1190 909.5 1226 c 128,-1,17
 823 1262 823 1262 715 1262 c 2,18,-1
 427 1262 l 1,19,-1
 427 219 l 1,20,-1
 715 219 l 2,21,22
 824 219 824 219 910 255 c 128,-1,23
 996 291 996 291 1056.5 358 c 128,-1,24
 1117 425 1117 425 1150 521.5 c 128,-1,25
 1183 618 1183 618 1183 740 c 256,13,14
EndSplineSet
Validated: 1
EndChar

StartChar: E
Encoding: 69 69 40
Width: 1172
GlyphClass: 1
Flags: W
LayerCount: 2
Fore
SplineSet
1083 1481 m 1,0,-1
 1083 1262 l 1,1,-1
 427 1262 l 1,2,-1
 427 851 l 1,3,-1
 944 851 l 1,4,-1
 944 639 l 1,5,-1
 427 639 l 1,6,-1
 427 220 l 1,7,-1
 1083 220 l 1,8,-1
 1083 0 l 1,9,-1
 150 0 l 1,10,-1
 150 1481 l 1,11,-1
 1083 1481 l 1,0,-1
EndSplineSet
Validated: 1
EndChar

StartChar: F
Encoding: 70 70 41
Width: 1149
GlyphClass: 1
Flags: W
LayerCount: 2
Fore
SplineSet
1083 1481 m 1,0,-1
 1083 1262 l 1,1,-1
 427 1262 l 1,2,-1
 427 823 l 1,3,-1
 981 823 l 1,4,-1
 981 603 l 1,5,-1
 427 603 l 1,6,-1
 427 0 l 1,7,-1
 150 0 l 1,8,-1
 150 1481 l 1,9,-1
 1083 1481 l 1,0,-1
EndSplineSet
Validated: 1
EndChar

StartChar: G
Encoding: 71 71 42
Width: 1480
GlyphClass: 1
Flags: W
LayerCount: 2
Fore
SplineSet
829 203 m 0,0,1
 922 203 922 203 991.5 220 c 128,-1,2
 1061 237 1061 237 1123 266 c 1,3,-1
 1123 536 l 1,4,-1
 938 536 l 2,5,6
 911 536 911 536 896 550.5 c 128,-1,7
 881 565 881 565 881 587 c 2,8,-1
 881 742 l 1,9,-1
 1373 742 l 1,10,-1
 1373 143 l 1,11,12
 1317 102 1317 102 1256 72 c 128,-1,13
 1195 42 1195 42 1126 22.5 c 128,-1,14
 1057 3 1057 3 978 -6.5 c 128,-1,15
 899 -16 899 -16 808 -16 c 0,16,17
 646 -16 646 -16 510 40 c 128,-1,18
 374 96 374 96 274.5 196.5 c 128,-1,19
 175 297 175 297 119 436 c 128,-1,20
 63 575 63 575 63 740 c 0,21,22
 63 907 63 907 117.5 1046.5 c 128,-1,23
 172 1186 172 1186 272 1286 c 128,-1,24
 372 1386 372 1386 514 1441.5 c 128,-1,25
 656 1497 656 1497 834 1497 c 0,26,27
 1015 1497 1015 1497 1147.5 1443.5 c 128,-1,28
 1280 1390 1280 1390 1372 1304 c 1,29,-1
 1292 1179 l 2,30,31
 1268 1141 1268 1141 1230 1141 c 0,32,33
 1205 1141 1205 1141 1180 1157 c 0,34,35
 1147 1176 1147 1176 1112.5 1195.5 c 128,-1,36
 1078 1215 1078 1215 1036.5 1229.5 c 128,-1,37
 995 1244 995 1244 943.5 1253.5 c 128,-1,38
 892 1263 892 1263 824 1263 c 0,39,40
 714 1263 714 1263 626 1226 c 128,-1,41
 538 1189 538 1189 475.5 1120.5 c 128,-1,42
 413 1052 413 1052 379 955.5 c 128,-1,43
 345 859 345 859 345 740 c 0,44,45
 345 612 345 612 381 512.5 c 128,-1,46
 417 413 417 413 481.5 344 c 128,-1,47
 546 275 546 275 635 239 c 128,-1,48
 724 203 724 203 829 203 c 0,0,1
EndSplineSet
Validated: 1
EndChar

StartChar: H
Encoding: 72 72 43
Width: 1548
GlyphClass: 1
Flags: W
LayerCount: 2
Fore
SplineSet
1399 0 m 1,0,-1
 1121 0 l 1,1,-1
 1121 647 l 1,2,-1
 427 647 l 1,3,-1
 427 0 l 1,4,-1
 150 0 l 1,5,-1
 150 1481 l 1,6,-1
 427 1481 l 1,7,-1
 427 844 l 1,8,-1
 1121 844 l 1,9,-1
 1121 1481 l 1,10,-1
 1399 1481 l 1,11,-1
 1399 0 l 1,0,-1
EndSplineSet
Validated: 1
EndChar

StartChar: I
Encoding: 73 73 44
Width: 643
GlyphClass: 1
Flags: W
LayerCount: 2
Fore
SplineSet
460 0 m 1,0,-1
 183 0 l 1,1,-1
 183 1481 l 1,2,-1
 460 1481 l 1,3,-1
 460 0 l 1,0,-1
EndSplineSet
Validated: 1
EndChar

StartChar: J
Encoding: 74 74 45
Width: 894
GlyphClass: 1
Flags: W
LayerCount: 2
Fore
SplineSet
745 526 m 2,0,1
 745 401 745 401 714.5 301 c 128,-1,2
 684 201 684 201 623 130 c 128,-1,3
 562 59 562 59 471 21.5 c 128,-1,4
 380 -16 380 -16 259 -16 c 0,5,6
 204 -16 204 -16 150.5 -9.5 c 128,-1,7
 97 -3 97 -3 39 11 c 1,8,-1
 53 175 l 2,9,10
 55 198 55 198 70 211.5 c 128,-1,11
 85 225 85 225 114 225 c 0,12,13
 131 225 131 225 159 218 c 128,-1,14
 187 211 187 211 230 211 c 0,15,16
 288 211 288 211 333.5 228 c 128,-1,17
 379 245 379 245 409 281.5 c 128,-1,18
 439 318 439 318 454.5 377 c 128,-1,19
 470 436 470 436 470 520 c 2,20,-1
 470 1481 l 1,21,-1
 745 1481 l 1,22,-1
 745 526 l 2,0,1
EndSplineSet
Validated: 1
EndChar

StartChar: K
Encoding: 75 75 46
Width: 1429
GlyphClass: 1
Flags: W
LayerCount: 2
Fore
SplineSet
434 860 m 1,0,-1
 499 860 l 2,1,2
 538 860 538 860 563.5 871 c 128,-1,3
 589 882 589 882 607 905 c 2,4,-1
 1016 1422 l 2,5,6
 1042 1455 1042 1455 1070 1468 c 128,-1,7
 1098 1481 1098 1481 1141 1481 c 2,8,-1
 1378 1481 l 1,9,-1
 880 865 l 2,10,11
 856 836 856 836 834.5 817 c 128,-1,12
 813 798 813 798 788 785 c 1,13,14
 822 773 822 773 849.5 750.5 c 128,-1,15
 877 728 877 728 902 693 c 2,16,-1
 1416 0 l 1,17,-1
 1172 0 l 2,18,19
 1123 0 1123 0 1099 14 c 128,-1,20
 1075 28 1075 28 1059 54 c 2,21,-1
 640 601 l 2,22,23
 620 628 620 628 594 639.5 c 128,-1,24
 568 651 568 651 521 651 c 2,25,-1
 434 651 l 1,26,-1
 434 0 l 1,27,-1
 159 0 l 1,28,-1
 159 1482 l 1,29,-1
 434 1482 l 1,30,-1
 434 860 l 1,0,-1
EndSplineSet
Validated: 1
EndChar

StartChar: L
Encoding: 76 76 47
Width: 1058
GlyphClass: 1
Flags: W
LayerCount: 2
Fore
SplineSet
425 227 m 1,0,-1
 1018 227 l 1,1,-1
 1018 0 l 1,2,-1
 150 0 l 1,3,-1
 150 1481 l 1,4,-1
 425 1481 l 1,5,-1
 425 227 l 1,0,-1
EndSplineSet
Validated: 1
EndChar

StartChar: M
Encoding: 77 77 48
Width: 1904
GlyphClass: 1
Flags: W
LayerCount: 2
Fore
SplineSet
954 475 m 0,0,1
 968 512 968 512 978 538 c 0,2,3
 992 568 992 568 1017 616 c 2,4,-1
 1455 1437 l 2,5,6
 1463 1452 1463 1452 1472 1461 c 128,-1,7
 1481 1470 1481 1470 1491.5 1474.5 c 128,-1,8
 1502 1479 1502 1479 1515.5 1480 c 128,-1,9
 1529 1481 1529 1481 1547 1481 c 2,10,-1
 1755 1481 l 1,11,-1
 1755 0 l 1,12,-1
 1512 0 l 1,13,-1
 1512 956 l 2,14,15
 1512 983 1512 983 1514 1015 c 128,-1,16
 1516 1047 1516 1047 1519 1079 c 1,17,-1
 1071 240 l 2,18,19
 1056 212 1056 212 1031 195 c 0,20,21
 1007 179 1007 179 974 179 c 2,22,-1
 936 179 l 2,23,24
 903 179 903 179 879 194 c 0,25,26
 855 210 855 210 839 240 c 2,27,-1
 385 1082 l 1,28,29
 389 1048 389 1048 390.5 1016 c 128,-1,30
 392 984 392 984 392 956 c 2,31,-1
 392 0 l 1,32,-1
 150 0 l 1,33,-1
 150 1481 l 1,34,-1
 357 1481 l 2,35,36
 375 1481 375 1481 388.5 1480 c 128,-1,37
 402 1479 402 1479 413 1474.5 c 128,-1,38
 424 1470 424 1470 434 1460 c 128,-1,39
 444 1450 444 1450 451 1437 c 2,40,-1
 886 620 l 1,41,-1
 954 475 l 0,0,1
EndSplineSet
Validated: 1
EndChar

StartChar: N
Encoding: 78 78 49
Width: 1548
GlyphClass: 1
Flags: W
LayerCount: 2
Fore
SplineSet
316 1480 m 0,0,1
 332 1478 332 1478 344 1473 c 128,-1,2
 356 1468 356 1468 365.5 1459.5 c 128,-1,3
 375 1451 375 1451 386 1437 c 2,4,-1
 1163 446 l 1,5,6
 1159 482 1159 482 1157.5 516.5 c 128,-1,7
 1156 551 1156 551 1156 581 c 2,8,-1
 1156 1481 l 1,9,-1
 1399 1481 l 1,10,-1
 1399 0 l 1,11,-1
 1256 0 l 2,12,13
 1223 0 1223 0 1202 10 c 128,-1,14
 1181 20 1181 20 1160 47 c 2,15,-1
 386 1033 l 1,16,17
 389 1000 389 1000 390.5 968 c 128,-1,18
 392 936 392 936 392 909 c 2,19,-1
 392 0 l 1,20,-1
 150 0 l 1,21,-1
 150 1481 l 1,22,-1
 294 1481 l 1,23,24
 305 1481 305 1481 316 1480 c 0,0,1
EndSplineSet
Validated: 1
EndChar

StartChar: O
Encoding: 79 79 50
Width: 1637
GlyphClass: 1
Flags: W
LayerCount: 2
Fore
SplineSet
1570 740 m 256,0,1
 1570 577 1570 577 1515.5 438.5 c 128,-1,2
 1461 300 1461 300 1363 198.5 c 128,-1,3
 1265 97 1265 97 1126.5 40.5 c 128,-1,4
 988 -16 988 -16 820 -16 c 256,5,6
 652 -16 652 -16 513.5 40.5 c 128,-1,7
 375 97 375 97 276 198.5 c 128,-1,8
 177 300 177 300 123 439 c 128,-1,9
 69 578 69 578 69 740 c 256,10,11
 69 903 69 903 123 1042 c 128,-1,12
 177 1181 177 1181 276 1282 c 128,-1,13
 375 1383 375 1383 513.5 1440 c 128,-1,14
 652 1497 652 1497 820 1497 c 256,15,16
 988 1497 988 1497 1126.5 1439.5 c 128,-1,17
 1265 1382 1265 1382 1363 1281.5 c 128,-1,18
 1461 1181 1461 1181 1515.5 1042 c 128,-1,19
 1570 903 1570 903 1570 740 c 256,0,1
1287 740 m 256,20,21
 1287 862 1287 862 1255 959 c 128,-1,22
 1223 1056 1223 1056 1162.5 1123.5 c 128,-1,23
 1102 1191 1102 1191 1015.5 1227 c 128,-1,24
 929 1263 929 1263 820 1263 c 256,25,26
 711 1263 711 1263 624.5 1227 c 128,-1,27
 538 1191 538 1191 477 1123.5 c 128,-1,28
 416 1056 416 1056 383 959 c 128,-1,29
 350 862 350 862 350 740 c 256,30,31
 350 618 350 618 383 521.5 c 128,-1,32
 416 425 416 425 477 358 c 128,-1,33
 538 291 538 291 625 255 c 128,-1,34
 712 219 712 219 820 219 c 256,35,36
 929 219 929 219 1015.5 255 c 128,-1,37
 1102 291 1102 291 1162.5 358 c 128,-1,38
 1223 425 1223 425 1255 521.5 c 128,-1,39
 1287 618 1287 618 1287 740 c 256,20,21
EndSplineSet
Validated: 1
EndChar

StartChar: P
Encoding: 80 80 51
Width: 1280
GlyphClass: 1
Flags: W
LayerCount: 2
Fore
SplineSet
434 521 m 1,0,-1
 434 0 l 1,1,-1
 159 0 l 1,2,-1
 159 1481 l 1,3,-1
 641 1481 l 2,4,5
 789 1481 789 1481 898 1446 c 128,-1,6
 1007 1411 1007 1411 1077.5 1348.5 c 128,-1,7
 1148 1286 1148 1286 1181.5 1199 c 128,-1,8
 1215 1112 1215 1112 1215 1009 c 0,9,10
 1215 901 1215 901 1179.5 811.5 c 128,-1,11
 1144 722 1144 722 1072 657.5 c 128,-1,12
 1000 593 1000 593 892.5 557 c 128,-1,13
 785 521 785 521 641 521 c 2,14,-1
 434 521 l 1,0,-1
434 736 m 1,15,-1
 641 736 l 2,16,17
 717 736 717 736 773 755 c 128,-1,18
 829 774 829 774 866 809.5 c 128,-1,19
 903 845 903 845 921.5 895.5 c 128,-1,20
 940 946 940 946 940 1009 c 0,21,22
 940 1068 940 1068 921.5 1116 c 128,-1,23
 903 1164 903 1164 866 1198 c 128,-1,24
 829 1232 829 1232 773 1250 c 128,-1,25
 717 1268 717 1268 641 1268 c 2,26,-1
 434 1268 l 1,27,-1
 434 736 l 1,15,-1
EndSplineSet
Validated: 1
EndChar

StartChar: Q
Encoding: 81 81 52
Width: 1637
GlyphClass: 1
Flags: W
LayerCount: 2
Fore
SplineSet
1570 740 m 0,0,1
 1570 641 1570 641 1549.5 550.5 c 128,-1,2
 1529 460 1529 460 1490.5 381 c 128,-1,3
 1452 302 1452 302 1396.5 236 c 128,-1,4
 1341 170 1341 170 1271 120 c 1,5,-1
 1647 -290 l 1,6,-1
 1419 -290 l 2,7,8
 1370 -290 1370 -290 1330.5 -276.5 c 128,-1,9
 1291 -263 1291 -263 1258 -227 c 2,10,-1
 1041 12 l 1,11,12
 989 -2 989 -2 934.5 -9 c 128,-1,13
 880 -16 880 -16 820 -16 c 0,14,15
 652 -16 652 -16 513.5 40.5 c 128,-1,16
 375 97 375 97 276 198.5 c 128,-1,17
 177 300 177 300 123 439 c 128,-1,18
 69 578 69 578 69 740 c 256,19,20
 69 903 69 903 123 1042 c 128,-1,21
 177 1181 177 1181 276 1282 c 128,-1,22
 375 1383 375 1383 513.5 1440 c 128,-1,23
 652 1497 652 1497 820 1497 c 256,24,25
 988 1497 988 1497 1126.5 1439.5 c 128,-1,26
 1265 1382 1265 1382 1363 1281.5 c 128,-1,27
 1461 1181 1461 1181 1515.5 1042 c 128,-1,28
 1570 903 1570 903 1570 740 c 0,0,1
1287 740 m 256,29,30
 1287 862 1287 862 1255 959 c 128,-1,31
 1223 1056 1223 1056 1162.5 1123.5 c 128,-1,32
 1102 1191 1102 1191 1015.5 1227 c 128,-1,33
 929 1263 929 1263 820 1263 c 256,34,35
 711 1263 711 1263 624.5 1227 c 128,-1,36
 538 1191 538 1191 477 1123.5 c 128,-1,37
 416 1056 416 1056 383 959 c 128,-1,38
 350 862 350 862 350 740 c 256,39,40
 350 618 350 618 383 521.5 c 128,-1,41
 416 425 416 425 477 358 c 128,-1,42
 538 291 538 291 625 255 c 128,-1,43
 712 219 712 219 820 219 c 256,44,45
 929 219 929 219 1015.5 255 c 128,-1,46
 1102 291 1102 291 1162.5 358 c 128,-1,47
 1223 425 1223 425 1255 521.5 c 128,-1,48
 1287 618 1287 618 1287 740 c 256,29,30
EndSplineSet
Validated: 1
EndChar

StartChar: R
Encoding: 82 82 53
Width: 1341
GlyphClass: 1
Flags: W
LayerCount: 2
Fore
SplineSet
434 579 m 1,0,-1
 434 0 l 1,1,-1
 159 0 l 1,2,-1
 159 1481 l 1,3,-1
 610 1481 l 2,4,5
 762 1481 762 1481 870 1449.5 c 128,-1,6
 978 1418 978 1418 1047 1362 c 128,-1,7
 1116 1306 1116 1306 1148.5 1227.5 c 128,-1,8
 1181 1149 1181 1149 1181 1055 c 0,9,10
 1181 980 1181 980 1159 913.5 c 128,-1,11
 1137 847 1137 847 1095.5 792.5 c 128,-1,12
 1054 738 1054 738 993 697 c 128,-1,13
 932 656 932 656 854 632 c 1,14,15
 906 602 906 602 944 547 c 2,16,-1
 1315 0 l 1,17,-1
 1067 0 l 2,18,19
 1031 0 1031 0 1006 14.5 c 128,-1,20
 981 29 981 29 964 55 c 2,21,-1
 652 529 l 2,22,23
 635 556 635 556 614 567.5 c 128,-1,24
 593 579 593 579 552 579 c 2,25,-1
 434 579 l 1,0,-1
434 776 m 1,26,-1
 606 776 l 2,27,28
 684 776 684 776 742 795.5 c 128,-1,29
 800 815 800 815 837 849.5 c 128,-1,30
 874 884 874 884 892.5 931 c 128,-1,31
 911 978 911 978 911 1034 c 0,32,33
 911 1147 911 1147 837 1207.5 c 128,-1,34
 763 1268 763 1268 610 1268 c 2,35,-1
 434 1268 l 1,36,-1
 434 776 l 1,26,-1
EndSplineSet
Validated: 1
EndChar

StartChar: S
Encoding: 83 83 54
Width: 1098
GlyphClass: 1
Flags: W
LayerCount: 2
Fore
SplineSet
943 1211 m 2,0,1
 932 1188 932 1188 917 1179 c 128,-1,2
 902 1170 902 1170 882 1170 c 256,3,4
 862 1170 862 1170 836 1186 c 128,-1,5
 810 1202 810 1202 775 1221.5 c 128,-1,6
 740 1241 740 1241 693.5 1257 c 128,-1,7
 647 1273 647 1273 584 1273 c 0,8,9
 527 1273 527 1273 484 1259 c 128,-1,10
 441 1245 441 1245 412 1220.5 c 128,-1,11
 383 1196 383 1196 368.5 1161.5 c 128,-1,12
 354 1127 354 1127 354 1086 c 0,13,14
 354 1034 354 1034 383.5 999.5 c 128,-1,15
 413 965 413 965 461 940 c 128,-1,16
 509 915 509 915 570.5 896 c 128,-1,17
 632 877 632 877 696 855 c 128,-1,18
 760 833 760 833 821.5 803.5 c 128,-1,19
 883 774 883 774 931 729.5 c 128,-1,20
 979 685 979 685 1008 620.5 c 128,-1,21
 1037 556 1037 556 1037 464 c 0,22,23
 1037 364 1037 364 1003 276 c 128,-1,24
 969 188 969 188 903 123 c 128,-1,25
 837 58 837 58 741.5 21 c 128,-1,26
 646 -16 646 -16 523 -16 c 0,27,28
 452 -16 452 -16 383.5 -2.5 c 128,-1,29
 315 11 315 11 252 36.5 c 128,-1,30
 189 62 189 62 134.5 98 c 128,-1,31
 80 134 80 134 37 178 c 1,32,-1
 117 310 l 2,33,34
 128 324 128 324 144 334 c 128,-1,35
 160 344 160 344 179 344 c 0,36,37
 205 344 205 344 234.5 323 c 128,-1,38
 264 302 264 302 304.5 276.5 c 128,-1,39
 345 251 345 251 400 230 c 128,-1,40
 455 209 455 209 531 209 c 0,41,42
 649 209 649 209 713.5 265 c 128,-1,43
 778 321 778 321 778 425 c 0,44,45
 778 483 778 483 749 520 c 128,-1,46
 720 557 720 557 672 582 c 128,-1,47
 624 607 624 607 562.5 624.5 c 128,-1,48
 501 642 501 642 437.5 662.5 c 128,-1,49
 374 683 374 683 312.5 711.5 c 128,-1,50
 251 740 251 740 203 786.5 c 128,-1,51
 155 833 155 833 125.5 902 c 128,-1,52
 96 971 96 971 96 1072 c 0,53,54
 96 1153 96 1153 128.5 1230 c 128,-1,55
 161 1307 161 1307 223 1366 c 128,-1,56
 285 1425 285 1425 375 1461 c 128,-1,57
 465 1497 465 1497 581 1497 c 0,58,59
 712 1497 712 1497 822.5 1456 c 128,-1,60
 933 1415 933 1415 1011 1341 c 1,61,-1
 943 1211 l 2,0,1
EndSplineSet
Validated: 1
EndChar

StartChar: T
Encoding: 84 84 55
Width: 1218
GlyphClass: 1
Flags: W
LayerCount: 2
Fore
SplineSet
1193 1481 m 1,0,-1
 1193 1254 l 1,1,-1
 748 1254 l 1,2,-1
 748 0 l 1,3,-1
 472 0 l 1,4,-1
 472 1254 l 1,5,-1
 25 1254 l 1,6,-1
 25 1481 l 1,7,-1
 1193 1481 l 1,0,-1
EndSplineSet
Validated: 1
EndChar

StartChar: U
Encoding: 85 85 56
Width: 1490
GlyphClass: 1
Flags: W
LayerCount: 2
Fore
SplineSet
745 222 m 256,0,1
 825 222 825 222 888 248.5 c 128,-1,2
 951 275 951 275 994.5 323.5 c 128,-1,3
 1038 372 1038 372 1061 440.5 c 128,-1,4
 1084 509 1084 509 1084 594 c 2,5,-1
 1084 1481 l 1,6,-1
 1360 1481 l 1,7,-1
 1360 594 l 2,8,9
 1360 462 1360 462 1317.5 350 c 128,-1,10
 1275 238 1275 238 1195 156.5 c 128,-1,11
 1115 75 1115 75 1001.5 29.5 c 128,-1,12
 888 -16 888 -16 745 -16 c 256,13,14
 603 -16 603 -16 489.5 29.5 c 128,-1,15
 376 75 376 75 296.5 156.5 c 128,-1,16
 217 238 217 238 174.5 350 c 128,-1,17
 132 462 132 462 132 594 c 2,18,-1
 132 1481 l 1,19,-1
 408 1481 l 1,20,-1
 408 595 l 2,21,22
 408 510 408 510 431 441.5 c 128,-1,23
 454 373 454 373 497 324 c 128,-1,24
 540 275 540 275 602.5 248.5 c 128,-1,25
 665 222 665 222 745 222 c 256,0,1
EndSplineSet
Validated: 1
EndChar

StartChar: V
Encoding: 86 86 57
Width: 1454
GlyphClass: 1
Flags: W
LayerCount: 2
Fore
SplineSet
4 1481 m 1,0,-1
 226 1481 l 2,1,2
 262 1481 262 1481 284.5 1463.5 c 128,-1,3
 307 1446 307 1446 318 1418 c 2,4,-1
 667 515 l 2,5,6
 684 471 684 471 700 418.5 c 128,-1,7
 716 366 716 366 730 307 c 1,8,9
 754 425 754 425 788 515 c 2,10,-1
 1136 1418 l 2,11,12
 1145 1442 1145 1442 1168.5 1461.5 c 128,-1,13
 1192 1481 1192 1481 1227 1481 c 2,14,-1
 1449 1481 l 1,15,-1
 851 0 l 1,16,-1
 602 0 l 1,17,-1
 4 1481 l 1,0,-1
EndSplineSet
Validated: 1
EndChar

StartChar: W
Encoding: 87 87 58
Width: 2143
GlyphClass: 1
Flags: W
LayerCount: 2
Fore
SplineSet
12 1481 m 1,0,-1
 244 1481 l 2,1,2
 280 1481 280 1481 304 1464 c 128,-1,3
 328 1447 328 1447 336 1418 c 2,4,-1
 588 532 l 2,5,6
 597 499 597 499 604.5 461 c 128,-1,7
 612 423 612 423 620 380 c 1,8,9
 628 423 628 423 637.5 461.5 c 128,-1,10
 647 500 647 500 658 532 c 2,11,-1
 949 1418 l 2,12,13
 957 1442 957 1442 981.5 1461.5 c 128,-1,14
 1006 1481 1006 1481 1040 1481 c 2,15,-1
 1121 1481 l 2,16,17
 1157 1481 1157 1481 1180.5 1464 c 128,-1,18
 1204 1447 1204 1447 1213 1418 c 2,19,-1
 1502 532 l 2,20,21
 1525 466 1525 466 1541 387 c 1,22,23
 1548 427 1548 427 1556 464 c 128,-1,24
 1564 501 1564 501 1572 532 c 2,25,-1
 1824 1418 l 2,26,27
 1831 1444 1831 1444 1855.5 1462.5 c 128,-1,28
 1880 1481 1880 1481 1915 1481 c 2,29,-1
 2131 1481 l 1,30,-1
 1671 0 l 1,31,-1
 1422 0 l 1,32,-1
 1099 1012 l 2,33,34
 1093 1031 1093 1031 1086 1053.5 c 128,-1,35
 1079 1076 1079 1076 1073 1102 c 1,36,37
 1067 1076 1067 1076 1060.5 1053.5 c 128,-1,38
 1054 1031 1054 1031 1048 1012 c 2,39,-1
 721 0 l 1,40,-1
 472 0 l 1,41,-1
 12 1481 l 1,0,-1
EndSplineSet
Validated: 1
EndChar

StartChar: X
Encoding: 88 88 59
Width: 1390
GlyphClass: 1
Flags: W
LayerCount: 2
Fore
SplineSet
505 762 m 1,0,-1
 33 1481 l 1,1,-1
 307 1481 l 2,2,3
 336 1481 336 1481 348.5 1473 c 128,-1,4
 361 1465 361 1465 372 1448 c 2,5,-1
 709 904 l 1,6,7
 714 917 714 917 720 930 c 128,-1,8
 726 943 726 943 734 956 c 2,9,-1
 1042 1443 l 2,10,11
 1065 1481 1065 1481 1101 1481 c 2,12,-1
 1365 1481 l 1,13,-1
 888 773 l 1,14,-1
 1378 0 l 1,15,-1
 1103 0 l 2,16,17
 1075 0 1075 0 1058 14.5 c 128,-1,18
 1041 29 1041 29 1030 47 c 2,19,-1
 687 614 l 1,20,21
 683 602 683 602 678 591.5 c 128,-1,22
 673 581 673 581 668 571 c 2,23,-1
 339 47 l 2,24,25
 328 30 328 30 311.5 15 c 128,-1,26
 295 0 295 0 270 0 c 2,27,-1
 12 0 l 1,28,-1
 505 762 l 1,0,-1
EndSplineSet
Validated: 1
EndChar

StartChar: Y
Encoding: 89 89 60
Width: 1340
GlyphClass: 1
Flags: W
LayerCount: 2
Fore
SplineSet
808 575 m 1,0,-1
 808 0 l 1,1,-1
 532 0 l 1,2,-1
 532 575 l 1,3,-1
 -7 1481 l 1,4,-1
 236 1481 l 2,5,6
 272 1481 272 1481 292.5 1463.5 c 128,-1,7
 313 1446 313 1446 328 1419 c 2,8,-1
 599 925 l 2,9,10
 623 881 623 881 640 841.5 c 128,-1,11
 657 802 657 802 672 764 c 1,12,13
 685 803 685 803 702 842.5 c 128,-1,14
 719 882 719 882 742 925 c 2,15,-1
 1012 1419 l 2,16,17
 1023 1442 1023 1442 1045.5 1461.5 c 128,-1,18
 1068 1481 1068 1481 1103 1481 c 2,19,-1
 1347 1481 l 1,20,-1
 808 575 l 1,0,-1
EndSplineSet
Validated: 1
EndChar

StartChar: Z
Encoding: 90 90 61
Width: 1263
GlyphClass: 1
Flags: W
LayerCount: 2
Fore
SplineSet
1207 1481 m 1,0,-1
 1207 1379 l 2,1,2
 1207 1332 1207 1332 1181 1293 c 2,3,-1
 421 220 l 1,4,-1
 1189 220 l 1,5,-1
 1189 0 l 1,6,-1
 63 0 l 1,7,-1
 63 109 l 2,8,9
 63 129 63 129 70.5 148 c 128,-1,10
 78 167 78 167 89 183 c 2,11,-1
 851 1262 l 1,12,-1
 112 1262 l 1,13,-1
 112 1481 l 1,14,-1
 1207 1481 l 1,0,-1
EndSplineSet
Validated: 1
EndChar

StartChar: bracketleft
Encoding: 91 91 62
Width: 614
GlyphClass: 1
Flags: W
LayerCount: 2
Fore
SplineSet
118 -315 m 1,0,-1
 118 1584 l 1,1,-1
 538 1584 l 1,2,-1
 538 1485 l 2,3,4
 538 1458 538 1458 519 1439 c 128,-1,5
 500 1420 500 1420 470 1420 c 2,6,-1
 329 1420 l 1,7,-1
 329 -152 l 1,8,-1
 470 -152 l 2,9,10
 500 -152 500 -152 519 -170.5 c 128,-1,11
 538 -189 538 -189 538 -216 c 2,12,-1
 538 -315 l 1,13,-1
 118 -315 l 1,0,-1
EndSplineSet
Validated: 1
EndChar

StartChar: backslash
Encoding: 92 92 63
Width: 799
GlyphClass: 1
Flags: W
LayerCount: 2
Fore
SplineSet
-29 1522 m 1,0,-1
 80 1522 l 2,1,2
 125 1522 125 1522 158 1499 c 128,-1,3
 191 1476 191 1476 209 1433 c 2,4,-1
 806 -97 l 1,5,-1
 699 -97 l 2,6,7
 659 -97 659 -97 621 -73.5 c 128,-1,8
 583 -50 583 -50 565 -3 c 2,9,-1
 -29 1522 l 1,0,-1
EndSplineSet
Validated: 1
EndChar

StartChar: bracketright
Encoding: 93 93 64
Width: 614
GlyphClass: 1
Flags: W
LayerCount: 2
Fore
SplineSet
77 -315 m 1,0,-1
 77 -216 l 2,1,2
 77 -189 77 -189 96 -170.5 c 128,-1,3
 115 -152 115 -152 144 -152 c 2,4,-1
 286 -152 l 1,5,-1
 286 1420 l 1,6,-1
 144 1420 l 2,7,8
 114 1420 114 1420 95.5 1439 c 128,-1,9
 77 1458 77 1458 77 1485 c 2,10,-1
 77 1584 l 1,11,-1
 497 1584 l 1,12,-1
 497 -315 l 1,13,-1
 77 -315 l 1,0,-1
EndSplineSet
Validated: 1
EndChar

StartChar: asciicircum
Encoding: 94 94 65
Width: 1187
GlyphClass: 1
Flags: W
LayerCount: 2
Fore
SplineSet
1053 796 m 1,0,-1
 867 796 l 2,1,2
 843 796 843 796 828.5 808 c 128,-1,3
 814 820 814 820 804 838 c 2,4,-1
 641 1134 l 2,5,6
 626 1163 626 1163 613 1188 c 128,-1,7
 600 1213 600 1213 592 1240 c 1,8,9
 584 1213 584 1213 572.5 1187 c 128,-1,10
 561 1161 561 1161 546 1134 c 2,11,-1
 386 838 l 2,12,13
 377 821 377 821 361.5 808.5 c 128,-1,14
 346 796 346 796 319 796 c 2,15,-1
 125 796 l 1,16,-1
 507 1481 l 1,17,-1
 671 1481 l 1,18,-1
 1053 796 l 1,0,-1
EndSplineSet
Validated: 1
EndChar

StartChar: underscore
Encoding: 95 95 66
Width: 806
GlyphClass: 1
Flags: W
LayerCount: 2
Fore
SplineSet
807 -137 m 1,0,-1
 807 -301 l 1,1,-1
 0 -301 l 1,2,-1
 0 -137 l 1,3,-1
 807 -137 l 1,0,-1
EndSplineSet
Validated: 1
EndChar

StartChar: grave
Encoding: 96 96 67
Width: 653
GlyphClass: 1
Flags: W
LayerCount: 2
Fore
SplineSet
236 1497 m 2,0,1
 278 1497 278 1497 297.5 1483 c 128,-1,2
 317 1469 317 1469 333 1443 c 2,3,-1
 479 1194 l 1,4,-1
 335 1194 l 2,5,6
 306 1194 306 1194 288 1201.5 c 128,-1,7
 270 1209 270 1209 252 1230 c 2,8,-1
 -1 1497 l 1,9,-1
 236 1497 l 2,0,1
EndSplineSet
Validated: 1
Substitution2: "'case' Case-Sensitive Forms in Latin lookup 0 subtable" grave.case
EndChar

StartChar: a
Encoding: 97 97 68
Width: 1072
GlyphClass: 1
Flags: W
LayerCount: 2
Fore
SplineSet
958 0 m 1,0,-1
 845 0 l 2,1,2
 809 0 809 0 788.5 11 c 128,-1,3
 768 22 768 22 758 54 c 2,4,-1
 735 129 l 1,5,6
 695 93 695 93 656.5 66 c 128,-1,7
 618 39 618 39 577.5 20.5 c 128,-1,8
 537 2 537 2 490.5 -7 c 128,-1,9
 444 -16 444 -16 388 -16 c 0,10,11
 321 -16 321 -16 265 1.5 c 128,-1,12
 209 19 209 19 168.5 55 c 128,-1,13
 128 91 128 91 105.5 144.5 c 128,-1,14
 83 198 83 198 83 268 c 0,15,16
 83 327 83 327 114 385 c 128,-1,17
 145 443 145 443 218 490 c 128,-1,18
 291 537 291 537 411.5 567.5 c 128,-1,19
 532 598 532 598 712 602 c 1,20,-1
 712 664 l 2,21,22
 712 769 712 769 667.5 819.5 c 128,-1,23
 623 870 623 870 538 870 c 0,24,25
 477 870 477 870 435.5 856 c 128,-1,26
 394 842 394 842 364 824 c 128,-1,27
 334 806 334 806 308.5 791.5 c 128,-1,28
 283 777 283 777 252 777 c 0,29,30
 226 777 226 777 207.5 790.5 c 128,-1,31
 189 804 189 804 178 823 c 2,32,-1
 132 904 l 1,33,34
 313 1070 313 1070 569 1070 c 0,35,36
 661 1070 661 1070 733.5 1040 c 128,-1,37
 806 1010 806 1010 856 956 c 128,-1,38
 906 902 906 902 932 827.5 c 128,-1,39
 958 753 958 753 958 664 c 2,40,-1
 958 0 l 1,0,-1
467 158 m 0,41,42
 506 158 506 158 538.5 165 c 128,-1,43
 571 172 571 172 600.5 186.5 c 128,-1,44
 630 201 630 201 657 222 c 128,-1,45
 684 243 684 243 712 271 c 1,46,-1
 712 449 l 1,47,48
 601 444 601 444 527 430 c 128,-1,49
 453 416 453 416 407.5 394.5 c 128,-1,50
 362 373 362 373 343.5 344 c 128,-1,51
 325 315 325 315 325 282 c 0,52,53
 325 215 325 215 364.5 186.5 c 128,-1,54
 404 158 404 158 467 158 c 0,41,42
EndSplineSet
Validated: 1
EndChar

StartChar: b
Encoding: 98 98 69
Width: 1167
GlyphClass: 1
Flags: W
LayerCount: 2
Fore
SplineSet
138 0 m 1,0,-1
 138 1522 l 1,1,-1
 391 1522 l 1,2,-1
 391 922 l 1,3,4
 453 989 453 989 532 1028 c 128,-1,5
 611 1067 611 1067 717 1067 c 0,6,7
 803 1067 803 1067 874 1031.5 c 128,-1,8
 945 996 945 996 997 928.5 c 128,-1,9
 1049 861 1049 861 1077 762 c 128,-1,10
 1105 663 1105 663 1105 534 c 0,11,12
 1105 416 1105 416 1073 315.5 c 128,-1,13
 1041 215 1041 215 982.5 141.5 c 128,-1,14
 924 68 924 68 840.5 26.5 c 128,-1,15
 757 -15 757 -15 653 -15 c 0,16,17
 605 -15 605 -15 565 -5.5 c 128,-1,18
 525 4 525 4 492.5 21.5 c 128,-1,19
 460 39 460 39 431.5 64 c 128,-1,20
 403 89 403 89 378 120 c 1,21,-1
 367 49 l 2,22,23
 361 22 361 22 346 11 c 128,-1,24
 331 0 331 0 305 0 c 2,25,-1
 138 0 l 1,0,-1
630 870 m 0,26,27
 551 870 551 870 495 837 c 128,-1,28
 439 804 439 804 391 743 c 1,29,-1
 391 272 l 1,30,31
 434 219 434 219 485 198 c 128,-1,32
 536 177 536 177 595 177 c 0,33,34
 652 177 652 177 698 198.5 c 128,-1,35
 744 220 744 220 776.5 264 c 128,-1,36
 809 308 809 308 826.5 375 c 128,-1,37
 844 442 844 442 844 534 c 256,38,39
 844 626 844 626 829 690 c 128,-1,40
 814 754 814 754 786.5 794 c 128,-1,41
 759 834 759 834 719.5 852 c 128,-1,42
 680 870 680 870 630 870 c 0,26,27
EndSplineSet
Validated: 1
EndChar

StartChar: c
Encoding: 99 99 70
Width: 976
GlyphClass: 1
Flags: W
LayerCount: 2
Fore
SplineSet
873 828 m 2,0,1
 862 814 862 814 851.5 806 c 128,-1,2
 841 798 841 798 820 798 c 0,3,4
 801 798 801 798 782.5 809.5 c 128,-1,5
 764 821 764 821 738.5 836 c 128,-1,6
 713 851 713 851 677.5 862.5 c 128,-1,7
 642 874 642 874 590 874 c 0,8,9
 523 874 523 874 473 850 c 128,-1,10
 423 826 423 826 389.5 781 c 128,-1,11
 356 736 356 736 340 672 c 128,-1,12
 324 608 324 608 324 527 c 0,13,14
 324 443 324 443 341.5 377.5 c 128,-1,15
 359 312 359 312 393 267.5 c 128,-1,16
 427 223 427 223 475 200 c 128,-1,17
 523 177 523 177 584 177 c 256,18,19
 644 177 644 177 681.5 192 c 128,-1,20
 719 207 719 207 744.5 225 c 128,-1,21
 770 243 770 243 789 257.5 c 128,-1,22
 808 272 808 272 831 272 c 0,23,24
 862 272 862 272 878 249 c 2,25,-1
 950 157 l 1,26,27
 908 108 908 108 859 74.5 c 128,-1,28
 810 41 810 41 757.5 21 c 128,-1,29
 705 1 705 1 648.5 -7 c 128,-1,30
 592 -15 592 -15 537 -15 c 0,31,32
 440 -15 440 -15 353.5 21 c 128,-1,33
 267 57 267 57 203 127 c 128,-1,34
 139 197 139 197 102 297.5 c 128,-1,35
 65 398 65 398 65 527 c 0,36,37
 65 643 65 643 98 742 c 128,-1,38
 131 841 131 841 195.5 913 c 128,-1,39
 260 985 260 985 355.5 1026 c 128,-1,40
 451 1067 451 1067 574 1067 c 0,41,42
 692 1067 692 1067 780.5 1029 c 128,-1,43
 869 991 869 991 940 921 c 1,44,-1
 873 828 l 2,0,1
EndSplineSet
Validated: 1
EndChar

StartChar: d
Encoding: 100 100 71
Width: 1167
GlyphClass: 1
Flags: W
LayerCount: 2
Fore
SplineSet
874 0 m 2,0,1
 825 0 825 0 810 46 c 1,2,-1
 790 147 l 1,3,4
 757 110 757 110 721 80.5 c 128,-1,5
 685 51 685 51 643.5 29.5 c 128,-1,6
 602 8 602 8 554.5 -3.5 c 128,-1,7
 507 -15 507 -15 452 -15 c 0,8,9
 366 -15 366 -15 294 20.5 c 128,-1,10
 222 56 222 56 170.5 124.5 c 128,-1,11
 119 193 119 193 90.5 293 c 128,-1,12
 62 393 62 393 62 522 c 0,13,14
 62 639 62 639 94 739.5 c 128,-1,15
 126 840 126 840 185.5 913.5 c 128,-1,16
 245 987 245 987 328 1028.5 c 128,-1,17
 411 1070 411 1070 514 1070 c 0,18,19
 602 1070 602 1070 664.5 1042 c 128,-1,20
 727 1014 727 1014 776 967 c 1,21,-1
 776 1522 l 1,22,-1
 1029 1522 l 1,23,-1
 1029 0 l 1,24,-1
 874 0 l 2,0,1
538 185 m 0,25,26
 617 185 617 185 672 218 c 128,-1,27
 727 251 727 251 776 311 c 1,28,-1
 776 782 l 1,29,30
 733 834 733 834 682.5 856 c 128,-1,31
 632 878 632 878 573 878 c 0,32,33
 516 878 516 878 469.5 856.5 c 128,-1,34
 423 835 423 835 390.5 791.5 c 128,-1,35
 358 748 358 748 341 680.5 c 128,-1,36
 324 613 324 613 324 522 c 0,37,38
 324 430 324 430 338.5 366 c 128,-1,39
 353 302 353 302 381 261.5 c 128,-1,40
 409 221 409 221 449 203 c 128,-1,41
 489 185 489 185 538 185 c 0,25,26
EndSplineSet
Validated: 1
EndChar

StartChar: e
Encoding: 101 101 72
Width: 1094
GlyphClass: 1
Flags: W
LayerCount: 2
Fore
SplineSet
569 1067 m 0,0,1
 668 1067 668 1067 752 1035.5 c 128,-1,2
 836 1004 836 1004 896 943 c 128,-1,3
 956 882 956 882 990 793.5 c 128,-1,4
 1024 705 1024 705 1024 591 c 0,5,6
 1024 562 1024 562 1021.5 543 c 128,-1,7
 1019 524 1019 524 1012.5 513.5 c 128,-1,8
 1006 503 1006 503 994.5 498.5 c 128,-1,9
 983 494 983 494 966 494 c 2,10,-1
 316 494 l 1,11,12
 327 332 327 332 403 256 c 128,-1,13
 479 180 479 180 604 180 c 0,14,15
 665 180 665 180 710 194.5 c 128,-1,16
 755 209 755 209 788 226.5 c 128,-1,17
 821 244 821 244 846 258 c 128,-1,18
 871 272 871 272 895 272 c 0,19,20
 910 272 910 272 921.5 266 c 128,-1,21
 933 260 933 260 941 249 c 2,22,-1
 1015 157 l 1,23,24
 973 108 973 108 920.5 74.5 c 128,-1,25
 868 41 868 41 811.5 21 c 128,-1,26
 755 1 755 1 696 -7 c 128,-1,27
 637 -15 637 -15 582 -15 c 0,28,29
 472 -15 472 -15 378 21 c 128,-1,30
 284 57 284 57 214 128.5 c 128,-1,31
 144 200 144 200 104.5 305 c 128,-1,32
 65 410 65 410 65 548 c 0,33,34
 65 656 65 656 99.5 750.5 c 128,-1,35
 134 845 134 845 199 915 c 128,-1,36
 264 985 264 985 357.5 1026 c 128,-1,37
 451 1067 451 1067 569 1067 c 0,0,1
574 886 m 0,38,39
 463 886 463 886 401 823.5 c 128,-1,40
 339 761 339 761 322 646 c 1,41,-1
 797 646 l 1,42,43
 797 695 797 695 783.5 738.5 c 128,-1,44
 770 782 770 782 742.5 815 c 128,-1,45
 715 848 715 848 672.5 867 c 128,-1,46
 630 886 630 886 574 886 c 0,38,39
EndSplineSet
Validated: 1
EndChar

StartChar: f
Encoding: 102 102 73
Width: 717
GlyphClass: 1
Flags: W
LayerCount: 2
Fore
SplineSet
180 0 m 1,0,-1
 180 860 l 1,1,-1
 89 874 l 2,2,3
 59 879 59 879 41.5 894.5 c 128,-1,4
 24 910 24 910 24 938 c 2,5,-1
 24 1041 l 1,6,-1
 180 1041 l 1,7,-1
 180 1119 l 2,8,9
 180 1209 180 1209 207 1281 c 128,-1,10
 234 1353 234 1353 285 1403 c 128,-1,11
 336 1453 336 1453 408.5 1479.5 c 128,-1,12
 481 1506 481 1506 572 1506 c 0,13,14
 645 1506 645 1506 708 1487 c 1,15,-1
 702 1360 l 2,16,17
 700 1330 700 1330 674.5 1323 c 128,-1,18
 649 1316 649 1316 615 1316 c 0,19,20
 570 1316 570 1316 535 1306 c 128,-1,21
 500 1296 500 1296 475.5 1272 c 128,-1,22
 451 1248 451 1248 438 1208.5 c 128,-1,23
 425 1169 425 1169 425 1111 c 2,24,-1
 425 1041 l 1,25,-1
 698 1041 l 1,26,-1
 698 861 l 1,27,-1
 433 861 l 1,28,-1
 433 0 l 1,29,-1
 180 0 l 1,0,-1
EndSplineSet
Validated: 1
EndChar

StartChar: g
Encoding: 103 103 74
Width: 1059
GlyphClass: 1
Flags: W
LayerCount: 2
Fore
SplineSet
499 1069 m 0,0,1
 567 1069 567 1069 626 1055 c 128,-1,2
 685 1041 685 1041 734 1015 c 1,3,-1
 1036 1015 l 1,4,-1
 1036 921 l 2,5,6
 1036 897 1036 897 1024 883.5 c 128,-1,7
 1012 870 1012 870 982 865 c 2,8,-1
 888 848 l 1,9,10
 898 821 898 821 903.5 791.5 c 128,-1,11
 909 762 909 762 909 729 c 0,12,13
 909 651 909 651 878 588 c 128,-1,14
 847 525 847 525 792 481 c 128,-1,15
 737 437 737 437 662 413 c 128,-1,16
 587 389 587 389 499 389 c 0,17,18
 440 389 440 389 383 400 c 1,19,20
 334 370 334 370 334 334 c 0,21,22
 334 302 334 302 363 287 c 128,-1,23
 392 272 392 272 439.5 266 c 128,-1,24
 487 260 487 260 547.5 258.5 c 128,-1,25
 608 257 608 257 671.5 252 c 128,-1,26
 735 247 735 247 795.5 234 c 128,-1,27
 856 221 856 221 903.5 193.5 c 128,-1,28
 951 166 951 166 980.5 118.5 c 128,-1,29
 1010 71 1010 71 1010 -4 c 0,30,31
 1010 -74 1010 -74 975.5 -139.5 c 128,-1,32
 941 -205 941 -205 876 -256 c 128,-1,33
 811 -307 811 -307 717 -338.5 c 128,-1,34
 623 -370 623 -370 502 -370 c 0,35,36
 382 -370 382 -370 294 -347 c 128,-1,37
 206 -324 206 -324 148 -285.5 c 128,-1,38
 90 -247 90 -247 61.5 -196.5 c 128,-1,39
 33 -146 33 -146 33 -92 c 0,40,41
 33 -18 33 -18 78 32 c 128,-1,42
 123 82 123 82 203 112 c 1,43,44
 164 134 164 134 140.5 169.5 c 128,-1,45
 117 205 117 205 117 262 c 0,46,47
 117 286 117 286 125 311 c 128,-1,48
 133 336 133 336 150 360.5 c 128,-1,49
 167 385 167 385 192.5 407 c 128,-1,50
 218 429 218 429 253 446 c 1,51,52
 173 489 173 489 127.5 561 c 128,-1,53
 82 633 82 633 82 729 c 0,54,55
 82 807 82 807 113 870 c 128,-1,56
 144 933 144 933 200 977.5 c 128,-1,57
 256 1022 256 1022 332.5 1045.5 c 128,-1,58
 409 1069 409 1069 499 1069 c 0,0,1
776 -47 m 256,59,60
 776 -16 776 -16 757.5 3.5 c 128,-1,61
 739 23 739 23 707.5 33.5 c 128,-1,62
 676 44 676 44 633.5 49 c 128,-1,63
 591 54 591 54 543.5 56.5 c 128,-1,64
 496 59 496 59 445 62 c 128,-1,65
 394 65 394 65 347 71 c 1,66,67
 304 47 304 47 278 15 c 128,-1,68
 252 -17 252 -17 252 -59 c 0,69,70
 252 -87 252 -87 266 -111 c 128,-1,71
 280 -135 280 -135 310 -152.5 c 128,-1,72
 340 -170 340 -170 388 -179.5 c 128,-1,73
 436 -189 436 -189 506 -189 c 0,74,75
 577 -189 577 -189 628 -178.5 c 128,-1,76
 679 -168 679 -168 712 -149 c 128,-1,77
 745 -130 745 -130 760.5 -104 c 128,-1,78
 776 -78 776 -78 776 -47 c 256,59,60
499 551 m 0,79,80
 546 551 546 551 580.5 564 c 128,-1,81
 615 577 615 577 638.5 599.5 c 128,-1,82
 662 622 662 622 673.5 653.5 c 128,-1,83
 685 685 685 685 685 723 c 0,84,85
 685 801 685 801 638.5 846.5 c 128,-1,86
 592 892 592 892 499 892 c 256,87,88
 406 892 406 892 359 846.5 c 128,-1,89
 312 801 312 801 312 723 c 0,90,91
 312 686 312 686 324 654.5 c 128,-1,92
 336 623 336 623 359 600 c 128,-1,93
 382 577 382 577 417.5 564 c 128,-1,94
 453 551 453 551 499 551 c 0,79,80
EndSplineSet
Validated: 1
EndChar

StartChar: h
Encoding: 104 104 75
Width: 1164
GlyphClass: 1
Flags: W
LayerCount: 2
Fore
SplineSet
135 0 m 1,0,-1
 135 1522 l 1,1,-1
 388 1522 l 1,2,-1
 388 937 l 1,3,4
 449 995 449 995 523 1031 c 128,-1,5
 597 1067 597 1067 696 1067 c 0,6,7
 782 1067 782 1067 848.5 1038 c 128,-1,8
 915 1009 915 1009 960 956 c 128,-1,9
 1005 903 1005 903 1028 830 c 128,-1,10
 1051 757 1051 757 1051 669 c 2,11,-1
 1051 0 l 1,12,-1
 798 0 l 1,13,-1
 798 669 l 2,14,15
 798 765 798 765 753.5 817.5 c 128,-1,16
 709 870 709 870 620 870 c 0,17,18
 554 870 554 870 496.5 840.5 c 128,-1,19
 439 811 439 811 388 760 c 1,20,-1
 388 0 l 1,21,-1
 135 0 l 1,0,-1
EndSplineSet
Validated: 1
EndChar

StartChar: i
Encoding: 105 105 76
Width: 555
GlyphClass: 1
Flags: W
LayerCount: 2
Fore
SplineSet
404 1051 m 1,0,-1
 404 0 l 1,1,-1
 152 0 l 1,2,-1
 152 1051 l 1,3,-1
 404 1051 l 1,0,-1
442 1357 m 0,4,5
 442 1324 442 1324 429 1295.5 c 128,-1,6
 416 1267 416 1267 394 1245.5 c 128,-1,7
 372 1224 372 1224 342 1211 c 128,-1,8
 312 1198 312 1198 279 1198 c 256,9,10
 246 1198 246 1198 216.5 1211 c 128,-1,11
 187 1224 187 1224 165.5 1245.5 c 128,-1,12
 144 1267 144 1267 131.5 1295.5 c 128,-1,13
 119 1324 119 1324 119 1357 c 0,14,15
 119 1391 119 1391 131.5 1420.5 c 128,-1,16
 144 1450 144 1450 165.5 1471.5 c 128,-1,17
 187 1493 187 1493 216.5 1506 c 128,-1,18
 246 1519 246 1519 279 1519 c 0,19,20
 313 1519 313 1519 342.5 1506 c 128,-1,21
 372 1493 372 1493 394 1471.5 c 128,-1,22
 416 1450 416 1450 429 1420.5 c 128,-1,23
 442 1391 442 1391 442 1357 c 0,4,5
EndSplineSet
Validated: 1
EndChar

StartChar: j
Encoding: 106 106 77
Width: 550
GlyphClass: 1
Flags: W
LayerCount: 2
Fore
SplineSet
404 1051 m 1,0,-1
 404 -36 l 2,1,2
 404 -105 404 -105 386.5 -165 c 128,-1,3
 369 -225 369 -225 329.5 -270.5 c 128,-1,4
 290 -316 290 -316 226 -342.5 c 128,-1,5
 162 -369 162 -369 70 -369 c 0,6,7
 34 -369 34 -369 3 -364 c 128,-1,8
 -28 -359 -28 -359 -59 -349 c 1,9,-1
 -51 -213 l 2,10,11
 -48 -193 -48 -193 -35 -187 c 128,-1,12
 -22 -181 -22 -181 16 -181 c 256,13,14
 54 -181 54 -181 80 -173.5 c 128,-1,15
 106 -166 106 -166 122 -149 c 128,-1,16
 138 -132 138 -132 145 -104.5 c 128,-1,17
 152 -77 152 -77 152 -36 c 2,18,-1
 152 1051 l 1,19,-1
 404 1051 l 1,0,-1
442 1357 m 0,20,21
 442 1324 442 1324 429 1295.5 c 128,-1,22
 416 1267 416 1267 394 1245.5 c 128,-1,23
 372 1224 372 1224 342 1211 c 128,-1,24
 312 1198 312 1198 279 1198 c 256,25,26
 246 1198 246 1198 216.5 1211 c 128,-1,27
 187 1224 187 1224 165.5 1245.5 c 128,-1,28
 144 1267 144 1267 131.5 1295.5 c 128,-1,29
 119 1324 119 1324 119 1357 c 0,30,31
 119 1391 119 1391 131.5 1420.5 c 128,-1,32
 144 1450 144 1450 165.5 1471.5 c 128,-1,33
 187 1493 187 1493 216.5 1506 c 128,-1,34
 246 1519 246 1519 279 1519 c 0,35,36
 313 1519 313 1519 342.5 1506 c 128,-1,37
 372 1493 372 1493 394 1471.5 c 128,-1,38
 416 1450 416 1450 429 1420.5 c 128,-1,39
 442 1391 442 1391 442 1357 c 0,20,21
EndSplineSet
Validated: 1
EndChar

StartChar: k
Encoding: 107 107 78
Width: 1129
GlyphClass: 1
Flags: W
LayerCount: 2
Fore
SplineSet
391 1522 m 1,0,-1
 391 650 l 1,1,-1
 438 650 l 2,2,3
 464 650 464 650 478.5 657.5 c 128,-1,4
 493 665 493 665 509 684 c 2,5,-1
 770 1007 l 2,6,7
 787 1027 787 1027 806.5 1039 c 128,-1,8
 826 1051 826 1051 858 1051 c 2,9,-1
 1090 1051 l 1,10,-1
 763 660 l 2,11,12
 746 638 746 638 727.5 620.5 c 128,-1,13
 709 603 709 603 687 590 c 1,14,15
 709 575 709 575 725 554.5 c 128,-1,16
 741 534 741 534 758 510 c 2,17,-1
 1108 0 l 1,18,-1
 880 0 l 2,19,20
 850 0 850 0 829.5 10 c 128,-1,21
 809 20 809 20 793 45 c 2,22,-1
 525 443 l 2,23,24
 510 467 510 467 494.5 474 c 128,-1,25
 479 481 479 481 449 481 c 2,26,-1
 391 481 l 1,27,-1
 391 0 l 1,28,-1
 138 0 l 1,29,-1
 138 1522 l 1,30,-1
 391 1522 l 1,0,-1
EndSplineSet
Validated: 1
EndChar

StartChar: l
Encoding: 108 108 79
Width: 555
GlyphClass: 1
Flags: W
LayerCount: 2
Fore
SplineSet
404 1522 m 1,0,-1
 404 0 l 1,1,-1
 152 0 l 1,2,-1
 152 1522 l 1,3,-1
 404 1522 l 1,0,-1
EndSplineSet
Validated: 1
EndChar

StartChar: m
Encoding: 109 109 80
Width: 1724
GlyphClass: 1
Flags: W
LayerCount: 2
Fore
SplineSet
135 0 m 1,0,-1
 135 1051 l 1,1,-1
 290 1051 l 2,2,3
 339 1051 339 1051 354 1005 c 1,4,-1
 371 927 l 1,5,6
 399 958 399 958 429 983.5 c 128,-1,7
 459 1009 459 1009 493 1027.5 c 128,-1,8
 527 1046 527 1046 566.5 1056.5 c 128,-1,9
 606 1067 606 1067 653 1067 c 0,10,11
 752 1067 752 1067 816.5 1013 c 128,-1,12
 881 959 881 959 912 870 c 1,13,14
 937 922 937 922 974 959.5 c 128,-1,15
 1011 997 1011 997 1055 1020.5 c 128,-1,16
 1099 1044 1099 1044 1148.5 1055.5 c 128,-1,17
 1198 1067 1198 1067 1248 1067 c 0,18,19
 1335 1067 1335 1067 1402.5 1040.5 c 128,-1,20
 1470 1014 1470 1014 1516.5 962.5 c 128,-1,21
 1563 911 1563 911 1587 837.5 c 128,-1,22
 1611 764 1611 764 1611 669 c 2,23,-1
 1611 0 l 1,24,-1
 1358 0 l 1,25,-1
 1358 669 l 2,26,27
 1358 769 1358 769 1314 819.5 c 128,-1,28
 1270 870 1270 870 1185 870 c 0,29,30
 1146 870 1146 870 1112.5 857 c 128,-1,31
 1079 844 1079 844 1054 819 c 128,-1,32
 1029 794 1029 794 1014.5 756 c 128,-1,33
 1000 718 1000 718 1000 669 c 2,34,-1
 1000 0 l 1,35,-1
 746 0 l 1,36,-1
 746 669 l 2,37,38
 746 774 746 774 704 822 c 128,-1,39
 662 870 662 870 579 870 c 0,40,41
 525 870 525 870 477 843 c 128,-1,42
 429 816 429 816 388 769 c 1,43,-1
 388 0 l 1,44,-1
 135 0 l 1,0,-1
EndSplineSet
Validated: 1
EndChar

StartChar: n
Encoding: 110 110 81
Width: 1164
GlyphClass: 1
Flags: W
LayerCount: 2
Fore
SplineSet
135 0 m 1,0,-1
 135 1051 l 1,1,-1
 290 1051 l 2,2,3
 339 1051 339 1051 354 1005 c 1,4,-1
 372 922 l 1,5,6
 404 955 404 955 439 981.5 c 128,-1,7
 474 1008 474 1008 513.5 1027.5 c 128,-1,8
 553 1047 553 1047 598 1057 c 128,-1,9
 643 1067 643 1067 696 1067 c 0,10,11
 782 1067 782 1067 848.5 1038 c 128,-1,12
 915 1009 915 1009 960 956 c 128,-1,13
 1005 903 1005 903 1028 830 c 128,-1,14
 1051 757 1051 757 1051 669 c 2,15,-1
 1051 0 l 1,16,-1
 798 0 l 1,17,-1
 798 669 l 2,18,19
 798 765 798 765 753.5 817.5 c 128,-1,20
 709 870 709 870 620 870 c 0,21,22
 554 870 554 870 496.5 840.5 c 128,-1,23
 439 811 439 811 388 760 c 1,24,-1
 388 0 l 1,25,-1
 135 0 l 1,0,-1
EndSplineSet
Validated: 1
EndChar

StartChar: o
Encoding: 111 111 82
Width: 1164
GlyphClass: 1
Flags: W
LayerCount: 2
Fore
SplineSet
584 1067 m 256,0,1
 702 1067 702 1067 797.5 1029 c 128,-1,2
 893 991 893 991 960.5 921.5 c 128,-1,3
 1028 852 1028 852 1065 751.5 c 128,-1,4
 1102 651 1102 651 1102 527 c 0,5,6
 1102 402 1102 402 1065 302 c 128,-1,7
 1028 202 1028 202 960.5 131 c 128,-1,8
 893 60 893 60 797 22.5 c 128,-1,9
 701 -15 701 -15 584 -15 c 256,10,11
 466 -15 466 -15 369.5 22.5 c 128,-1,12
 273 60 273 60 205 131 c 128,-1,13
 137 202 137 202 99.5 302 c 128,-1,14
 62 402 62 402 62 527 c 0,15,16
 62 651 62 651 99.5 751.5 c 128,-1,17
 137 852 137 852 205 921.5 c 128,-1,18
 273 991 273 991 369.5 1029 c 128,-1,19
 466 1067 466 1067 584 1067 c 256,0,1
584 179 m 0,20,21
 715 179 715 179 778 267 c 128,-1,22
 841 355 841 355 841 525 c 256,23,24
 841 695 841 695 778 784 c 128,-1,25
 715 873 715 873 584 873 c 0,26,27
 451 873 451 873 387.5 783.5 c 128,-1,28
 324 694 324 694 324 525 c 256,29,30
 324 356 324 356 387.5 267.5 c 128,-1,31
 451 179 451 179 584 179 c 0,20,21
EndSplineSet
Validated: 1
EndChar

StartChar: p
Encoding: 112 112 83
Width: 1158
GlyphClass: 1
Flags: W
LayerCount: 2
Fore
SplineSet
135 -343 m 1,0,-1
 135 1051 l 1,1,-1
 290 1051 l 2,2,3
 315 1051 315 1051 332 1039.5 c 128,-1,4
 349 1028 349 1028 354 1005 c 2,5,-1
 375 907 l 1,6,7
 438 980 438 980 520.5 1025 c 128,-1,8
 603 1070 603 1070 714 1070 c 0,9,10
 800 1070 800 1070 871 1034 c 128,-1,11
 942 998 942 998 994 930 c 128,-1,12
 1046 862 1046 862 1074 762.5 c 128,-1,13
 1102 663 1102 663 1102 534 c 0,14,15
 1102 416 1102 416 1070 315.5 c 128,-1,16
 1038 215 1038 215 979.5 141.5 c 128,-1,17
 921 68 921 68 837.5 26.5 c 128,-1,18
 754 -15 754 -15 650 -15 c 0,19,20
 561 -15 561 -15 499 12 c 128,-1,21
 437 39 437 39 388 87 c 1,22,-1
 388 -343 l 1,23,-1
 135 -343 l 1,0,-1
627 870 m 0,24,25
 548 870 548 870 492 837 c 128,-1,26
 436 804 436 804 388 743 c 1,27,-1
 388 272 l 1,28,29
 431 219 431 219 481.5 198 c 128,-1,30
 532 177 532 177 591 177 c 0,31,32
 648 177 648 177 694.5 198.5 c 128,-1,33
 741 220 741 220 773.5 264 c 128,-1,34
 806 308 806 308 823.5 375 c 128,-1,35
 841 442 841 442 841 534 c 256,36,37
 841 626 841 626 826 690 c 128,-1,38
 811 754 811 754 783.5 794 c 128,-1,39
 756 834 756 834 716.5 852 c 128,-1,40
 677 870 677 870 627 870 c 0,24,25
EndSplineSet
Validated: 1
EndChar

StartChar: q
Encoding: 113 113 84
Width: 1167
GlyphClass: 1
Flags: W
LayerCount: 2
Fore
SplineSet
1029 1051 m 1,0,-1
 1029 -343 l 1,1,-1
 776 -343 l 1,2,-1
 776 132 l 1,3,4
 744 98 744 98 709 71 c 128,-1,5
 674 44 674 44 634 25 c 128,-1,6
 594 6 594 6 549 -4.5 c 128,-1,7
 504 -15 504 -15 452 -15 c 0,8,9
 366 -15 366 -15 294 20.5 c 128,-1,10
 222 56 222 56 170.5 124.5 c 128,-1,11
 119 193 119 193 90.5 293 c 128,-1,12
 62 393 62 393 62 522 c 0,13,14
 62 639 62 639 94 739.5 c 128,-1,15
 126 840 126 840 185.5 913.5 c 128,-1,16
 245 987 245 987 328 1028.5 c 128,-1,17
 411 1070 411 1070 514 1070 c 0,18,19
 563 1070 563 1070 603.5 1061.5 c 128,-1,20
 644 1053 644 1053 678.5 1036.5 c 128,-1,21
 713 1020 713 1020 741.5 997.5 c 128,-1,22
 770 975 770 975 797 946 c 1,23,-1
 810 1005 l 2,24,25
 815 1029 815 1029 832.5 1040 c 128,-1,26
 850 1051 850 1051 874 1051 c 2,27,-1
 1029 1051 l 1,0,-1
538 185 m 0,28,29
 617 185 617 185 672 218 c 128,-1,30
 727 251 727 251 776 311 c 1,31,-1
 776 782 l 1,32,33
 733 834 733 834 682.5 856 c 128,-1,34
 632 878 632 878 573 878 c 0,35,36
 516 878 516 878 469.5 856.5 c 128,-1,37
 423 835 423 835 390.5 791.5 c 128,-1,38
 358 748 358 748 341 680.5 c 128,-1,39
 324 613 324 613 324 522 c 0,40,41
 324 430 324 430 338.5 366 c 128,-1,42
 353 302 353 302 381 261.5 c 128,-1,43
 409 221 409 221 449 203 c 128,-1,44
 489 185 489 185 538 185 c 0,28,29
EndSplineSet
Validated: 1
EndChar

StartChar: r
Encoding: 114 114 85
Width: 836
GlyphClass: 1
Flags: W
LayerCount: 2
Fore
SplineSet
135 0 m 1,0,-1
 135 1051 l 1,1,-1
 284 1051 l 2,2,3
 323 1051 323 1051 338 1036.5 c 128,-1,4
 353 1022 353 1022 358 987 c 2,5,-1
 374 860 l 1,6,7
 430 957 430 957 506 1013.5 c 128,-1,8
 582 1070 582 1070 676 1070 c 0,9,10
 754 1070 754 1070 805 1034 c 1,11,-1
 772 845 l 2,12,13
 769 827 769 827 759 819 c 128,-1,14
 749 811 749 811 731 811 c 0,15,16
 716 811 716 811 689.5 818 c 128,-1,17
 663 825 663 825 618 825 c 0,18,19
 539 825 539 825 483 781.5 c 128,-1,20
 427 738 427 738 388 654 c 1,21,-1
 388 0 l 1,22,-1
 135 0 l 1,0,-1
EndSplineSet
Validated: 1
EndChar

StartChar: s
Encoding: 115 115 86
Width: 894
GlyphClass: 1
Flags: W
LayerCount: 2
Fore
SplineSet
759 846 m 2,0,1
 749 830 749 830 737.5 823 c 128,-1,2
 726 816 726 816 709 816 c 0,3,4
 691 816 691 816 669.5 826.5 c 128,-1,5
 648 837 648 837 620.5 849.5 c 128,-1,6
 593 862 593 862 557.5 872.5 c 128,-1,7
 522 883 522 883 474 883 c 0,8,9
 399 883 399 883 356 851 c 128,-1,10
 313 819 313 819 313 768 c 0,11,12
 313 734 313 734 335 711 c 128,-1,13
 357 688 357 688 393.5 670.5 c 128,-1,14
 430 653 430 653 476 639.5 c 128,-1,15
 522 626 522 626 570 609.5 c 128,-1,16
 618 593 618 593 664.5 572 c 128,-1,17
 711 551 711 551 747 518.5 c 128,-1,18
 783 486 783 486 805 441 c 128,-1,19
 827 396 827 396 827 333 c 0,20,21
 827 257 827 257 799.5 193 c 128,-1,22
 772 129 772 129 719 82.5 c 128,-1,23
 666 36 666 36 587.5 10 c 128,-1,24
 509 -16 509 -16 408 -16 c 0,25,26
 354 -16 354 -16 302 -6.5 c 128,-1,27
 250 3 250 3 202.5 20.5 c 128,-1,28
 155 38 155 38 114.5 61.5 c 128,-1,29
 74 85 74 85 43 113 c 1,30,-1
 101 209 l 2,31,32
 112 226 112 226 127.5 235.5 c 128,-1,33
 143 245 143 245 167 245 c 256,34,35
 191 245 191 245 211.5 231.5 c 128,-1,36
 232 218 232 218 260 202.5 c 128,-1,37
 288 187 288 187 325 174 c 128,-1,38
 362 161 362 161 420 161 c 0,39,40
 465 161 465 161 497 171.5 c 128,-1,41
 529 182 529 182 550 199.5 c 128,-1,42
 571 217 571 217 581 240 c 128,-1,43
 591 263 591 263 591 288 c 0,44,45
 591 325 591 325 569 348.5 c 128,-1,46
 547 372 547 372 510.5 389.5 c 128,-1,47
 474 407 474 407 427.5 420.5 c 128,-1,48
 381 434 381 434 332.5 450.5 c 128,-1,49
 284 467 284 467 237 489 c 128,-1,50
 190 511 190 511 154 545 c 128,-1,51
 118 579 118 579 96 628 c 128,-1,52
 74 677 74 677 74 746 c 0,53,54
 74 811 74 811 99.5 869.5 c 128,-1,55
 125 928 125 928 174.5 971.5 c 128,-1,56
 224 1015 224 1015 298.5 1041 c 128,-1,57
 373 1067 373 1067 470 1067 c 0,58,59
 579 1067 579 1067 668 1031 c 128,-1,60
 757 995 757 995 816 937 c 1,61,-1
 759 846 l 2,0,1
EndSplineSet
Validated: 1
EndChar

StartChar: t
Encoding: 116 116 87
Width: 792
GlyphClass: 1
Flags: W
LayerCount: 2
Fore
SplineSet
480 -16 m 0,0,1
 344 -16 344 -16 270.5 61 c 128,-1,2
 197 138 197 138 197 274 c 2,3,-1
 197 861 l 1,4,-1
 90 861 l 2,5,6
 70 861 70 861 55 874.5 c 128,-1,7
 40 888 40 888 40 914 c 2,8,-1
 40 1015 l 1,9,-1
 209 1042 l 1,10,-1
 262 1329 l 2,11,12
 266 1349 266 1349 281 1360.5 c 128,-1,13
 296 1372 296 1372 318 1372 c 2,14,-1
 450 1372 l 1,15,-1
 450 1041 l 1,16,-1
 726 1041 l 1,17,-1
 726 861 l 1,18,-1
 450 861 l 1,19,-1
 450 292 l 2,20,21
 450 243 450 243 474.5 215 c 128,-1,22
 499 187 499 187 540 187 c 0,23,24
 564 187 564 187 579.5 193 c 128,-1,25
 595 199 595 199 606.5 205 c 128,-1,26
 618 211 618 211 627.5 216.5 c 128,-1,27
 637 222 637 222 646 222 c 0,28,29
 657 222 657 222 664.5 216.5 c 128,-1,30
 672 211 672 211 680 200 c 2,31,-1
 756 77 l 1,32,33
 701 31 701 31 629 7.5 c 128,-1,34
 557 -16 557 -16 480 -16 c 0,0,1
EndSplineSet
Validated: 1
EndChar

StartChar: u
Encoding: 117 117 88
Width: 1164
GlyphClass: 1
Flags: W
LayerCount: 2
Fore
SplineSet
367 1051 m 1,0,-1
 367 383 l 2,1,2
 367 287 367 287 411.5 234 c 128,-1,3
 456 181 456 181 545 181 c 0,4,5
 611 181 611 181 668 210.5 c 128,-1,6
 725 240 725 240 776 291 c 1,7,-1
 776 1051 l 1,8,-1
 1029 1051 l 1,9,-1
 1029 0 l 1,10,-1
 874 0 l 2,11,12
 825 0 825 0 810 46 c 1,13,-1
 793 130 l 1,14,15
 760 97 760 97 725 70 c 128,-1,16
 690 43 690 43 650.5 24 c 128,-1,17
 611 5 611 5 565.5 -5.5 c 128,-1,18
 520 -16 520 -16 468 -16 c 0,19,20
 382 -16 382 -16 316 13 c 128,-1,21
 250 42 250 42 205 95 c 128,-1,22
 160 148 160 148 137 221.5 c 128,-1,23
 114 295 114 295 114 383 c 2,24,-1
 114 1051 l 1,25,-1
 367 1051 l 1,0,-1
EndSplineSet
Validated: 1
EndChar

StartChar: v
Encoding: 118 118 89
Width: 1092
GlyphClass: 1
Flags: W
LayerCount: 2
Fore
SplineSet
662 0 m 1,0,-1
 432 0 l 1,1,-1
 14 1051 l 1,2,-1
 224 1051 l 2,3,4
 252 1051 252 1051 271 1037.5 c 128,-1,5
 290 1024 290 1024 297 1004 c 2,6,-1
 500 442 l 2,7,8
 517 393 517 393 529 346 c 128,-1,9
 541 299 541 299 550 252 c 1,10,11
 559 299 559 299 571 346 c 128,-1,12
 583 393 583 393 601 442 c 2,13,-1
 809 1004 l 2,14,15
 816 1024 816 1024 834.5 1037.5 c 128,-1,16
 853 1051 853 1051 879 1051 c 2,17,-1
 1078 1051 l 1,18,-1
 662 0 l 1,0,-1
EndSplineSet
Validated: 1
EndChar

StartChar: w
Encoding: 119 119 90
Width: 1619
GlyphClass: 1
Flags: W
LayerCount: 2
Fore
SplineSet
7 1051 m 1,0,-1
 208 1051 l 2,1,2
 237 1051 237 1051 256 1037.5 c 128,-1,3
 275 1024 275 1024 281 1004 c 2,4,-1
 431 442 l 2,5,6
 443 396 443 396 451 352 c 128,-1,7
 459 308 459 308 466 264 c 1,8,9
 477 308 477 308 490 352 c 128,-1,10
 503 396 503 396 517 442 c 2,11,-1
 691 1006 l 2,12,13
 697 1026 697 1026 715.5 1039.5 c 128,-1,14
 734 1053 734 1053 759 1053 c 2,15,-1
 870 1053 l 2,16,17
 898 1053 898 1053 916.5 1039.5 c 128,-1,18
 935 1026 935 1026 941 1006 c 2,19,-1
 1113 432 l 2,20,21
 1126 388 1126 388 1137 346.5 c 128,-1,22
 1148 305 1148 305 1158 263 c 1,23,24
 1165 307 1165 307 1174 351 c 128,-1,25
 1183 395 1183 395 1196 442 c 2,26,-1
 1352 1004 l 2,27,28
 1357 1024 1357 1024 1376.5 1037.5 c 128,-1,29
 1396 1051 1396 1051 1421 1051 c 2,30,-1
 1613 1051 l 1,31,-1
 1280 0 l 1,32,-1
 1076 0 l 2,33,34
 1043 0 1043 0 1029 45 c 2,35,-1
 840 652 l 2,36,37
 831 682 831 682 823 712 c 128,-1,38
 815 742 815 742 810 772 c 1,39,40
 804 741 804 741 797 711 c 128,-1,41
 790 681 790 681 780 650 c 2,42,-1
 589 45 l 2,43,44
 575 0 575 0 534 0 c 2,45,-1
 340 0 l 1,46,-1
 7 1051 l 1,0,-1
EndSplineSet
Validated: 1
EndChar

StartChar: x
Encoding: 120 120 91
Width: 1105
GlyphClass: 1
Flags: W
LayerCount: 2
Fore
SplineSet
384 542 m 1,0,-1
 39 1051 l 1,1,-1
 283 1051 l 2,2,3
 311 1051 311 1051 324 1043 c 128,-1,4
 337 1035 337 1035 347 1018 c 2,5,-1
 567 667 l 1,6,7
 572 684 572 684 580 701.5 c 128,-1,8
 588 719 588 719 599 736 c 2,9,-1
 776 1013 l 2,10,11
 788 1032 788 1032 801.5 1041.5 c 128,-1,12
 815 1051 815 1051 835 1051 c 2,13,-1
 1067 1051 l 1,14,-1
 721 553 l 1,15,-1
 1081 0 l 1,16,-1
 838 0 l 2,17,18
 810 0 810 0 793 14.5 c 128,-1,19
 776 29 776 29 765 47 c 2,20,-1
 542 413 l 1,21,22
 533 376 533 376 516 351 c 2,23,-1
 319 47 l 2,24,25
 308 30 308 30 291.5 15 c 128,-1,26
 275 0 275 0 251 0 c 2,27,-1
 25 0 l 1,28,-1
 384 542 l 1,0,-1
EndSplineSet
Validated: 1
EndChar

StartChar: y
Encoding: 121 121 92
Width: 1092
GlyphClass: 1
Flags: W
LayerCount: 2
Fore
SplineSet
508 -289 m 2,0,1
 497 -316 497 -316 479 -329.5 c 128,-1,2
 461 -343 461 -343 424 -343 c 2,3,-1
 236 -343 l 1,4,-1
 432 78 l 1,5,-1
 7 1051 l 1,6,-1
 228 1051 l 2,7,8
 259 1051 259 1051 275.5 1036.5 c 128,-1,9
 292 1022 292 1022 300 1004 c 2,10,-1
 524 459 l 2,11,12
 535 432 535 432 543.5 403.5 c 128,-1,13
 552 375 552 375 558 346 c 1,14,15
 566 376 566 376 576 403.5 c 128,-1,16
 586 431 586 431 597 460 c 2,17,-1
 808 1004 l 2,18,19
 816 1024 816 1024 835 1037.5 c 128,-1,20
 854 1051 854 1051 878 1051 c 2,21,-1
 1080 1051 l 1,22,-1
 508 -289 l 2,0,1
EndSplineSet
Validated: 1
EndChar

StartChar: z
Encoding: 122 122 93
Width: 961
GlyphClass: 1
Flags: W
LayerCount: 2
Fore
SplineSet
895 946 m 2,0,1
 895 919 895 919 885.5 894 c 128,-1,2
 876 869 876 869 862 852 c 2,3,-1
 362 195 l 1,4,-1
 881 195 l 1,5,-1
 881 0 l 1,6,-1
 69 0 l 1,7,-1
 69 105 l 2,8,9
 69 122 69 122 77 146.5 c 128,-1,10
 85 171 85 171 102 193 c 2,11,-1
 606 857 l 1,12,-1
 98 857 l 1,13,-1
 98 1051 l 1,14,-1
 895 1051 l 1,15,-1
 895 946 l 2,0,1
EndSplineSet
Validated: 1
EndChar

StartChar: braceleft
Encoding: 123 123 94
Width: 614
GlyphClass: 1
Flags: W
LayerCount: 2
Fore
SplineSet
153 420 m 0,0,1
 153 482 153 482 123.5 521.5 c 128,-1,2
 94 561 94 561 30 561 c 1,3,-1
 30 708 l 1,4,5
 95 708 95 708 124 747 c 128,-1,6
 153 786 153 786 153 849 c 0,7,8
 153 897 153 897 146 944.5 c 128,-1,9
 139 992 139 992 130.5 1040.5 c 128,-1,10
 122 1089 122 1089 115.5 1137.5 c 128,-1,11
 109 1186 109 1186 109 1236 c 0,12,13
 109 1314 109 1314 131.5 1378 c 128,-1,14
 154 1442 154 1442 200.5 1488 c 128,-1,15
 247 1534 247 1534 318 1559 c 128,-1,16
 389 1584 389 1584 485 1584 c 2,17,-1
 540 1584 l 1,18,-1
 540 1471 l 2,19,20
 540 1458 540 1458 534 1448.5 c 128,-1,21
 528 1439 528 1439 519.5 1432.5 c 128,-1,22
 511 1426 511 1426 502 1423 c 128,-1,23
 493 1420 493 1420 485 1420 c 2,24,-1
 476 1420 l 2,25,26
 404 1420 404 1420 366.5 1375 c 128,-1,27
 329 1330 329 1330 329 1251 c 0,28,29
 329 1195 329 1195 335 1143.5 c 128,-1,30
 341 1092 341 1092 347.5 1043 c 128,-1,31
 354 994 354 994 360.5 947 c 128,-1,32
 367 900 367 900 367 852 c 0,33,34
 367 813 367 813 356 778 c 128,-1,35
 345 743 345 743 324 715 c 128,-1,36
 303 687 303 687 274 665.5 c 128,-1,37
 245 644 245 644 208 634 c 1,38,39
 245 623 245 623 274 602 c 128,-1,40
 303 581 303 581 324 552 c 128,-1,41
 345 523 345 523 356 488.5 c 128,-1,42
 367 454 367 454 367 416 c 0,43,44
 367 368 367 368 360.5 320.5 c 128,-1,45
 354 273 354 273 347.5 224.5 c 128,-1,46
 341 176 341 176 335 124.5 c 128,-1,47
 329 73 329 73 329 16 c 0,48,49
 329 -62 329 -62 366.5 -107 c 128,-1,50
 404 -152 404 -152 476 -152 c 2,51,-1
 485 -152 l 2,52,53
 492 -152 492 -152 501.5 -155 c 128,-1,54
 511 -158 511 -158 519.5 -164 c 128,-1,55
 528 -170 528 -170 534 -180 c 128,-1,56
 540 -190 540 -190 540 -204 c 2,57,-1
 540 -315 l 1,58,-1
 485 -315 l 2,59,60
 389 -315 389 -315 318 -290 c 128,-1,61
 247 -265 247 -265 200.5 -219.5 c 128,-1,62
 154 -174 154 -174 131.5 -110 c 128,-1,63
 109 -46 109 -46 109 32 c 0,64,65
 109 82 109 82 115.5 130.5 c 128,-1,66
 122 179 122 179 130.5 227 c 128,-1,67
 139 275 139 275 146 323.5 c 128,-1,68
 153 372 153 372 153 420 c 0,0,1
EndSplineSet
Validated: 1
EndChar

StartChar: bar
Encoding: 124 124 95
Width: 614
GlyphClass: 1
Flags: W
LayerCount: 2
Fore
SplineSet
209 1584 m 1,0,-1
 406 1584 l 1,1,-1
 406 -343 l 1,2,-1
 209 -343 l 1,3,-1
 209 1584 l 1,0,-1
EndSplineSet
Validated: 1
EndChar

StartChar: braceright
Encoding: 125 125 96
Width: 614
GlyphClass: 1
Flags: W
LayerCount: 2
Fore
SplineSet
462 420 m 0,0,1
 462 372 462 372 468.5 323.5 c 128,-1,2
 475 275 475 275 484 227 c 128,-1,3
 493 179 493 179 499.5 130.5 c 128,-1,4
 506 82 506 82 506 32 c 0,5,6
 506 -46 506 -46 483.5 -110 c 128,-1,7
 461 -174 461 -174 414.5 -219.5 c 128,-1,8
 368 -265 368 -265 296.5 -290 c 128,-1,9
 225 -315 225 -315 129 -315 c 2,10,-1
 75 -315 l 1,11,-1
 75 -204 l 2,12,13
 75 -191 75 -191 80.5 -180.5 c 128,-1,14
 86 -170 86 -170 94.5 -164 c 128,-1,15
 103 -158 103 -158 112.5 -155 c 128,-1,16
 122 -152 122 -152 129 -152 c 2,17,-1
 138 -152 l 2,18,19
 210 -152 210 -152 248 -106.5 c 128,-1,20
 286 -61 286 -61 286 16 c 0,21,22
 286 72 286 72 279.5 124 c 128,-1,23
 273 176 273 176 266.5 224.5 c 128,-1,24
 260 273 260 273 254 320.5 c 128,-1,25
 248 368 248 368 248 416 c 0,26,27
 248 454 248 454 258.5 488.5 c 128,-1,28
 269 523 269 523 289.5 552 c 128,-1,29
 310 581 310 581 340 602 c 128,-1,30
 370 623 370 623 407 634 c 1,31,32
 370 644 370 644 340 665.5 c 128,-1,33
 310 687 310 687 289.5 715 c 128,-1,34
 269 743 269 743 258.5 778 c 128,-1,35
 248 813 248 813 248 852 c 0,36,37
 248 900 248 900 254 947 c 128,-1,38
 260 994 260 994 266.5 1043 c 128,-1,39
 273 1092 273 1092 279.5 1143.5 c 128,-1,40
 286 1195 286 1195 286 1251 c 0,41,42
 286 1330 286 1330 248 1375 c 128,-1,43
 210 1420 210 1420 138 1420 c 2,44,-1
 129 1420 l 2,45,46
 122 1420 122 1420 112.5 1423 c 128,-1,47
 103 1426 103 1426 94.5 1432.5 c 128,-1,48
 86 1439 86 1439 80.5 1448.5 c 128,-1,49
 75 1458 75 1458 75 1471 c 2,50,-1
 75 1584 l 1,51,-1
 129 1584 l 2,52,53
 225 1584 225 1584 296.5 1559 c 128,-1,54
 368 1534 368 1534 414.5 1488 c 128,-1,55
 461 1442 461 1442 483.5 1378 c 128,-1,56
 506 1314 506 1314 506 1236 c 0,57,58
 506 1186 506 1186 499.5 1137.5 c 128,-1,59
 493 1089 493 1089 484 1040.5 c 128,-1,60
 475 992 475 992 468.5 944.5 c 128,-1,61
 462 897 462 897 462 849 c 0,62,63
 462 787 462 787 491 747.5 c 128,-1,64
 520 708 520 708 585 708 c 1,65,-1
 585 561 l 1,66,67
 520 561 520 561 491 521.5 c 128,-1,68
 462 482 462 482 462 420 c 0,0,1
EndSplineSet
Validated: 1
EndChar

StartChar: asciitilde
Encoding: 126 126 97
Width: 1187
GlyphClass: 1
Flags: W
LayerCount: 2
Fore
SplineSet
763 664 m 0,0,1
 820 664 820 664 852 700.5 c 128,-1,2
 884 737 884 737 884 804 c 1,3,-1
 1087 804 l 1,4,5
 1087 725 1087 725 1066.5 661 c 128,-1,6
 1046 597 1046 597 1006.5 551.5 c 128,-1,7
 967 506 967 506 909.5 481.5 c 128,-1,8
 852 457 852 457 778 457 c 0,9,10
 724 457 724 457 674.5 471 c 128,-1,11
 625 485 625 485 580.5 502 c 128,-1,12
 536 519 536 519 497 533.5 c 128,-1,13
 458 548 458 548 425 548 c 0,14,15
 368 548 368 548 336 511 c 128,-1,16
 304 474 304 474 304 408 c 1,17,-1
 100 408 l 1,18,19
 100 487 100 487 121 550.5 c 128,-1,20
 142 614 142 614 181.5 660 c 128,-1,21
 221 706 221 706 278.5 730.5 c 128,-1,22
 336 755 336 755 410 755 c 0,23,24
 464 755 464 755 513.5 740.5 c 128,-1,25
 563 726 563 726 607.5 709 c 128,-1,26
 652 692 652 692 691 678 c 128,-1,27
 730 664 730 664 763 664 c 0,0,1
EndSplineSet
Validated: 1
EndChar

StartChar: exclamdown
Encoding: 161 161 99
Width: 738
GlyphClass: 1
Flags: W
LayerCount: 2
Fore
SplineSet
253 -343 m 1,0,-1
 253 203 l 2,1,2
 253 296 253 296 262 385.5 c 128,-1,3
 271 475 271 475 287 575 c 1,4,-1
 458 575 l 1,5,6
 473 475 473 475 482.5 385.5 c 128,-1,7
 492 296 492 296 492 203 c 2,8,-1
 492 -343 l 1,9,-1
 253 -343 l 1,0,-1
214 913 m 256,10,11
 214 946 214 946 226 974 c 128,-1,12
 238 1002 238 1002 258.5 1022.5 c 128,-1,13
 279 1043 279 1043 307.5 1055 c 128,-1,14
 336 1067 336 1067 369 1067 c 256,15,16
 402 1067 402 1067 430 1055 c 128,-1,17
 458 1043 458 1043 479 1022.5 c 128,-1,18
 500 1002 500 1002 512 974 c 128,-1,19
 524 946 524 946 524 913 c 256,20,21
 524 880 524 880 512 852 c 128,-1,22
 500 824 500 824 479 803.5 c 128,-1,23
 458 783 458 783 429.5 771 c 128,-1,24
 401 759 401 759 369 759 c 256,25,26
 336 759 336 759 307.5 771 c 128,-1,27
 279 783 279 783 258.5 803.5 c 128,-1,28
 238 824 238 824 226 852 c 128,-1,29
 214 880 214 880 214 913 c 256,10,11
EndSplineSet
Validated: 1
EndChar

StartChar: cent
Encoding: 162 162 100
Width: 1187
GlyphClass: 1
Flags: W
LayerCount: 2
Fore
SplineSet
552 -8 m 1,0,1
 461 5 461 5 383 46.5 c 128,-1,2
 305 88 305 88 247.5 156 c 128,-1,3
 190 224 190 224 158 317 c 128,-1,4
 126 410 126 410 126 525 c 0,5,6
 126 637 126 637 160 733.5 c 128,-1,7
 194 830 194 830 260 902 c 128,-1,8
 326 974 326 974 422.5 1017 c 128,-1,9
 519 1060 519 1060 644 1065 c 1,10,-1
 658 1226 l 2,11,12
 660 1250 660 1250 678.5 1269.5 c 128,-1,13
 697 1289 697 1289 727 1289 c 2,14,-1
 820 1289 l 1,15,-1
 800 1055 l 1,16,17
 881 1041 881 1041 946.5 1006.5 c 128,-1,18
 1012 972 1012 972 1067 921 c 1,19,-1
 1001 831 l 2,20,21
 991 817 991 817 981 810 c 128,-1,22
 971 803 971 803 950 803 c 0,23,24
 936 803 936 803 920.5 809.5 c 128,-1,25
 905 816 905 816 885 826.5 c 128,-1,26
 865 837 865 837 840.5 847 c 128,-1,27
 816 857 816 857 783 865 c 1,28,-1
 724 176 l 1,29,30
 778 181 778 181 814.5 196 c 128,-1,31
 851 211 851 211 877 226.5 c 128,-1,32
 903 242 903 242 922.5 254 c 128,-1,33
 942 266 942 266 963 266 c 0,34,35
 994 266 994 266 1010 245 c 2,36,-1
 1079 155 l 1,37,38
 1043 113 1043 113 1000 83 c 128,-1,39
 957 53 957 53 910 33 c 128,-1,40
 863 13 863 13 812 2.5 c 128,-1,41
 761 -8 761 -8 708 -12 c 1,42,-1
 695 -163 l 2,43,44
 693 -188 693 -188 674.5 -207.5 c 128,-1,45
 656 -227 656 -227 627 -227 c 2,46,-1
 534 -227 l 1,47,-1
 552 -8 l 1,0,1
376 525 m 0,48,49
 376 388 376 388 426 303.5 c 128,-1,50
 476 219 476 219 569 189 c 1,51,-1
 628 872 l 1,52,53
 499 856 499 856 437.5 766 c 128,-1,54
 376 676 376 676 376 525 c 0,48,49
EndSplineSet
Validated: 1
EndChar

StartChar: sterling
Encoding: 163 163 101
Width: 1187
GlyphClass: 1
Flags: W
LayerCount: 2
Fore
SplineSet
40 695 m 2,0,1
 40 730 40 730 61.5 755 c 128,-1,2
 83 780 83 780 125 780 c 2,3,-1
 236 780 l 1,4,-1
 236 1022 l 2,5,6
 236 1118 236 1118 264.5 1204.5 c 128,-1,7
 293 1291 293 1291 351.5 1356 c 128,-1,8
 410 1421 410 1421 498 1459 c 128,-1,9
 586 1497 586 1497 705 1497 c 0,10,11
 787 1497 787 1497 851.5 1476 c 128,-1,12
 916 1455 916 1455 967 1419 c 128,-1,13
 1018 1383 1018 1383 1055.5 1334.5 c 128,-1,14
 1093 1286 1093 1286 1119 1230 c 1,15,-1
 1018 1165 l 2,16,17
 985 1149 985 1149 959 1149 c 0,18,19
 921 1149 921 1149 892 1183 c 0,20,21
 873 1206 873 1206 854 1224.5 c 128,-1,22
 835 1243 835 1243 813 1256.5 c 128,-1,23
 791 1270 791 1270 764.5 1277 c 128,-1,24
 738 1284 738 1284 705 1284 c 0,25,26
 600 1284 600 1284 547.5 1215 c 128,-1,27
 495 1146 495 1146 495 1023 c 2,28,-1
 495 780 l 1,29,-1
 913 780 l 1,30,-1
 913 680 l 2,31,32
 913 655 913 655 893 634.5 c 128,-1,33
 873 614 873 614 842 614 c 2,34,-1
 495 614 l 1,35,-1
 495 416 l 2,36,37
 495 348 495 348 469.5 295.5 c 128,-1,38
 444 243 444 243 400 198 c 1,39,40
 476 215 476 215 551 215 c 2,41,-1
 1151 215 l 1,42,-1
 1151 109 l 2,43,44
 1151 91 1151 91 1143.5 71 c 128,-1,45
 1136 51 1136 51 1121.5 35 c 128,-1,46
 1107 19 1107 19 1087 9.5 c 128,-1,47
 1067 0 1067 0 1042 0 c 2,48,-1
 60 0 l 1,49,-1
 60 159 l 1,50,51
 95 167 95 167 127 182 c 128,-1,52
 159 197 159 197 183 220 c 128,-1,53
 207 243 207 243 221.5 274 c 128,-1,54
 236 305 236 305 236 347 c 2,55,-1
 236 614 l 1,56,-1
 40 614 l 1,57,-1
 40 695 l 2,0,1
EndSplineSet
Validated: 1
EndChar

StartChar: currency
Encoding: 164 164 102
Width: 1187
GlyphClass: 1
Flags: W
LayerCount: 2
Fore
SplineSet
216 689 m 0,0,1
 216 743 216 743 230 792 c 128,-1,2
 244 841 244 841 269 884 c 1,3,-1
 113 1039 l 1,4,-1
 241 1164 l 1,5,-1
 394 1011 l 1,6,7
 438 1038 438 1038 488.5 1052.5 c 128,-1,8
 539 1067 539 1067 594 1067 c 0,9,10
 647 1067 647 1067 696 1053 c 128,-1,11
 745 1039 745 1039 788 1014 c 1,12,-1
 944 1169 l 1,13,-1
 1070 1043 l 1,14,-1
 915 889 l 1,15,16
 942 845 942 845 957 794.5 c 128,-1,17
 972 744 972 744 972 689 c 0,18,19
 972 635 972 635 958 587 c 128,-1,20
 944 539 944 539 919 496 c 1,21,-1
 1075 340 l 1,22,-1
 947 214 l 1,23,-1
 793 368 l 1,24,25
 750 341 750 341 699.5 326.5 c 128,-1,26
 649 312 649 312 594 312 c 0,27,28
 541 312 541 312 492 325.5 c 128,-1,29
 443 339 443 339 400 365 c 1,30,-1
 244 209 l 1,31,-1
 118 336 l 1,32,-1
 272 489 l 1,33,34
 245 533 245 533 230.5 583.5 c 128,-1,35
 216 634 216 634 216 689 c 0,0,1
402 689 m 0,36,37
 402 650 402 650 417 615 c 128,-1,38
 432 580 432 580 458 553.5 c 128,-1,39
 484 527 484 527 519 512 c 128,-1,40
 554 497 554 497 594 497 c 256,41,42
 634 497 634 497 669.5 512 c 128,-1,43
 705 527 705 527 731 553.5 c 128,-1,44
 757 580 757 580 772 615 c 128,-1,45
 787 650 787 650 787 689 c 0,46,47
 787 730 787 730 772 765.5 c 128,-1,48
 757 801 757 801 731 827 c 128,-1,49
 705 853 705 853 669.5 868.5 c 128,-1,50
 634 884 634 884 594 884 c 256,51,52
 554 884 554 884 519 868.5 c 128,-1,53
 484 853 484 853 458 827 c 128,-1,54
 432 801 432 801 417 765.5 c 128,-1,55
 402 730 402 730 402 689 c 0,36,37
EndSplineSet
Validated: 1
EndChar

StartChar: yen
Encoding: 165 165 103
Width: 1187
GlyphClass: 1
Flags: W
LayerCount: 2
Fore
SplineSet
136 648 m 1,0,-1
 419 648 l 1,1,-1
 11 1481 l 1,2,-1
 221 1481 l 2,3,4
 257 1481 257 1481 279.5 1464 c 128,-1,5
 302 1447 302 1447 314 1419 c 2,6,-1
 539 920 l 2,7,8
 559 874 559 874 571.5 835 c 128,-1,9
 584 796 584 796 592 758 c 1,10,11
 600 796 600 796 612 835 c 128,-1,12
 624 874 624 874 644 920 c 2,13,-1
 866 1419 l 2,14,15
 877 1443 877 1443 900 1462 c 128,-1,16
 923 1481 923 1481 957 1481 c 2,17,-1
 1169 1481 l 1,18,-1
 761 648 l 1,19,-1
 1043 648 l 1,20,-1
 1043 507 l 1,21,-1
 717 507 l 1,22,-1
 717 410 l 1,23,-1
 1043 410 l 1,24,-1
 1043 269 l 1,25,-1
 717 269 l 1,26,-1
 717 0 l 1,27,-1
 464 0 l 1,28,-1
 464 269 l 1,29,-1
 136 269 l 1,30,-1
 136 410 l 1,31,-1
 464 410 l 1,32,-1
 464 507 l 1,33,-1
 136 507 l 1,34,-1
 136 648 l 1,0,-1
EndSplineSet
Validated: 1
EndChar

StartChar: brokenbar
Encoding: 166 166 104
Width: 614
GlyphClass: 1
Flags: W
LayerCount: 2
Fore
SplineSet
209 1584 m 1,0,-1
 406 1584 l 1,1,-1
 406 756 l 1,2,-1
 209 756 l 1,3,-1
 209 1584 l 1,0,-1
209 484 m 1,4,-1
 406 484 l 1,5,-1
 406 -343 l 1,6,-1
 209 -343 l 1,7,-1
 209 484 l 1,4,-1
EndSplineSet
Validated: 1
EndChar

StartChar: section
Encoding: 167 167 105
Width: 1034
GlyphClass: 1
Flags: W
LayerCount: 2
Fore
SplineSet
847 1275 m 2,0,1
 837 1259 837 1259 825.5 1251.5 c 128,-1,2
 814 1244 814 1244 797 1244 c 0,3,4
 778 1244 778 1244 756.5 1254.5 c 128,-1,5
 735 1265 735 1265 707.5 1277.5 c 128,-1,6
 680 1290 680 1290 644.5 1300.5 c 128,-1,7
 609 1311 609 1311 561 1311 c 0,8,9
 518 1311 518 1311 485.5 1301 c 128,-1,10
 453 1291 453 1291 431 1274 c 128,-1,11
 409 1257 409 1257 397 1234.5 c 128,-1,12
 385 1212 385 1212 385 1187 c 0,13,14
 385 1154 385 1154 409 1129.5 c 128,-1,15
 433 1105 433 1105 473 1083 c 128,-1,16
 513 1061 513 1061 563.5 1040.5 c 128,-1,17
 614 1020 614 1020 667.5 997 c 128,-1,18
 721 974 721 974 771.5 946.5 c 128,-1,19
 822 919 822 919 862 883 c 128,-1,20
 902 847 902 847 926 800 c 128,-1,21
 950 753 950 753 950 691 c 0,22,23
 950 608 950 608 911.5 541 c 128,-1,24
 873 474 873 474 788 433 c 1,25,26
 834 395 834 395 863.5 345 c 128,-1,27
 893 295 893 295 893 225 c 0,28,29
 893 149 893 149 866 85.5 c 128,-1,30
 839 22 839 22 785.5 -25 c 128,-1,31
 732 -72 732 -72 653.5 -98 c 128,-1,32
 575 -124 575 -124 473 -124 c 0,33,34
 419 -124 419 -124 367 -114 c 128,-1,35
 315 -104 315 -104 267.5 -87 c 128,-1,36
 220 -70 220 -70 179.5 -46.5 c 128,-1,37
 139 -23 139 -23 109 5 c 1,38,-1
 168 101 l 2,39,40
 179 118 179 118 194 127.5 c 128,-1,41
 209 137 209 137 232 137 c 256,42,43
 256 137 256 137 277 124 c 128,-1,44
 298 111 298 111 326.5 95.5 c 128,-1,45
 355 80 355 80 395 66.5 c 128,-1,46
 435 53 435 53 496 53 c 0,47,48
 580 53 580 53 626.5 88 c 128,-1,49
 673 123 673 123 673 184 c 0,50,51
 673 225 673 225 648.5 255 c 128,-1,52
 624 285 624 285 583 308 c 128,-1,53
 542 331 542 331 490 350 c 128,-1,54
 438 369 438 369 384.5 390.5 c 128,-1,55
 331 412 331 412 279 438 c 128,-1,56
 227 464 227 464 186 500 c 128,-1,57
 145 536 145 536 120.5 585 c 128,-1,58
 96 634 96 634 96 701 c 0,59,60
 96 782 96 782 138.5 846 c 128,-1,61
 181 910 181 910 268 948 c 1,62,63
 221 988 221 988 191.5 1043 c 128,-1,64
 162 1098 162 1098 162 1176 c 0,65,66
 162 1241 162 1241 187 1298.5 c 128,-1,67
 212 1356 212 1356 262 1400 c 128,-1,68
 312 1444 312 1444 386 1470 c 128,-1,69
 460 1496 460 1496 557 1496 c 0,70,71
 666 1496 666 1496 755.5 1460 c 128,-1,72
 845 1424 845 1424 903 1366 c 1,73,-1
 847 1275 l 2,0,1
321 742 m 0,74,75
 321 699 321 699 350.5 668 c 128,-1,76
 380 637 380 637 427.5 612 c 128,-1,77
 475 587 475 587 534.5 564 c 128,-1,78
 594 541 594 541 652 514 c 1,79,80
 693 534 693 534 711.5 565.5 c 128,-1,81
 730 597 730 597 730 634 c 0,82,83
 730 679 730 679 701.5 710 c 128,-1,84
 673 741 673 741 627 767 c 128,-1,85
 581 793 581 793 523 815.5 c 128,-1,86
 465 838 465 838 408 864 c 1,87,88
 362 839 362 839 341.5 810 c 128,-1,89
 321 781 321 781 321 742 c 0,74,75
EndSplineSet
Validated: 1
EndChar

StartChar: dieresis
Encoding: 168 168 106
Width: 653
GlyphClass: 1
Flags: W
LayerCount: 2
Fore
SplineSet
276 1323 m 0,0,1
 276 1294 276 1294 265 1269 c 128,-1,2
 254 1244 254 1244 234 1225.5 c 128,-1,3
 214 1207 214 1207 188 1196.5 c 128,-1,4
 162 1186 162 1186 133 1186 c 0,5,6
 105 1186 105 1186 80 1196.5 c 128,-1,7
 55 1207 55 1207 35.5 1225.5 c 128,-1,8
 16 1244 16 1244 5 1269 c 128,-1,9
 -6 1294 -6 1294 -6 1323 c 0,10,11
 -6 1353 -6 1353 5 1379 c 128,-1,12
 16 1405 16 1405 35.5 1424.5 c 128,-1,13
 55 1444 55 1444 80 1455 c 128,-1,14
 105 1466 105 1466 133 1466 c 0,15,16
 162 1466 162 1466 188 1455 c 128,-1,17
 214 1444 214 1444 234 1424.5 c 128,-1,18
 254 1405 254 1405 265 1379 c 128,-1,19
 276 1353 276 1353 276 1323 c 0,0,1
659 1323 m 0,20,21
 659 1294 659 1294 648 1269 c 128,-1,22
 637 1244 637 1244 617.5 1225.5 c 128,-1,23
 598 1207 598 1207 572 1196.5 c 128,-1,24
 546 1186 546 1186 517 1186 c 256,25,26
 488 1186 488 1186 462.5 1196.5 c 128,-1,27
 437 1207 437 1207 418 1225.5 c 128,-1,28
 399 1244 399 1244 388 1269 c 128,-1,29
 377 1294 377 1294 377 1323 c 0,30,31
 377 1353 377 1353 388 1379 c 128,-1,32
 399 1405 399 1405 418 1424.5 c 128,-1,33
 437 1444 437 1444 462.5 1455 c 128,-1,34
 488 1466 488 1466 517 1466 c 256,35,36
 546 1466 546 1466 572 1455 c 128,-1,37
 598 1444 598 1444 617.5 1424.5 c 128,-1,38
 637 1405 637 1405 648 1379 c 128,-1,39
 659 1353 659 1353 659 1323 c 0,20,21
EndSplineSet
Validated: 1
Substitution2: "'case' Case-Sensitive Forms in Latin lookup 0 subtable" dieresis.case
EndChar

StartChar: copyright
Encoding: 169 169 107
Width: 1620
GlyphClass: 1
Flags: W
LayerCount: 2
Fore
SplineSet
1041 524 m 0,0,1
 1052 524 1052 524 1061.5 519.5 c 128,-1,2
 1071 515 1071 515 1077 507 c 2,3,-1
 1161 418 l 1,4,5
 1104 345 1104 345 1017 306.5 c 128,-1,6
 930 268 930 268 812 268 c 0,7,8
 710 268 710 268 627 304.5 c 128,-1,9
 544 341 544 341 485 405 c 128,-1,10
 426 469 426 469 394 555.5 c 128,-1,11
 362 642 362 642 362 743 c 0,12,13
 362 847 362 847 398 934.5 c 128,-1,14
 434 1022 434 1022 497.5 1085 c 128,-1,15
 561 1148 561 1148 646.5 1183 c 128,-1,16
 732 1218 732 1218 833 1218 c 0,17,18
 948 1218 948 1218 1029 1180 c 128,-1,19
 1110 1142 1110 1142 1165 1081 c 1,20,-1
 1099 990 l 2,21,22
 1093 982 1093 982 1082.5 974 c 128,-1,23
 1072 966 1072 966 1055 966 c 256,24,25
 1038 966 1038 966 1022.5 976 c 128,-1,26
 1007 986 1007 986 985.5 998.5 c 128,-1,27
 964 1011 964 1011 931 1021 c 128,-1,28
 898 1031 898 1031 846 1031 c 0,29,30
 785 1031 785 1031 736.5 1011 c 128,-1,31
 688 991 688 991 655 953.5 c 128,-1,32
 622 916 622 916 604.5 863 c 128,-1,33
 587 810 587 810 587 743 c 0,34,35
 587 673 587 673 605 620 c 128,-1,36
 623 567 623 567 654.5 531 c 128,-1,37
 686 495 686 495 729.5 476 c 128,-1,38
 773 457 773 457 824 457 c 0,39,40
 874 457 874 457 906.5 465 c 128,-1,41
 939 473 939 473 961.5 484.5 c 128,-1,42
 984 496 984 496 1001 507 c 128,-1,43
 1018 518 1018 518 1041 524 c 0,0,1
54 740 m 256,44,45
 54 844 54 844 81.5 941 c 128,-1,46
 109 1038 109 1038 158 1122 c 128,-1,47
 207 1206 207 1206 276 1275.5 c 128,-1,48
 345 1345 345 1345 429 1394 c 128,-1,49
 513 1443 513 1443 609.5 1470 c 128,-1,50
 706 1497 706 1497 810 1497 c 256,51,52
 914 1497 914 1497 1011 1470 c 128,-1,53
 1108 1443 1108 1443 1192 1394 c 128,-1,54
 1276 1345 1276 1345 1345 1275.5 c 128,-1,55
 1414 1206 1414 1206 1463 1122 c 128,-1,56
 1512 1038 1512 1038 1539.5 941.5 c 128,-1,57
 1567 845 1567 845 1567 740 c 0,58,59
 1567 637 1567 637 1539.5 540 c 128,-1,60
 1512 443 1512 443 1463 359.5 c 128,-1,61
 1414 276 1414 276 1345 207 c 128,-1,62
 1276 138 1276 138 1192 89 c 128,-1,63
 1108 40 1108 40 1011 13 c 128,-1,64
 914 -14 914 -14 810 -14 c 256,65,66
 706 -14 706 -14 609.5 13 c 128,-1,67
 513 40 513 40 429 89 c 128,-1,68
 345 138 345 138 276 207 c 128,-1,69
 207 276 207 276 158 359.5 c 128,-1,70
 109 443 109 443 81.5 539.5 c 128,-1,71
 54 636 54 636 54 740 c 256,44,45
193 740 m 0,72,73
 193 607 193 607 240.5 491.5 c 128,-1,74
 288 376 288 376 371.5 290.5 c 128,-1,75
 455 205 455 205 567.5 155.5 c 128,-1,76
 680 106 680 106 810 106 c 256,77,78
 940 106 940 106 1053.5 155.5 c 128,-1,79
 1167 205 1167 205 1251 290.5 c 128,-1,80
 1335 376 1335 376 1383.5 491.5 c 128,-1,81
 1432 607 1432 607 1432 740 c 0,82,83
 1432 829 1432 829 1410 911 c 128,-1,84
 1388 993 1388 993 1348 1064.5 c 128,-1,85
 1308 1136 1308 1136 1251 1193.5 c 128,-1,86
 1194 1251 1194 1251 1125.5 1292.5 c 128,-1,87
 1057 1334 1057 1334 977 1356.5 c 128,-1,88
 897 1379 897 1379 810 1379 c 256,89,90
 723 1379 723 1379 643.5 1356.5 c 128,-1,91
 564 1334 564 1334 495.5 1292.5 c 128,-1,92
 427 1251 427 1251 371 1193.5 c 128,-1,93
 315 1136 315 1136 275.5 1064.5 c 128,-1,94
 236 993 236 993 214.5 911 c 128,-1,95
 193 829 193 829 193 740 c 0,72,73
EndSplineSet
Validated: 1
EndChar

StartChar: ordfeminine
Encoding: 170 170 108
Width: 712
GlyphClass: 1
Flags: W
LayerCount: 2
Fore
SplineSet
637 861 m 1,0,-1
 552 861 l 2,1,2
 527 861 527 861 513 867.5 c 128,-1,3
 499 874 499 874 490 898 c 2,4,-1
 478 935 l 1,5,6
 453 915 453 915 431 899.5 c 128,-1,7
 409 884 409 884 385 873.5 c 128,-1,8
 361 863 361 863 334 858 c 128,-1,9
 307 853 307 853 273 853 c 0,10,11
 230 853 230 853 195.5 864.5 c 128,-1,12
 161 876 161 876 136 898 c 128,-1,13
 111 920 111 920 97 952 c 128,-1,14
 83 984 83 984 83 1026 c 0,15,16
 83 1060 83 1060 100.5 1095 c 128,-1,17
 118 1130 118 1130 161 1159 c 128,-1,18
 204 1188 204 1188 276.5 1207 c 128,-1,19
 349 1226 349 1226 460 1229 c 1,20,-1
 460 1254 l 2,21,22
 460 1309 460 1309 436 1332.5 c 128,-1,23
 412 1356 412 1356 366 1356 c 0,24,25
 331 1356 331 1356 308.5 1348.5 c 128,-1,26
 286 1341 286 1341 268.5 1332 c 128,-1,27
 251 1323 251 1323 235.5 1316 c 128,-1,28
 220 1309 220 1309 199 1309 c 0,29,30
 180 1309 180 1309 166.5 1319 c 128,-1,31
 153 1329 153 1329 145 1342 c 2,32,-1
 114 1401 l 1,33,34
 171 1453 171 1453 239.5 1477 c 128,-1,35
 308 1501 308 1501 388 1501 c 0,36,37
 445 1501 445 1501 491.5 1482.5 c 128,-1,38
 538 1464 538 1464 570 1431 c 128,-1,39
 602 1398 602 1398 619.5 1353 c 128,-1,40
 637 1308 637 1308 637 1254 c 2,41,-1
 637 861 l 1,0,-1
331 977 m 0,42,43
 370 977 370 977 399.5 991 c 128,-1,44
 429 1005 429 1005 460 1034 c 1,45,-1
 460 1117 l 1,46,47
 400 1115 400 1115 361 1108 c 128,-1,48
 322 1101 322 1101 298.5 1090 c 128,-1,49
 275 1079 275 1079 266 1065.5 c 128,-1,50
 257 1052 257 1052 257 1035 c 0,51,52
 257 1002 257 1002 276 989.5 c 128,-1,53
 295 977 295 977 331 977 c 0,42,43
EndSplineSet
Validated: 1
EndChar

StartChar: guillemotleft
Encoding: 171 171 109
Width: 995
GlyphClass: 1
Flags: W
LayerCount: 2
Fore
SplineSet
126 535 m 1,0,-1
 126 567 l 1,1,-1
 388 973 l 1,2,-1
 471 934 l 2,3,4
 491 925 491 925 500.5 910.5 c 128,-1,5
 510 896 510 896 510 879 c 0,6,7
 510 857 510 857 497 835 c 2,8,-1
 355 594 l 2,9,10
 341 567 341 567 323 551 c 1,11,12
 339 537 339 537 355 508 c 2,13,-1
 497 266 l 2,14,15
 510 243 510 243 510 221 c 0,16,17
 510 186 510 186 471 168 c 2,18,-1
 388 129 l 1,19,-1
 126 535 l 1,0,-1
463 535 m 1,20,-1
 463 567 l 1,21,-1
 725 973 l 1,22,-1
 808 934 l 2,23,24
 828 925 828 925 837.5 910.5 c 128,-1,25
 847 896 847 896 847 879 c 0,26,27
 847 857 847 857 834 835 c 2,28,-1
 692 594 l 2,29,30
 678 567 678 567 659 551 c 1,31,32
 675 537 675 537 692 508 c 2,33,-1
 834 266 l 2,34,35
 847 243 847 243 847 221 c 0,36,37
 847 186 847 186 808 168 c 2,38,-1
 725 129 l 1,39,-1
 463 535 l 1,20,-1
EndSplineSet
Validated: 1
EndChar

StartChar: logicalnot
Encoding: 172 172 110
Width: 1187
GlyphClass: 1
Flags: W
LayerCount: 2
Fore
SplineSet
139 781 m 1,0,-1
 1047 781 l 1,1,-1
 1047 304 l 1,2,-1
 833 304 l 1,3,-1
 833 594 l 1,4,-1
 139 594 l 1,5,-1
 139 781 l 1,0,-1
EndSplineSet
Validated: 1
EndChar

StartChar: uni00AD
Encoding: 173 173 111
Width: 735
GlyphClass: 1
Flags: W
LayerCount: 2
Fore
SplineSet
102 724 m 1,0,-1
 633 724 l 1,1,-1
 633 513 l 1,2,-1
 102 513 l 1,3,-1
 102 724 l 1,0,-1
EndSplineSet
Validated: 1
EndChar

StartChar: registered
Encoding: 174 174 112
Width: 1620
GlyphClass: 1
Flags: W
LayerCount: 2
Fore
SplineSet
54 740 m 256,0,1
 54 844 54 844 81.5 941 c 128,-1,2
 109 1038 109 1038 158 1122 c 128,-1,3
 207 1206 207 1206 276 1275.5 c 128,-1,4
 345 1345 345 1345 429 1394 c 128,-1,5
 513 1443 513 1443 609.5 1470 c 128,-1,6
 706 1497 706 1497 810 1497 c 256,7,8
 914 1497 914 1497 1011 1470 c 128,-1,9
 1108 1443 1108 1443 1192 1394 c 128,-1,10
 1276 1345 1276 1345 1345 1275.5 c 128,-1,11
 1414 1206 1414 1206 1463 1122 c 128,-1,12
 1512 1038 1512 1038 1539.5 941.5 c 128,-1,13
 1567 845 1567 845 1567 740 c 0,14,15
 1567 637 1567 637 1539.5 540 c 128,-1,16
 1512 443 1512 443 1463 359.5 c 128,-1,17
 1414 276 1414 276 1345 207 c 128,-1,18
 1276 138 1276 138 1192 89 c 128,-1,19
 1108 40 1108 40 1011 13 c 128,-1,20
 914 -14 914 -14 810 -14 c 256,21,22
 706 -14 706 -14 609.5 13 c 128,-1,23
 513 40 513 40 429 89 c 128,-1,24
 345 138 345 138 276 207 c 128,-1,25
 207 276 207 276 158 359.5 c 128,-1,26
 109 443 109 443 81.5 539.5 c 128,-1,27
 54 636 54 636 54 740 c 256,0,1
193 740 m 0,28,29
 193 607 193 607 240.5 491.5 c 128,-1,30
 288 376 288 376 371.5 290.5 c 128,-1,31
 455 205 455 205 567.5 155.5 c 128,-1,32
 680 106 680 106 810 106 c 256,33,34
 940 106 940 106 1053.5 155.5 c 128,-1,35
 1167 205 1167 205 1251 290.5 c 128,-1,36
 1335 376 1335 376 1383.5 491.5 c 128,-1,37
 1432 607 1432 607 1432 740 c 0,38,39
 1432 829 1432 829 1410 911 c 128,-1,40
 1388 993 1388 993 1348 1064.5 c 128,-1,41
 1308 1136 1308 1136 1251 1193.5 c 128,-1,42
 1194 1251 1194 1251 1125.5 1292.5 c 128,-1,43
 1057 1334 1057 1334 977 1356.5 c 128,-1,44
 897 1379 897 1379 810 1379 c 256,45,46
 723 1379 723 1379 643.5 1356.5 c 128,-1,47
 564 1334 564 1334 495.5 1292.5 c 128,-1,48
 427 1251 427 1251 371 1193.5 c 128,-1,49
 315 1136 315 1136 275.5 1064.5 c 128,-1,50
 236 993 236 993 214.5 911 c 128,-1,51
 193 829 193 829 193 740 c 0,28,29
695 616 m 1,52,-1
 695 284 l 1,53,-1
 476 284 l 1,54,-1
 476 1202 l 1,55,-1
 805 1202 l 2,56,57
 996 1202 996 1202 1085.5 1133.5 c 128,-1,58
 1175 1065 1175 1065 1175 937 c 0,59,60
 1175 846 1175 846 1127.5 778 c 128,-1,61
 1080 710 1080 710 981 678 c 1,62,63
 1005 665 1005 665 1020 645 c 128,-1,64
 1035 625 1035 625 1051 598 c 2,65,-1
 1236 284 l 1,66,-1
 1025 284 l 2,67,68
 979 284 979 284 961 317 c 2,69,-1
 813 587 l 2,70,71
 803 601 803 601 790 608.5 c 128,-1,72
 777 616 777 616 752 616 c 2,73,-1
 695 616 l 1,52,-1
695 773 m 1,74,-1
 786 773 l 2,75,76
 838 773 838 773 872 782 c 128,-1,77
 906 791 906 791 925 808 c 128,-1,78
 944 825 944 825 951 851 c 128,-1,79
 958 877 958 877 958 909 c 256,80,81
 958 941 958 941 952 965 c 128,-1,82
 946 989 946 989 929 1005 c 128,-1,83
 912 1021 912 1021 882 1028.5 c 128,-1,84
 852 1036 852 1036 805 1036 c 2,85,-1
 695 1036 l 1,86,-1
 695 773 l 1,74,-1
EndSplineSet
Validated: 1
EndChar

StartChar: macron
Encoding: 175 175 113
Width: 653
GlyphClass: 1
Flags: W
LayerCount: 2
Fore
SplineSet
20 1405 m 1,0,-1
 633 1405 l 1,1,-1
 633 1243 l 1,2,-1
 20 1243 l 1,3,-1
 20 1405 l 1,0,-1
EndSplineSet
Validated: 1
Substitution2: "'case' Case-Sensitive Forms in Latin lookup 0 subtable" macron.case
EndChar

StartChar: degree
Encoding: 176 176 114
Width: 822
GlyphClass: 1
Flags: W
LayerCount: 2
Fore
SplineSet
56 1150 m 0,0,1
 56 1223 56 1223 83.5 1287 c 128,-1,2
 111 1351 111 1351 158.5 1398 c 128,-1,3
 206 1445 206 1445 270.5 1472 c 128,-1,4
 335 1499 335 1499 410 1499 c 256,5,6
 485 1499 485 1499 549.5 1472 c 128,-1,7
 614 1445 614 1445 662.5 1398 c 128,-1,8
 711 1351 711 1351 738.5 1287 c 128,-1,9
 766 1223 766 1223 766 1150 c 0,10,11
 766 1079 766 1079 738.5 1015.5 c 128,-1,12
 711 952 711 952 662.5 904.5 c 128,-1,13
 614 857 614 857 549 829.5 c 128,-1,14
 484 802 484 802 410 802 c 256,15,16
 335 802 335 802 270.5 829.5 c 128,-1,17
 206 857 206 857 158.5 904.5 c 128,-1,18
 111 952 111 952 83.5 1015.5 c 128,-1,19
 56 1079 56 1079 56 1150 c 0,0,1
232 1148 m 0,20,21
 232 1110 232 1110 245.5 1077 c 128,-1,22
 259 1044 259 1044 283 1020 c 128,-1,23
 307 996 307 996 339.5 982.5 c 128,-1,24
 372 969 372 969 410 969 c 256,25,26
 448 969 448 969 480.5 982.5 c 128,-1,27
 513 996 513 996 537 1020 c 128,-1,28
 561 1044 561 1044 574.5 1077 c 128,-1,29
 588 1110 588 1110 588 1148 c 0,30,31
 588 1187 588 1187 574.5 1220 c 128,-1,32
 561 1253 561 1253 537 1278 c 128,-1,33
 513 1303 513 1303 480 1317 c 128,-1,34
 447 1331 447 1331 410 1331 c 256,35,36
 372 1331 372 1331 339.5 1317 c 128,-1,37
 307 1303 307 1303 283 1278 c 128,-1,38
 259 1253 259 1253 245.5 1220 c 128,-1,39
 232 1187 232 1187 232 1148 c 0,20,21
EndSplineSet
Validated: 1
EndChar

StartChar: plusminus
Encoding: 177 177 115
Width: 1187
GlyphClass: 1
Flags: W
LayerCount: 2
Fore
SplineSet
694 1271 m 1,0,-1
 694 908 l 1,1,-1
 1093 908 l 1,2,-1
 1093 720 l 1,3,-1
 694 720 l 1,4,-1
 694 371 l 1,5,-1
 489 371 l 1,6,-1
 489 720 l 1,7,-1
 93 720 l 1,8,-1
 93 908 l 1,9,-1
 489 908 l 1,10,-1
 489 1271 l 1,11,-1
 694 1271 l 1,0,-1
93 269 m 1,12,-1
 1093 269 l 1,13,-1
 1093 82 l 1,14,-1
 93 82 l 1,15,-1
 93 269 l 1,12,-1
EndSplineSet
Validated: 1
EndChar

StartChar: twosuperior
Encoding: 178 178 116
Width: 681
GlyphClass: 1
Flags: W
LayerCount: 2
Fore
SplineSet
358 1689 m 0,0,1
 417 1689 417 1689 464 1671.5 c 128,-1,2
 511 1654 511 1654 543 1624 c 128,-1,3
 575 1594 575 1594 591.5 1553.5 c 128,-1,4
 608 1513 608 1513 608 1466 c 0,5,6
 608 1424 608 1424 595.5 1389.5 c 128,-1,7
 583 1355 583 1355 562 1323 c 128,-1,8
 541 1291 541 1291 513 1261.5 c 128,-1,9
 485 1232 485 1232 456 1201 c 2,10,-1
 325 1068 l 1,11,12
 354 1076 354 1076 381.5 1080.5 c 128,-1,13
 409 1085 409 1085 432 1085 c 2,14,-1
 564 1085 l 2,15,16
 593 1085 593 1085 609 1070 c 128,-1,17
 625 1055 625 1055 625 1029 c 2,18,-1
 625 922 l 1,19,-1
 71 922 l 1,20,-1
 71 980 l 2,21,22
 71 997 71 997 77.5 1016.5 c 128,-1,23
 84 1036 84 1036 100 1053 c 2,24,-1
 314 1264 l 2,25,26
 337 1287 337 1287 357.5 1311.5 c 128,-1,27
 378 1336 378 1336 392.5 1361 c 128,-1,28
 407 1386 407 1386 415.5 1411.5 c 128,-1,29
 424 1437 424 1437 424 1460 c 0,30,31
 424 1497 424 1497 404 1520 c 128,-1,32
 384 1543 384 1543 348 1543 c 0,33,34
 314 1543 314 1543 293.5 1526 c 128,-1,35
 273 1509 273 1509 260 1478 c 0,36,37
 249 1460 249 1460 236 1450.5 c 128,-1,38
 223 1441 223 1441 200 1441 c 0,39,40
 195 1441 195 1441 189 1441.5 c 128,-1,41
 183 1442 183 1442 176 1443 c 2,42,-1
 75 1458 l 1,43,44
 92 1576 92 1576 167.5 1632.5 c 128,-1,45
 243 1689 243 1689 358 1689 c 0,0,1
EndSplineSet
Validated: 1
EndChar

StartChar: threesuperior
Encoding: 179 179 117
Width: 681
GlyphClass: 1
Flags: W
LayerCount: 2
Fore
SplineSet
369 1689 m 0,0,1
 427 1689 427 1689 472 1672 c 128,-1,2
 517 1655 517 1655 549 1627 c 128,-1,3
 581 1599 581 1599 597 1564 c 128,-1,4
 613 1529 613 1529 613 1491 c 0,5,6
 613 1426 613 1426 586.5 1381.5 c 128,-1,7
 560 1337 560 1337 502 1313 c 1,8,9
 563 1293 563 1293 595 1255.5 c 128,-1,10
 627 1218 627 1218 627 1157 c 0,11,12
 627 1094 627 1094 603.5 1048 c 128,-1,13
 580 1002 580 1002 542 972 c 128,-1,14
 504 942 504 942 456 927.5 c 128,-1,15
 408 913 408 913 358 913 c 0,16,17
 303 913 303 913 259 924 c 128,-1,18
 215 935 215 935 180.5 959 c 128,-1,19
 146 983 146 983 120.5 1022.5 c 128,-1,20
 95 1062 95 1062 76 1119 c 1,21,-1
 155 1151 l 2,22,23
 178 1159 178 1159 196 1159 c 0,24,25
 234 1159 234 1159 248 1130 c 0,26,27
 254 1119 254 1119 262 1107 c 128,-1,28
 270 1095 270 1095 282.5 1085 c 128,-1,29
 295 1075 295 1075 311.5 1069 c 128,-1,30
 328 1063 328 1063 349 1063 c 0,31,32
 395 1063 395 1063 419.5 1088.5 c 128,-1,33
 444 1114 444 1114 444 1150 c 0,34,35
 444 1178 444 1178 437 1196 c 128,-1,36
 430 1214 430 1214 413 1225.5 c 128,-1,37
 396 1237 396 1237 367 1241.5 c 128,-1,38
 338 1246 338 1246 295 1246 c 1,39,-1
 295 1365 l 1,40,41
 338 1365 338 1365 366 1371.5 c 128,-1,42
 394 1378 394 1378 410 1390 c 128,-1,43
 426 1402 426 1402 432.5 1419.5 c 128,-1,44
 439 1437 439 1437 439 1458 c 0,45,46
 439 1496 439 1496 419 1518 c 128,-1,47
 399 1540 399 1540 359 1540 c 0,48,49
 323 1540 323 1540 302.5 1523 c 128,-1,50
 282 1506 282 1506 270 1480 c 0,51,52
 261 1460 261 1460 249 1450 c 128,-1,53
 237 1440 237 1440 216 1440 c 0,54,55
 205 1440 205 1440 189 1443 c 2,56,-1
 96 1458 l 1,57,58
 104 1516 104 1516 128.5 1560 c 128,-1,59
 153 1604 153 1604 188.5 1632.5 c 128,-1,60
 224 1661 224 1661 270.5 1675 c 128,-1,61
 317 1689 317 1689 369 1689 c 0,0,1
EndSplineSet
Validated: 1
EndChar

StartChar: acute
Encoding: 180 180 118
Width: 653
GlyphClass: 1
Flags: W
LayerCount: 2
Fore
SplineSet
681 1497 m 1,0,-1
 428 1230 l 2,1,2
 409 1210 409 1210 391 1202 c 128,-1,3
 373 1194 373 1194 344 1194 c 2,4,-1
 193 1194 l 1,5,-1
 338 1443 l 2,6,7
 353 1470 353 1470 373.5 1483.5 c 128,-1,8
 394 1497 394 1497 435 1497 c 2,9,-1
 681 1497 l 1,0,-1
EndSplineSet
Validated: 1
Substitution2: "'case' Case-Sensitive Forms in Latin lookup 0 subtable" acute.case
EndChar

StartChar: mu
Encoding: 181 181 119
Width: 1164
GlyphClass: 1
Flags: W
LayerCount: 2
Fore
SplineSet
367 1051 m 1,0,-1
 367 383 l 2,1,2
 367 287 367 287 411.5 234 c 128,-1,3
 456 181 456 181 545 181 c 0,4,5
 611 181 611 181 668 210.5 c 128,-1,6
 725 240 725 240 776 291 c 1,7,-1
 776 1051 l 1,8,-1
 1029 1051 l 1,9,-1
 1029 0 l 1,10,-1
 874 0 l 2,11,12
 825 0 825 0 810 46 c 1,13,-1
 793 131 l 1,14,15
 761 99 761 99 730 77 c 128,-1,16
 699 55 699 55 667.5 41.5 c 128,-1,17
 636 28 636 28 601.5 21.5 c 128,-1,18
 567 15 567 15 528 15 c 0,19,20
 468 15 468 15 419 33.5 c 128,-1,21
 370 52 370 52 332 86 c 1,22,23
 343 41 343 41 346.5 -7 c 128,-1,24
 350 -55 350 -55 350 -97 c 2,25,-1
 350 -343 l 1,26,-1
 225 -343 l 2,27,28
 172 -343 172 -343 143 -316 c 128,-1,29
 114 -289 114 -289 114 -238 c 2,30,-1
 114 1051 l 1,31,-1
 367 1051 l 1,0,-1
EndSplineSet
Validated: 1
EndChar

StartChar: paragraph
Encoding: 182 182 120
Width: 1434
GlyphClass: 1
Flags: W
LayerCount: 2
Fore
SplineSet
1403 1481 m 1,0,-1
 1403 1269 l 1,1,-1
 1184 1269 l 1,2,-1
 1184 -214 l 1,3,-1
 963 -214 l 1,4,-1
 963 1269 l 1,5,-1
 722 1269 l 1,6,-1
 722 -214 l 1,7,-1
 501 -214 l 1,8,-1
 501 645 l 1,9,10
 395 645 395 645 308.5 678.5 c 128,-1,11
 222 712 222 712 161 768.5 c 128,-1,12
 100 825 100 825 67 901 c 128,-1,13
 34 977 34 977 34 1062 c 0,14,15
 34 1155 34 1155 67 1232 c 128,-1,16
 100 1309 100 1309 161 1364 c 128,-1,17
 222 1419 222 1419 308 1450 c 128,-1,18
 394 1481 394 1481 501 1481 c 2,19,-1
 1403 1481 l 1,0,-1
EndSplineSet
Validated: 1
EndChar

StartChar: periodcentered
Encoding: 183 183 121
Width: 572
GlyphClass: 1
Flags: W
LayerCount: 2
Fore
SplineSet
93 609 m 256,0,1
 93 649 93 649 108 684.5 c 128,-1,2
 123 720 123 720 149 746 c 128,-1,3
 175 772 175 772 210 787 c 128,-1,4
 245 802 245 802 285 802 c 0,5,6
 326 802 326 802 361 787 c 128,-1,7
 396 772 396 772 422.5 746 c 128,-1,8
 449 720 449 720 464 684.5 c 128,-1,9
 479 649 479 649 479 609 c 256,10,11
 479 569 479 569 464 535 c 128,-1,12
 449 501 449 501 422.5 475 c 128,-1,13
 396 449 396 449 361 434 c 128,-1,14
 326 419 326 419 285 419 c 0,15,16
 245 419 245 419 210 434 c 128,-1,17
 175 449 175 449 149 475 c 128,-1,18
 123 501 123 501 108 535 c 128,-1,19
 93 569 93 569 93 609 c 256,0,1
EndSplineSet
Validated: 1
EndChar

StartChar: cedilla
Encoding: 184 184 122
Width: 653
GlyphClass: 1
Flags: W
LayerCount: 2
Fore
SplineSet
187 -232 m 0,0,1
 194 -232 194 -232 202 -234.5 c 128,-1,2
 210 -237 210 -237 219.5 -240 c 128,-1,3
 229 -243 229 -243 241 -245 c 128,-1,4
 253 -247 253 -247 269 -247 c 0,5,6
 303 -247 303 -247 320 -234 c 128,-1,7
 337 -221 337 -221 337 -203 c 0,8,9
 337 -173 337 -173 300 -160 c 128,-1,10
 263 -147 263 -147 186 -137 c 1,11,-1
 232 14 l 1,12,-1
 390 14 l 1,13,-1
 370 -56 l 1,14,15
 461 -79 461 -79 498 -117.5 c 128,-1,16
 535 -156 535 -156 535 -208 c 0,17,18
 535 -242 535 -242 517 -269.5 c 128,-1,19
 499 -297 499 -297 466 -316.5 c 128,-1,20
 433 -336 433 -336 387 -346.5 c 128,-1,21
 341 -357 341 -357 286 -357 c 0,22,23
 244 -357 244 -357 207.5 -351 c 128,-1,24
 171 -345 171 -345 135 -334 c 1,25,-1
 159 -256 l 2,26,27
 164 -232 164 -232 187 -232 c 0,0,1
EndSplineSet
Validated: 1
EndChar

StartChar: onesuperior
Encoding: 185 185 123
Width: 681
GlyphClass: 1
Flags: W
LayerCount: 2
Fore
SplineSet
165 1038 m 1,0,-1
 307 1038 l 1,1,-1
 307 1407 l 1,2,-1
 312 1459 l 1,3,-1
 233 1397 l 2,4,5
 217 1385 217 1385 199 1384 c 0,6,7
 184 1384 184 1384 171.5 1390.5 c 128,-1,8
 159 1397 159 1397 154 1405 c 2,9,-1
 97 1482 l 1,10,-1
 336 1680 l 1,11,-1
 488 1680 l 1,12,-1
 488 1038 l 1,13,-1
 606 1038 l 1,14,-1
 606 922 l 1,15,-1
 165 922 l 1,16,-1
 165 1038 l 1,0,-1
EndSplineSet
Validated: 1
EndChar

StartChar: ordmasculine
Encoding: 186 186 124
Width: 794
GlyphClass: 1
Flags: W
LayerCount: 2
Fore
SplineSet
399 1499 m 0,0,1
 473 1499 473 1499 534.5 1476.5 c 128,-1,2
 596 1454 596 1454 640 1412.5 c 128,-1,3
 684 1371 684 1371 708 1311 c 128,-1,4
 732 1251 732 1251 732 1177 c 0,5,6
 732 1101 732 1101 708 1040 c 128,-1,7
 684 979 684 979 640 936.5 c 128,-1,8
 596 894 596 894 534.5 871.5 c 128,-1,9
 473 849 473 849 399 849 c 0,10,11
 323 849 323 849 261.5 871.5 c 128,-1,12
 200 894 200 894 156 936.5 c 128,-1,13
 112 979 112 979 87 1040 c 128,-1,14
 62 1101 62 1101 62 1177 c 0,15,16
 62 1252 62 1252 87 1311.5 c 128,-1,17
 112 1371 112 1371 156 1412.5 c 128,-1,18
 200 1454 200 1454 261.5 1476.5 c 128,-1,19
 323 1499 323 1499 399 1499 c 0,0,1
399 996 m 0,20,21
 468 996 468 996 501.5 1039.5 c 128,-1,22
 535 1083 535 1083 535 1175 c 256,23,24
 535 1266 535 1266 501.5 1309 c 128,-1,25
 468 1352 468 1352 399 1352 c 0,26,27
 326 1352 326 1352 293 1309 c 128,-1,28
 260 1266 260 1266 260 1175 c 256,29,30
 260 1084 260 1084 293 1040 c 128,-1,31
 326 996 326 996 399 996 c 0,20,21
EndSplineSet
Validated: 1
EndChar

StartChar: guillemotright
Encoding: 187 187 125
Width: 995
GlyphClass: 1
Flags: W
LayerCount: 2
Fore
SplineSet
269 129 m 1,0,-1
 186 168 l 2,1,2
 166 177 166 177 156.5 191.5 c 128,-1,3
 147 206 147 206 147 223 c 0,4,5
 147 243 147 243 161 266 c 2,6,-1
 302 508 l 2,7,8
 318 537 318 537 335 551 c 1,9,10
 317 567 317 567 302 594 c 2,11,-1
 161 835 l 2,12,13
 148 858 148 858 147 879 c 0,14,15
 147 916 147 916 186 934 c 2,16,-1
 269 973 l 1,17,-1
 531 567 l 1,18,-1
 531 535 l 1,19,-1
 269 129 l 1,0,-1
606 129 m 1,20,-1
 523 168 l 2,21,22
 503 177 503 177 493.5 191.5 c 128,-1,23
 484 206 484 206 484 223 c 0,24,25
 484 243 484 243 498 266 c 2,26,-1
 639 508 l 2,27,28
 655 537 655 537 672 551 c 1,29,30
 654 567 654 567 639 594 c 2,31,-1
 498 835 l 2,32,33
 485 858 485 858 484 879 c 0,34,35
 484 916 484 916 523 934 c 2,36,-1
 606 973 l 1,37,-1
 868 567 l 1,38,-1
 868 535 l 1,39,-1
 606 129 l 1,20,-1
EndSplineSet
Validated: 1
EndChar

StartChar: onequarter
Encoding: 188 188 126
Width: 1458
GlyphClass: 1
Flags: W
LayerCount: 2
Fore
SplineSet
466 73 m 2,0,1
 439 31 439 31 409 15.5 c 128,-1,2
 379 0 379 0 340 0 c 2,3,-1
 231 0 l 1,4,-1
 1085 1398 l 2,5,6
 1109 1437 1109 1437 1140.5 1459 c 128,-1,7
 1172 1481 1172 1481 1219 1481 c 2,8,-1
 1326 1481 l 1,9,-1
 466 73 l 2,0,1
1352 289 m 1,10,-1
 1448 289 l 1,11,-1
 1448 199 l 2,12,13
 1448 186 1448 186 1439 175.5 c 128,-1,14
 1430 165 1430 165 1413 165 c 2,15,-1
 1352 165 l 1,16,-1
 1352 0 l 1,17,-1
 1200 0 l 1,18,-1
 1200 165 l 1,19,-1
 904 165 l 2,20,21
 879 165 879 165 865.5 175.5 c 128,-1,22
 852 186 852 186 849 203 c 2,23,-1
 834 281 l 1,24,-1
 1177 759 l 1,25,-1
 1352 759 l 1,26,-1
 1352 289 l 1,10,-1
145 840 m 1,27,-1
 288 840 l 1,28,-1
 288 1208 l 1,29,-1
 293 1261 l 1,30,-1
 214 1198 l 2,31,32
 198 1186 198 1186 179 1186 c 0,33,34
 164 1186 164 1186 151.5 1192 c 128,-1,35
 139 1198 139 1198 134 1206 c 2,36,-1
 78 1283 l 1,37,-1
 316 1482 l 1,38,-1
 469 1482 l 1,39,-1
 469 840 l 1,40,-1
 587 840 l 1,41,-1
 587 723 l 1,42,-1
 145 723 l 1,43,-1
 145 840 l 1,27,-1
1200 461 m 2,44,45
 1200 485 1200 485 1201.5 513.5 c 128,-1,46
 1203 542 1203 542 1207 572 c 1,47,-1
 1000 289 l 1,48,-1
 1200 289 l 1,49,-1
 1200 461 l 2,44,45
EndSplineSet
Validated: 1
EndChar

StartChar: onehalf
Encoding: 189 189 127
Width: 1458
GlyphClass: 1
Flags: W
LayerCount: 2
Fore
SplineSet
424 73 m 2,0,1
 397 31 397 31 367 15.5 c 128,-1,2
 337 0 337 0 298 0 c 2,3,-1
 189 0 l 1,4,-1
 1043 1398 l 2,5,6
 1067 1437 1067 1437 1098.5 1459 c 128,-1,7
 1130 1481 1130 1481 1177 1481 c 2,8,-1
 1284 1481 l 1,9,-1
 424 73 l 2,0,1
1155 767 m 0,10,11
 1214 767 1214 767 1261 749.5 c 128,-1,12
 1308 732 1308 732 1340 702.5 c 128,-1,13
 1372 673 1372 673 1388.5 632.5 c 128,-1,14
 1405 592 1405 592 1405 545 c 0,15,16
 1405 503 1405 503 1392 468 c 128,-1,17
 1379 433 1379 433 1358 401.5 c 128,-1,18
 1337 370 1337 370 1309.5 340 c 128,-1,19
 1282 310 1282 310 1252 280 c 2,20,-1
 1121 146 l 1,21,22
 1150 154 1150 154 1177.5 159 c 128,-1,23
 1205 164 1205 164 1229 164 c 2,24,-1
 1361 164 l 2,25,26
 1390 164 1390 164 1405.5 148.5 c 128,-1,27
 1421 133 1421 133 1421 108 c 2,28,-1
 1421 0 l 1,29,-1
 867 0 l 1,30,-1
 867 58 l 2,31,32
 867 75 867 75 874 95 c 128,-1,33
 881 115 881 115 897 131 c 2,34,-1
 1111 342 l 2,35,36
 1134 365 1134 365 1154.5 390 c 128,-1,37
 1175 415 1175 415 1189 440 c 128,-1,38
 1203 465 1203 465 1212 490 c 128,-1,39
 1221 515 1221 515 1221 539 c 0,40,41
 1221 576 1221 576 1201 599 c 128,-1,42
 1181 622 1181 622 1145 622 c 0,43,44
 1111 622 1111 622 1091.5 606 c 128,-1,45
 1072 590 1072 590 1057 556 c 0,46,47
 1041 519 1041 519 996 519 c 0,48,49
 991 519 991 519 985.5 519.5 c 128,-1,50
 980 520 980 520 973 521 c 2,51,-1
 871 537 l 1,52,53
 888 655 888 655 964 711 c 128,-1,54
 1040 767 1040 767 1155 767 c 0,10,11
145 840 m 1,55,-1
 288 840 l 1,56,-1
 288 1208 l 1,57,-1
 293 1261 l 1,58,-1
 214 1198 l 2,59,60
 198 1186 198 1186 179 1186 c 0,61,62
 164 1186 164 1186 151.5 1192 c 128,-1,63
 139 1198 139 1198 134 1206 c 2,64,-1
 78 1283 l 1,65,-1
 316 1482 l 1,66,-1
 469 1482 l 1,67,-1
 469 840 l 1,68,-1
 587 840 l 1,69,-1
 587 723 l 1,70,-1
 145 723 l 1,71,-1
 145 840 l 1,55,-1
EndSplineSet
Validated: 1
EndChar

StartChar: threequarters
Encoding: 190 190 128
Width: 1459
GlyphClass: 1
Flags: W
LayerCount: 2
Fore
SplineSet
469 73 m 2,0,1
 442 31 442 31 412 15.5 c 128,-1,2
 382 0 382 0 343 0 c 2,3,-1
 234 0 l 1,4,-1
 1089 1398 l 2,5,6
 1113 1437 1113 1437 1144.5 1459 c 128,-1,7
 1176 1481 1176 1481 1222 1481 c 2,8,-1
 1329 1481 l 1,9,-1
 469 73 l 2,0,1
1352 289 m 1,10,-1
 1448 289 l 1,11,-1
 1448 199 l 2,12,13
 1448 186 1448 186 1439 175.5 c 128,-1,14
 1430 165 1430 165 1413 165 c 2,15,-1
 1352 165 l 1,16,-1
 1352 0 l 1,17,-1
 1200 0 l 1,18,-1
 1200 165 l 1,19,-1
 904 165 l 2,20,21
 879 165 879 165 865.5 175.5 c 128,-1,22
 852 186 852 186 849 203 c 2,23,-1
 834 281 l 1,24,-1
 1177 759 l 1,25,-1
 1352 759 l 1,26,-1
 1352 289 l 1,10,-1
349 1490 m 0,27,28
 407 1490 407 1490 452.5 1473 c 128,-1,29
 498 1456 498 1456 529.5 1428.5 c 128,-1,30
 561 1401 561 1401 577.5 1365.5 c 128,-1,31
 594 1330 594 1330 594 1292 c 0,32,33
 594 1227 594 1227 567.5 1183 c 128,-1,34
 541 1139 541 1139 482 1114 c 1,35,36
 543 1094 543 1094 575 1056.5 c 128,-1,37
 607 1019 607 1019 607 958 c 0,38,39
 607 895 607 895 583.5 849.5 c 128,-1,40
 560 804 560 804 522 773.5 c 128,-1,41
 484 743 484 743 436 729 c 128,-1,42
 388 715 388 715 339 715 c 0,43,44
 284 715 284 715 240 725.5 c 128,-1,45
 196 736 196 736 161.5 760 c 128,-1,46
 127 784 127 784 101.5 823.5 c 128,-1,47
 76 863 76 863 56 921 c 1,48,-1
 135 952 l 2,49,50
 158 960 158 960 176 961 c 0,51,52
 214 961 214 961 228 932 c 0,53,54
 234 921 234 921 242.5 908.5 c 128,-1,55
 251 896 251 896 263 886.5 c 128,-1,56
 275 877 275 877 291.5 870.5 c 128,-1,57
 308 864 308 864 330 864 c 0,58,59
 376 864 376 864 400.5 889.5 c 128,-1,60
 425 915 425 915 425 951 c 0,61,62
 425 979 425 979 418 997.5 c 128,-1,63
 411 1016 411 1016 394 1027 c 128,-1,64
 377 1038 377 1038 347.5 1043 c 128,-1,65
 318 1048 318 1048 275 1048 c 1,66,-1
 275 1166 l 1,67,68
 318 1166 318 1166 346.5 1173 c 128,-1,69
 375 1180 375 1180 391 1191.5 c 128,-1,70
 407 1203 407 1203 413.5 1220.5 c 128,-1,71
 420 1238 420 1238 420 1260 c 0,72,73
 420 1298 420 1298 400 1319.5 c 128,-1,74
 380 1341 380 1341 340 1341 c 0,75,76
 304 1341 304 1341 283 1325 c 128,-1,77
 262 1309 262 1309 251 1281 c 0,78,79
 241 1261 241 1261 229 1251 c 128,-1,80
 217 1241 217 1241 197 1241 c 0,81,82
 186 1241 186 1241 170 1244 c 2,83,-1
 77 1260 l 1,84,85
 85 1318 85 1318 109 1361.5 c 128,-1,86
 133 1405 133 1405 169 1433.5 c 128,-1,87
 205 1462 205 1462 251 1476 c 128,-1,88
 297 1490 297 1490 349 1490 c 0,27,28
1200 461 m 2,89,90
 1200 485 1200 485 1201.5 513.5 c 128,-1,91
 1203 542 1203 542 1207 572 c 1,92,-1
 1000 289 l 1,93,-1
 1200 289 l 1,94,-1
 1200 461 l 2,89,90
EndSplineSet
Validated: 1
EndChar

StartChar: questiondown
Encoding: 191 191 129
Width: 861
GlyphClass: 1
Flags: W
LayerCount: 2
Fore
SplineSet
840 -208 m 1,0,1
 804 -239 804 -239 762.5 -266 c 128,-1,2
 721 -293 721 -293 673 -314 c 128,-1,3
 625 -335 625 -335 568.5 -346.5 c 128,-1,4
 512 -358 512 -358 446 -358 c 0,5,6
 357 -358 357 -358 284 -334.5 c 128,-1,7
 211 -311 211 -311 158.5 -267 c 128,-1,8
 106 -223 106 -223 77.5 -160 c 128,-1,9
 49 -97 49 -97 49 -17 c 0,10,11
 49 61 49 61 71.5 115 c 128,-1,12
 94 169 94 169 128.5 207.5 c 128,-1,13
 163 246 163 246 203.5 272.5 c 128,-1,14
 244 299 244 299 279.5 322.5 c 128,-1,15
 315 346 315 346 341.5 370 c 128,-1,16
 368 394 368 394 373 427 c 2,17,-1
 396 575 l 1,18,-1
 569 575 l 1,19,-1
 587 409 l 2,20,21
 588 404 588 404 588 399 c 128,-1,22
 588 394 588 394 588 389 c 0,23,24
 588 342 588 342 565.5 310.5 c 128,-1,25
 543 279 543 279 509 254 c 128,-1,26
 475 229 475 229 436 207 c 128,-1,27
 397 185 397 185 363.5 158 c 128,-1,28
 330 131 330 131 307.5 94.5 c 128,-1,29
 285 58 285 58 285 5 c 0,30,31
 285 -32 285 -32 298.5 -61 c 128,-1,32
 312 -90 312 -90 336.5 -111 c 128,-1,33
 361 -132 361 -132 395 -143.5 c 128,-1,34
 429 -155 429 -155 469 -155 c 0,35,36
 527 -155 527 -155 567.5 -141.5 c 128,-1,37
 608 -128 608 -128 636.5 -112.5 c 128,-1,38
 665 -97 665 -97 684 -84 c 128,-1,39
 703 -71 703 -71 720 -71 c 0,40,41
 756 -71 756 -71 772 -102 c 2,42,-1
 840 -208 l 1,0,1
332 913 m 0,43,44
 332 945 332 945 343.5 973.5 c 128,-1,45
 355 1002 355 1002 376 1022.5 c 128,-1,46
 397 1043 397 1043 426 1055.5 c 128,-1,47
 455 1068 455 1068 487 1068 c 256,48,49
 519 1068 519 1068 548 1055.5 c 128,-1,50
 577 1043 577 1043 597 1022.5 c 128,-1,51
 617 1002 617 1002 629.5 973.5 c 128,-1,52
 642 945 642 945 642 913 c 0,53,54
 642 880 642 880 629.5 852 c 128,-1,55
 617 824 617 824 597 803.5 c 128,-1,56
 577 783 577 783 548 771.5 c 128,-1,57
 519 760 519 760 487 760 c 0,58,59
 454 760 454 760 425.5 771.5 c 128,-1,60
 397 783 397 783 376 803.5 c 128,-1,61
 355 824 355 824 343.5 852 c 128,-1,62
 332 880 332 880 332 913 c 0,43,44
EndSplineSet
Validated: 1
EndChar

StartChar: AE
Encoding: 198 198 136
Width: 1912
GlyphClass: 1
Flags: W
LayerCount: 2
Fore
SplineSet
1823 1262 m 1,0,-1
 1112 1262 l 1,1,-1
 1163 851 l 1,2,-1
 1684 851 l 1,3,-1
 1684 639 l 1,4,-1
 1189 639 l 1,5,-1
 1240 220 l 1,6,-1
 1823 220 l 1,7,-1
 1823 0 l 1,8,-1
 1007 0 l 1,9,-1
 962 365 l 1,10,-1
 429 365 l 1,11,-1
 284 61 l 2,12,13
 271 33 271 33 244 16.5 c 128,-1,14
 217 0 217 0 180 0 c 2,15,-1
 -29 0 l 1,16,-1
 724 1481 l 1,17,-1
 1823 1481 l 1,18,-1
 1823 1262 l 1,0,-1
523 559 m 1,19,-1
 938 559 l 1,20,-1
 850 1276 l 1,21,22
 834 1224 834 1224 816 1178 c 128,-1,23
 798 1132 798 1132 780 1093 c 2,24,-1
 523 559 l 1,19,-1
EndSplineSet
Validated: 1
EndChar

StartChar: Ccedilla
Encoding: 199 199 137
Width: 1373
GlyphClass: 1
Flags: W
LayerCount: 2
Fore
SplineSet
647 -232 m 0,0,1
 654 -232 654 -232 662 -234.5 c 128,-1,2
 670 -237 670 -237 679.5 -240 c 128,-1,3
 689 -243 689 -243 701 -245 c 128,-1,4
 713 -247 713 -247 729 -247 c 0,5,6
 763 -247 763 -247 780 -234 c 128,-1,7
 797 -221 797 -221 797 -203 c 0,8,9
 797 -173 797 -173 760 -160 c 128,-1,10
 723 -147 723 -147 646 -137 c 1,11,-1
 684 -11 l 1,12,13
 540 4 540 4 425 66 c 128,-1,14
 310 128 310 128 230 227 c 128,-1,15
 150 326 150 326 106.5 456.5 c 128,-1,16
 63 587 63 587 63 740 c 0,17,18
 63 907 63 907 118.5 1046 c 128,-1,19
 174 1185 174 1185 274.5 1285 c 128,-1,20
 375 1385 375 1385 514.5 1441 c 128,-1,21
 654 1497 654 1497 823 1497 c 0,22,23
 988 1497 988 1497 1111.5 1444.5 c 128,-1,24
 1235 1392 1235 1392 1323 1305 c 1,25,-1
 1231 1177 l 2,26,27
 1223 1165 1223 1165 1210 1155.5 c 128,-1,28
 1197 1146 1197 1146 1175 1146 c 0,29,30
 1151 1146 1151 1146 1126.5 1164.5 c 128,-1,31
 1102 1183 1102 1183 1064 1204.5 c 128,-1,32
 1026 1226 1026 1226 968 1244.5 c 128,-1,33
 910 1263 910 1263 821 1263 c 0,34,35
 717 1263 717 1263 629.5 1226.5 c 128,-1,36
 542 1190 542 1190 479 1122.5 c 128,-1,37
 416 1055 416 1055 380.5 958 c 128,-1,38
 345 861 345 861 345 740 c 0,39,40
 345 615 345 615 380.5 518 c 128,-1,41
 416 421 416 421 476.5 354.5 c 128,-1,42
 537 288 537 288 618.5 252.5 c 128,-1,43
 700 217 700 217 795 217 c 0,44,45
 851 217 851 217 896.5 223 c 128,-1,46
 942 229 942 229 980.5 242.5 c 128,-1,47
 1019 256 1019 256 1053 277 c 128,-1,48
 1087 298 1087 298 1121 329 c 0,49,50
 1131 338 1131 338 1142.5 343.5 c 128,-1,51
 1154 349 1154 349 1167 349 c 0,52,53
 1190 349 1190 349 1206 332 c 2,54,-1
 1315 214 l 1,55,56
 1233 112 1233 112 1116.5 54 c 128,-1,57
 1000 -4 1000 -4 842 -14 c 1,58,-1
 829 -56 l 1,59,60
 920 -79 920 -79 957 -117.5 c 128,-1,61
 994 -156 994 -156 994 -208 c 0,62,63
 994 -242 994 -242 976 -269.5 c 128,-1,64
 958 -297 958 -297 925.5 -316.5 c 128,-1,65
 893 -336 893 -336 847 -346.5 c 128,-1,66
 801 -357 801 -357 745 -357 c 0,67,68
 703 -357 703 -357 667 -351 c 128,-1,69
 631 -345 631 -345 595 -334 c 1,70,-1
 618 -256 l 2,71,72
 624 -232 624 -232 647 -232 c 0,0,1
EndSplineSet
Validated: 1
EndChar

StartChar: Eth
Encoding: 208 208 146
Width: 1618
GlyphClass: 1
Flags: W
LayerCount: 2
Fore
SplineSet
54 823 m 1,0,-1
 239 823 l 1,1,-1
 239 1481 l 1,2,-1
 804 1481 l 2,3,4
 972 1481 972 1481 1110 1426 c 128,-1,5
 1248 1371 1248 1371 1346.5 1273.5 c 128,-1,6
 1445 1176 1445 1176 1499 1039.5 c 128,-1,7
 1553 903 1553 903 1553 740 c 256,8,9
 1553 577 1553 577 1499 441 c 128,-1,10
 1445 305 1445 305 1346.5 207 c 128,-1,11
 1248 109 1248 109 1110 54.5 c 128,-1,12
 972 0 972 0 804 0 c 2,13,-1
 239 0 l 1,14,-1
 239 667 l 1,15,-1
 54 667 l 1,16,-1
 54 823 l 1,0,-1
1271 740 m 256,17,18
 1271 862 1271 862 1238.5 959 c 128,-1,19
 1206 1056 1206 1056 1145.5 1123 c 128,-1,20
 1085 1190 1085 1190 998.5 1226 c 128,-1,21
 912 1262 912 1262 804 1262 c 2,22,-1
 516 1262 l 1,23,-1
 516 823 l 1,24,-1
 886 823 l 1,25,-1
 886 667 l 1,26,-1
 516 667 l 1,27,-1
 516 219 l 1,28,-1
 804 219 l 2,29,30
 913 219 913 219 999 255 c 128,-1,31
 1085 291 1085 291 1145.5 358 c 128,-1,32
 1206 425 1206 425 1238.5 521.5 c 128,-1,33
 1271 618 1271 618 1271 740 c 256,17,18
EndSplineSet
Validated: 1
EndChar

StartChar: multiply
Encoding: 215 215 153
Width: 1187
GlyphClass: 1
Flags: W
LayerCount: 2
Fore
SplineSet
1058 1020 m 1,0,-1
 725 687 l 1,1,-1
 1074 339 l 1,2,-1
 940 207 l 1,3,-1
 592 554 l 1,4,-1
 243 205 l 1,5,-1
 109 337 l 1,6,-1
 459 687 l 1,7,-1
 124 1022 l 1,8,-1
 257 1155 l 1,9,-1
 592 820 l 1,10,-1
 924 1153 l 1,11,-1
 1058 1020 l 1,0,-1
EndSplineSet
Validated: 1
EndChar

StartChar: Oslash
Encoding: 216 216 154
Width: 1637
GlyphClass: 1
Flags: W
LayerCount: 2
Fore
SplineSet
1570 740 m 0,0,1
 1570 577 1570 577 1515.5 438.5 c 128,-1,2
 1461 300 1461 300 1363 198.5 c 128,-1,3
 1265 97 1265 97 1126.5 40.5 c 128,-1,4
 988 -16 988 -16 820 -16 c 0,5,6
 717 -16 717 -16 626 5.5 c 128,-1,7
 535 27 535 27 455 68 c 1,8,-1
 377 -40 l 2,9,10
 347 -81 347 -81 305.5 -97.5 c 128,-1,11
 264 -114 264 -114 225 -114 c 2,12,-1
 117 -114 l 1,13,-1
 316 161 l 1,14,15
 198 263 198 263 133.5 411.5 c 128,-1,16
 69 560 69 560 69 740 c 0,17,18
 69 903 69 903 123 1042 c 128,-1,19
 177 1181 177 1181 276 1282 c 128,-1,20
 375 1383 375 1383 513.5 1440 c 128,-1,21
 652 1497 652 1497 820 1497 c 0,22,23
 933 1497 933 1497 1031.5 1471.5 c 128,-1,24
 1130 1446 1130 1446 1214 1397 c 1,25,-1
 1275 1481 l 2,26,27
 1288 1499 1288 1499 1299.5 1512.5 c 128,-1,28
 1311 1526 1311 1526 1323.5 1533.5 c 128,-1,29
 1336 1541 1336 1541 1351.5 1544.5 c 128,-1,30
 1367 1548 1367 1548 1390 1548 c 2,31,-1
 1531 1548 l 1,32,-1
 1348 1296 l 1,33,34
 1454 1194 1454 1194 1512 1052 c 128,-1,35
 1570 910 1570 910 1570 740 c 0,0,1
350 740 m 0,36,37
 350 622 350 622 380 529 c 128,-1,38
 410 436 410 436 467 369 c 1,39,-1
 1070 1198 l 1,40,41
 964 1263 964 1263 820 1263 c 0,42,43
 711 1263 711 1263 624.5 1227 c 128,-1,44
 538 1191 538 1191 477 1123.5 c 128,-1,45
 416 1056 416 1056 383 959 c 128,-1,46
 350 862 350 862 350 740 c 0,36,37
1287 740 m 0,47,48
 1287 845 1287 845 1263 931.5 c 128,-1,49
 1239 1018 1239 1018 1193 1083 c 1,50,-1
 599 266 l 1,51,52
 696 219 696 219 820 219 c 0,53,54
 929 219 929 219 1015.5 255 c 128,-1,55
 1102 291 1102 291 1162.5 358 c 128,-1,56
 1223 425 1223 425 1255 521.5 c 128,-1,57
 1287 618 1287 618 1287 740 c 0,47,48
EndSplineSet
Validated: 1
EndChar

StartChar: Thorn
Encoding: 222 222 160
Width: 1280
GlyphClass: 1
Flags: W
LayerCount: 2
Fore
SplineSet
434 267 m 1,0,-1
 434 0 l 1,1,-1
 159 0 l 1,2,-1
 159 1481 l 1,3,-1
 434 1481 l 1,4,-1
 434 1227 l 1,5,-1
 641 1227 l 2,6,7
 789 1227 789 1227 898 1192 c 128,-1,8
 1007 1157 1007 1157 1077.5 1094.5 c 128,-1,9
 1148 1032 1148 1032 1181.5 945 c 128,-1,10
 1215 858 1215 858 1215 755 c 0,11,12
 1215 647 1215 647 1179.5 557.5 c 128,-1,13
 1144 468 1144 468 1072 403.5 c 128,-1,14
 1000 339 1000 339 892.5 303 c 128,-1,15
 785 267 785 267 641 267 c 2,16,-1
 434 267 l 1,0,-1
434 482 m 1,17,-1
 641 482 l 2,18,19
 717 482 717 482 773 501 c 128,-1,20
 829 520 829 520 866 555.5 c 128,-1,21
 903 591 903 591 921.5 641.5 c 128,-1,22
 940 692 940 692 940 755 c 0,23,24
 940 814 940 814 921.5 862 c 128,-1,25
 903 910 903 910 866 944 c 128,-1,26
 829 978 829 978 773 996 c 128,-1,27
 717 1014 717 1014 641 1014 c 2,28,-1
 434 1014 l 1,29,-1
 434 482 l 1,17,-1
EndSplineSet
Validated: 1
EndChar

StartChar: germandbls
Encoding: 223 223 161
Width: 1300
GlyphClass: 1
Flags: W
LayerCount: 2
Fore
SplineSet
717 1506 m 0,0,1
 837 1506 837 1506 922 1471.5 c 128,-1,2
 1007 1437 1007 1437 1060 1384.5 c 128,-1,3
 1113 1332 1113 1332 1137.5 1271.5 c 128,-1,4
 1162 1211 1162 1211 1162 1159 c 0,5,6
 1162 1100 1162 1100 1142 1058 c 128,-1,7
 1122 1016 1122 1016 1092 984 c 128,-1,8
 1062 952 1062 952 1027 928.5 c 128,-1,9
 992 905 992 905 962 883.5 c 128,-1,10
 932 862 932 862 912 839 c 128,-1,11
 892 816 892 816 892 786 c 0,12,13
 892 752 892 752 917.5 727.5 c 128,-1,14
 943 703 943 703 981 679.5 c 128,-1,15
 1019 656 1019 656 1064 629.5 c 128,-1,16
 1109 603 1109 603 1147 564.5 c 128,-1,17
 1185 526 1185 526 1210.5 472 c 128,-1,18
 1236 418 1236 418 1236 339 c 0,19,20
 1236 252 1236 252 1203.5 186 c 128,-1,21
 1171 120 1171 120 1116 75 c 128,-1,22
 1061 30 1061 30 987.5 7 c 128,-1,23
 914 -16 914 -16 833 -16 c 0,24,25
 786 -16 786 -16 739.5 -6.5 c 128,-1,26
 693 3 693 3 650.5 20.5 c 128,-1,27
 608 38 608 38 570 61.5 c 128,-1,28
 532 85 532 85 502 113 c 1,29,-1
 561 209 l 2,30,31
 571 226 571 226 586.5 235.5 c 128,-1,32
 602 245 602 245 626 245 c 256,33,34
 650 245 650 245 671 231.5 c 128,-1,35
 692 218 692 218 717.5 202.5 c 128,-1,36
 743 187 743 187 776 174 c 128,-1,37
 809 161 809 161 855 161 c 0,38,39
 920 161 920 161 959.5 199.5 c 128,-1,40
 999 238 999 238 999 299 c 0,41,42
 999 347 999 347 971.5 379 c 128,-1,43
 944 411 944 411 902.5 436 c 128,-1,44
 861 461 861 461 813 485 c 128,-1,45
 765 509 765 509 723.5 541 c 128,-1,46
 682 573 682 573 654.5 619.5 c 128,-1,47
 627 666 627 666 627 736 c 0,48,49
 627 794 627 794 648.5 836.5 c 128,-1,50
 670 879 670 879 702 911.5 c 128,-1,51
 734 944 734 944 772 970 c 128,-1,52
 810 996 810 996 842 1024 c 128,-1,53
 874 1052 874 1052 896 1083.5 c 128,-1,54
 918 1115 918 1115 918 1158 c 0,55,56
 918 1192 918 1192 906 1222 c 128,-1,57
 894 1252 894 1252 868.5 1274 c 128,-1,58
 843 1296 843 1296 802.5 1309.5 c 128,-1,59
 762 1323 762 1323 706 1323 c 0,60,61
 572 1323 572 1323 502.5 1240.5 c 128,-1,62
 433 1158 433 1158 433 999 c 2,63,-1
 433 0 l 1,64,-1
 180 0 l 1,65,-1
 180 1008 l 2,66,67
 180 1117 180 1117 217.5 1207.5 c 128,-1,68
 255 1298 255 1298 324 1365 c 128,-1,69
 393 1432 393 1432 492.5 1469 c 128,-1,70
 592 1506 592 1506 717 1506 c 0,0,1
EndSplineSet
Validated: 1
EndChar

StartChar: ae
Encoding: 230 230 168
Width: 1690
GlyphClass: 1
Flags: W
LayerCount: 2
Fore
SplineSet
1202 1067 m 0,0,1
 1291 1067 1291 1067 1368 1032.5 c 128,-1,2
 1445 998 1445 998 1500.5 933.5 c 128,-1,3
 1556 869 1556 869 1588 777 c 128,-1,4
 1620 685 1620 685 1620 570 c 0,5,6
 1620 541 1620 541 1617.5 522.5 c 128,-1,7
 1615 504 1615 504 1609 493 c 128,-1,8
 1603 482 1603 482 1592 477.5 c 128,-1,9
 1581 473 1581 473 1564 473 c 2,10,-1
 951 473 l 1,11,12
 965 322 965 322 1036.5 251 c 128,-1,13
 1108 180 1108 180 1221 180 c 0,14,15
 1291 180 1291 180 1334 193.5 c 128,-1,16
 1377 207 1377 207 1406 223.5 c 128,-1,17
 1435 240 1435 240 1454.5 253 c 128,-1,18
 1474 266 1474 266 1495 266 c 0,19,20
 1513 266 1513 266 1525.5 260 c 128,-1,21
 1538 254 1538 254 1546 243 c 2,22,-1
 1614 157 l 1,23,24
 1572 108 1572 108 1521.5 74.5 c 128,-1,25
 1471 41 1471 41 1416.5 21 c 128,-1,26
 1362 1 1362 1 1305.5 -7 c 128,-1,27
 1249 -15 1249 -15 1196 -15 c 0,28,29
 1084 -15 1084 -15 987.5 35 c 128,-1,30
 891 85 891 85 828 191 c 1,31,32
 797 136 797 136 752.5 97 c 128,-1,33
 708 58 708 58 653.5 32.5 c 128,-1,34
 599 7 599 7 537.5 -4.5 c 128,-1,35
 476 -16 476 -16 414 -16 c 0,36,37
 337 -16 337 -16 276 3.5 c 128,-1,38
 215 23 215 23 172 60 c 128,-1,39
 129 97 129 97 106 153 c 128,-1,40
 83 209 83 209 83 282 c 0,41,42
 83 341 83 341 114 401 c 128,-1,43
 145 461 145 461 218 510 c 128,-1,44
 291 559 291 559 411.5 591.5 c 128,-1,45
 532 624 532 624 712 628 c 1,46,-1
 712 664 l 2,47,48
 712 769 712 769 667.5 823.5 c 128,-1,49
 623 878 623 878 538 878 c 0,50,51
 477 878 477 878 435.5 862 c 128,-1,52
 394 846 394 846 364 827.5 c 128,-1,53
 334 809 334 809 308.5 793 c 128,-1,54
 283 777 283 777 252 777 c 0,55,56
 226 777 226 777 207.5 790.5 c 128,-1,57
 189 804 189 804 178 823 c 2,58,-1
 132 904 l 1,59,60
 223 987 223 987 322 1028.5 c 128,-1,61
 421 1070 421 1070 542 1070 c 0,62,63
 661 1070 661 1070 736.5 1025 c 128,-1,64
 812 980 812 980 852 901 c 1,65,66
 910 978 910 978 997 1022.5 c 128,-1,67
 1084 1067 1084 1067 1202 1067 c 0,0,1
712 473 m 1,68,69
 601 468 601 468 527 452 c 128,-1,70
 453 436 453 436 407.5 412.5 c 128,-1,71
 362 389 362 389 343.5 358.5 c 128,-1,72
 325 328 325 328 325 294 c 0,73,74
 325 223 325 223 364.5 190.5 c 128,-1,75
 404 158 404 158 474 158 c 0,76,77
 524 158 524 158 567.5 173 c 128,-1,78
 611 188 611 188 643 220.5 c 128,-1,79
 675 253 675 253 693.5 304 c 128,-1,80
 712 355 712 355 712 426 c 2,81,-1
 712 473 l 1,68,69
1191 886 m 0,82,83
 1083 886 1083 886 1024.5 818 c 128,-1,84
 966 750 966 750 952 626 c 1,85,-1
 1396 626 l 1,86,87
 1396 676 1396 676 1383.5 723 c 128,-1,88
 1371 770 1371 770 1346 806.5 c 128,-1,89
 1321 843 1321 843 1282 864.5 c 128,-1,90
 1243 886 1243 886 1191 886 c 0,82,83
EndSplineSet
Validated: 1
EndChar

StartChar: ccedilla
Encoding: 231 231 169
Width: 976
GlyphClass: 1
Flags: W
LayerCount: 2
Fore
SplineSet
415 -232 m 0,0,1
 422 -232 422 -232 429.5 -234.5 c 128,-1,2
 437 -237 437 -237 447 -240 c 128,-1,3
 457 -243 457 -243 468.5 -245 c 128,-1,4
 480 -247 480 -247 497 -247 c 0,5,6
 531 -247 531 -247 547.5 -234 c 128,-1,7
 564 -221 564 -221 564 -203 c 0,8,9
 564 -173 564 -173 527 -160 c 128,-1,10
 490 -147 490 -147 414 -137 c 1,11,-1
 453 -8 l 1,12,13
 371 6 371 6 299.5 48.5 c 128,-1,14
 228 91 228 91 176 159 c 128,-1,15
 124 227 124 227 94.5 320 c 128,-1,16
 65 413 65 413 65 527 c 0,17,18
 65 643 65 643 98 742 c 128,-1,19
 131 841 131 841 195.5 913 c 128,-1,20
 260 985 260 985 355.5 1026 c 128,-1,21
 451 1067 451 1067 574 1067 c 0,22,23
 692 1067 692 1067 780.5 1029 c 128,-1,24
 869 991 869 991 940 921 c 1,25,-1
 873 828 l 2,26,27
 862 814 862 814 851.5 806 c 128,-1,28
 841 798 841 798 820 798 c 0,29,30
 801 798 801 798 782.5 809.5 c 128,-1,31
 764 821 764 821 738.5 836 c 128,-1,32
 713 851 713 851 677.5 862.5 c 128,-1,33
 642 874 642 874 590 874 c 0,34,35
 523 874 523 874 473 850 c 128,-1,36
 423 826 423 826 389.5 781 c 128,-1,37
 356 736 356 736 340 672 c 128,-1,38
 324 608 324 608 324 527 c 0,39,40
 324 443 324 443 341.5 377.5 c 128,-1,41
 359 312 359 312 393 267.5 c 128,-1,42
 427 223 427 223 475 200 c 128,-1,43
 523 177 523 177 584 177 c 256,44,45
 644 177 644 177 681.5 192 c 128,-1,46
 719 207 719 207 744.5 225 c 128,-1,47
 770 243 770 243 789 257.5 c 128,-1,48
 808 272 808 272 831 272 c 0,49,50
 859 272 859 272 878 249 c 2,51,-1
 950 157 l 1,52,53
 879 74 879 74 791 35.5 c 128,-1,54
 703 -3 703 -3 609 -11 c 1,55,-1
 597 -56 l 1,56,57
 688 -79 688 -79 725 -117.5 c 128,-1,58
 762 -156 762 -156 762 -208 c 0,59,60
 762 -242 762 -242 744 -269.5 c 128,-1,61
 726 -297 726 -297 693 -316.5 c 128,-1,62
 660 -336 660 -336 614 -346.5 c 128,-1,63
 568 -357 568 -357 513 -357 c 0,64,65
 471 -357 471 -357 434.5 -351 c 128,-1,66
 398 -345 398 -345 362 -334 c 1,67,-1
 386 -256 l 2,68,69
 392 -232 392 -232 415 -232 c 0,0,1
EndSplineSet
Validated: 1
EndChar

StartChar: eth
Encoding: 240 240 178
Width: 1163
GlyphClass: 1
Flags: W
LayerCount: 2
Fore
SplineSet
395 1087 m 2,0,1
 385 1103 385 1103 385 1121 c 0,2,3
 385 1152 385 1152 418 1170 c 2,4,-1
 495 1214 l 1,5,6
 462 1227 462 1227 425.5 1238.5 c 128,-1,7
 389 1250 389 1250 349 1262 c 0,8,9
 323 1269 323 1269 306.5 1287.5 c 128,-1,10
 290 1306 290 1306 290 1336 c 0,11,12
 290 1352 290 1352 298 1379 c 2,13,-1
 328 1466 l 1,14,15
 431 1449 431 1449 527 1417 c 128,-1,16
 623 1385 623 1385 708 1335 c 1,17,-1
 888 1452 l 1,18,-1
 938 1370 l 2,19,20
 948 1353 948 1353 948 1338 c 256,21,22
 948 1324 948 1324 940.5 1311.5 c 128,-1,23
 933 1299 933 1299 919 1291 c 2,24,-1
 836 1244 l 1,25,26
 894 1192 894 1192 941 1128 c 128,-1,27
 988 1064 988 1064 1022 987 c 128,-1,28
 1056 910 1056 910 1074 819 c 128,-1,29
 1092 728 1092 728 1092 623 c 0,30,31
 1092 472 1092 472 1057.5 354 c 128,-1,32
 1023 236 1023 236 956.5 153.5 c 128,-1,33
 890 71 890 71 791.5 28 c 128,-1,34
 693 -15 693 -15 566 -15 c 0,35,36
 460 -15 460 -15 369 19 c 128,-1,37
 278 53 278 53 211 117.5 c 128,-1,38
 144 182 144 182 106 275 c 128,-1,39
 68 368 68 368 68 485 c 0,40,41
 68 579 68 579 101 664.5 c 128,-1,42
 134 750 134 750 195 814 c 128,-1,43
 256 878 256 878 342 915.5 c 128,-1,44
 428 953 428 953 535 953 c 0,45,46
 632 953 632 953 713 918 c 128,-1,47
 794 883 794 883 856 815 c 1,48,49
 834 924 834 924 783 1002 c 128,-1,50
 732 1080 732 1080 645 1139 c 1,51,-1
 442 1008 l 1,52,-1
 395 1087 l 2,0,1
572 177 m 0,53,54
 631 177 631 177 681.5 198.5 c 128,-1,55
 732 220 732 220 769 267.5 c 128,-1,56
 806 315 806 315 828 391 c 128,-1,57
 850 467 850 467 853 575 c 1,58,59
 838 613 838 613 814 647 c 128,-1,60
 790 681 790 681 757 706 c 128,-1,61
 724 731 724 731 681.5 746 c 128,-1,62
 639 761 639 761 586 761 c 0,63,64
 520 761 520 761 470.5 739.5 c 128,-1,65
 421 718 421 718 387 680 c 128,-1,66
 353 642 353 642 335.5 592 c 128,-1,67
 318 542 318 542 318 483 c 0,68,69
 318 408 318 408 338 351.5 c 128,-1,70
 358 295 358 295 392.5 256 c 128,-1,71
 427 217 427 217 473 197 c 128,-1,72
 519 177 519 177 572 177 c 0,53,54
EndSplineSet
Validated: 1
EndChar

StartChar: divide
Encoding: 247 247 185
Width: 1187
GlyphClass: 1
Flags: W
LayerCount: 2
Fore
SplineSet
93 781 m 1,0,-1
 1093 781 l 1,1,-1
 1093 594 l 1,2,-1
 93 594 l 1,3,-1
 93 781 l 1,0,-1
437 1052 m 0,4,5
 437 1084 437 1084 449 1112.5 c 128,-1,6
 461 1141 461 1141 481.5 1161.5 c 128,-1,7
 502 1182 502 1182 530.5 1194 c 128,-1,8
 559 1206 559 1206 592 1206 c 0,9,10
 624 1206 624 1206 652.5 1194 c 128,-1,11
 681 1182 681 1182 702 1161.5 c 128,-1,12
 723 1141 723 1141 735.5 1112 c 128,-1,13
 748 1083 748 1083 748 1052 c 0,14,15
 748 1019 748 1019 735.5 991 c 128,-1,16
 723 963 723 963 702 942.5 c 128,-1,17
 681 922 681 922 652.5 910 c 128,-1,18
 624 898 624 898 592 898 c 0,19,20
 559 898 559 898 530.5 910 c 128,-1,21
 502 922 502 922 481.5 942.5 c 128,-1,22
 461 963 461 963 449 991 c 128,-1,23
 437 1019 437 1019 437 1052 c 0,4,5
437 323 m 0,24,25
 437 355 437 355 449 383.5 c 128,-1,26
 461 412 461 412 481.5 432.5 c 128,-1,27
 502 453 502 453 530.5 465 c 128,-1,28
 559 477 559 477 592 477 c 0,29,30
 624 477 624 477 652.5 465 c 128,-1,31
 681 453 681 453 702 432.5 c 128,-1,32
 723 412 723 412 735.5 383 c 128,-1,33
 748 354 748 354 748 323 c 0,34,35
 748 290 748 290 735.5 261.5 c 128,-1,36
 723 233 723 233 702 213 c 128,-1,37
 681 193 681 193 652.5 181 c 128,-1,38
 624 169 624 169 592 169 c 0,39,40
 559 169 559 169 530.5 181 c 128,-1,41
 502 193 502 193 481.5 213 c 128,-1,42
 461 233 461 233 449 261.5 c 128,-1,43
 437 290 437 290 437 323 c 0,24,25
EndSplineSet
Validated: 1
EndChar

StartChar: oslash
Encoding: 248 248 186
Width: 1164
GlyphClass: 1
Flags: W
LayerCount: 2
Fore
SplineSet
966 914 m 1,0,1
 1032 843 1032 843 1067 746 c 128,-1,2
 1102 649 1102 649 1102 527 c 0,3,4
 1102 402 1102 402 1065 302 c 128,-1,5
 1028 202 1028 202 960.5 131 c 128,-1,6
 893 60 893 60 797 22.5 c 128,-1,7
 701 -15 701 -15 584 -15 c 0,8,9
 510 -15 510 -15 445 -0.5 c 128,-1,10
 380 14 380 14 324 43 c 1,11,-1
 289 -5 l 2,12,13
 259 -45 259 -45 217.5 -62 c 128,-1,14
 176 -79 176 -79 137 -79 c 2,15,-1
 44 -79 l 1,16,-1
 202 135 l 1,17,18
 134 206 134 206 98 304.5 c 128,-1,19
 62 403 62 403 62 527 c 256,20,21
 62 651 62 651 99.5 751.5 c 128,-1,22
 137 852 137 852 205 921.5 c 128,-1,23
 273 991 273 991 369.5 1029 c 128,-1,24
 466 1067 466 1067 584 1067 c 0,25,26
 658 1067 658 1067 723 1051.5 c 128,-1,27
 788 1036 788 1036 844 1008 c 1,28,-1
 901 1084 l 2,29,30
 914 1102 914 1102 925.5 1115 c 128,-1,31
 937 1128 937 1128 950 1136.5 c 128,-1,32
 963 1145 963 1145 978 1148.5 c 128,-1,33
 993 1152 993 1152 1016 1152 c 2,34,-1
 1141 1152 l 1,35,-1
 966 914 l 1,0,1
307 525 m 0,36,37
 307 403 307 403 340 324 c 1,38,-1
 725 846 l 1,39,40
 668 881 668 881 584 881 c 0,41,42
 450 881 450 881 378.5 788 c 128,-1,43
 307 695 307 695 307 525 c 0,36,37
584 171 m 0,44,45
 715 171 715 171 786 263 c 128,-1,46
 857 355 857 355 857 525 c 0,47,48
 857 585 857 585 849 634.5 c 128,-1,49
 841 684 841 684 825 723 c 1,50,-1
 442 204 l 1,51,52
 499 171 499 171 584 171 c 0,44,45
EndSplineSet
Validated: 1
EndChar

StartChar: thorn
Encoding: 254 254 192
Width: 1158
GlyphClass: 1
Flags: W
LayerCount: 2
Fore
SplineSet
135 -343 m 1,0,-1
 135 1522 l 1,1,-1
 388 1522 l 1,2,-1
 388 922 l 1,3,4
 450 989 450 989 529 1028 c 128,-1,5
 608 1067 608 1067 714 1067 c 0,6,7
 800 1067 800 1067 871 1031.5 c 128,-1,8
 942 996 942 996 994 928.5 c 128,-1,9
 1046 861 1046 861 1074 762 c 128,-1,10
 1102 663 1102 663 1102 534 c 0,11,12
 1102 416 1102 416 1070 315.5 c 128,-1,13
 1038 215 1038 215 979.5 141.5 c 128,-1,14
 921 68 921 68 837.5 26.5 c 128,-1,15
 754 -15 754 -15 650 -15 c 0,16,17
 605 -15 605 -15 567 -7 c 128,-1,18
 529 1 529 1 497.5 17 c 128,-1,19
 466 33 466 33 439.5 55 c 128,-1,20
 413 77 413 77 388 104 c 1,21,-1
 388 -343 l 1,22,-1
 135 -343 l 1,0,-1
627 870 m 0,23,24
 548 870 548 870 492 837 c 128,-1,25
 436 804 436 804 388 743 c 1,26,-1
 388 272 l 1,27,28
 431 219 431 219 481.5 198 c 128,-1,29
 532 177 532 177 591 177 c 0,30,31
 648 177 648 177 694.5 198.5 c 128,-1,32
 741 220 741 220 773.5 264 c 128,-1,33
 806 308 806 308 823.5 375 c 128,-1,34
 841 442 841 442 841 534 c 256,35,36
 841 626 841 626 826 690 c 128,-1,37
 811 754 811 754 783.5 794 c 128,-1,38
 756 834 756 834 716.5 852 c 128,-1,39
 677 870 677 870 627 870 c 0,23,24
EndSplineSet
Validated: 1
EndChar

StartChar: Aogonek
Encoding: 260 260 194
Width: 1454
GlyphClass: 1
Flags: W
LayerCount: 2
Fore
SplineSet
1438 -191 m 0,0,1
 1456 -191 1456 -191 1461 -208 c 2,2,-1
 1500 -301 l 1,3,4
 1466 -324 1466 -324 1415.5 -338.5 c 128,-1,5
 1365 -353 1365 -353 1309 -353 c 0,6,7
 1209 -353 1209 -353 1154.5 -311 c 128,-1,8
 1100 -269 1100 -269 1100 -203 c 0,9,10
 1100 -147 1100 -147 1137.5 -94.5 c 128,-1,11
 1175 -42 1175 -42 1244 0 c 1,12,-1
 1238 0 l 2,13,14
 1202 0 1202 0 1179 18 c 128,-1,15
 1156 36 1156 36 1146 62 c 2,16,-1
 1035 365 l 1,17,-1
 422 365 l 1,18,-1
 311 62 l 2,19,20
 303 38 303 38 279 19 c 128,-1,21
 255 0 255 0 220 0 c 2,22,-1
 6 0 l 1,23,-1
 588 1481 l 1,24,-1
 869 1481 l 1,25,-1
 1451 0 l 1,26,-1
 1397 0 l 1,27,28
 1377 -11 1377 -11 1357 -25.5 c 128,-1,29
 1337 -40 1337 -40 1322 -58 c 128,-1,30
 1307 -76 1307 -76 1297.5 -96.5 c 128,-1,31
 1288 -117 1288 -117 1288 -139 c 0,32,33
 1288 -170 1288 -170 1307.5 -188 c 128,-1,34
 1327 -206 1327 -206 1362 -206 c 0,35,36
 1381 -206 1381 -206 1393.5 -204 c 128,-1,37
 1406 -202 1406 -202 1413.5 -199 c 128,-1,38
 1421 -196 1421 -196 1427 -193.5 c 128,-1,39
 1433 -191 1433 -191 1438 -191 c 0,0,1
493 559 m 1,40,-1
 965 559 l 1,41,-1
 784 1052 l 2,42,43
 772 1085 772 1085 757 1129.5 c 128,-1,44
 742 1174 742 1174 728 1226 c 1,45,46
 714 1174 714 1174 699.5 1128.5 c 128,-1,47
 685 1083 685 1083 673 1050 c 2,48,-1
 493 559 l 1,40,-1
EndSplineSet
Validated: 1
EndChar

StartChar: aogonek
Encoding: 261 261 195
Width: 1072
GlyphClass: 1
Flags: W
LayerCount: 2
Fore
SplineSet
958 0 m 1,0,1
 938 -11 938 -11 918.5 -25.5 c 128,-1,2
 899 -40 899 -40 883.5 -58 c 128,-1,3
 868 -76 868 -76 859 -96.5 c 128,-1,4
 850 -117 850 -117 850 -139 c 0,5,6
 850 -170 850 -170 869.5 -188 c 128,-1,7
 889 -206 889 -206 924 -206 c 0,8,9
 943 -206 943 -206 955.5 -204 c 128,-1,10
 968 -202 968 -202 975.5 -199 c 128,-1,11
 983 -196 983 -196 988.5 -193.5 c 128,-1,12
 994 -191 994 -191 999 -191 c 0,13,14
 1017 -191 1017 -191 1023 -208 c 2,15,-1
 1062 -301 l 1,16,17
 1028 -324 1028 -324 977.5 -338.5 c 128,-1,18
 927 -353 927 -353 870 -353 c 0,19,20
 770 -353 770 -353 716 -311 c 128,-1,21
 662 -269 662 -269 662 -203 c 0,22,23
 662 -146 662 -146 700.5 -93 c 128,-1,24
 739 -40 739 -40 811 3 c 1,25,26
 791 7 791 7 778 19 c 128,-1,27
 765 31 765 31 758 54 c 2,28,-1
 735 129 l 1,29,30
 695 93 695 93 656.5 66 c 128,-1,31
 618 39 618 39 577.5 20.5 c 128,-1,32
 537 2 537 2 490.5 -7 c 128,-1,33
 444 -16 444 -16 388 -16 c 0,34,35
 321 -16 321 -16 265 1.5 c 128,-1,36
 209 19 209 19 168.5 55 c 128,-1,37
 128 91 128 91 105.5 144.5 c 128,-1,38
 83 198 83 198 83 268 c 0,39,40
 83 327 83 327 114 385 c 128,-1,41
 145 443 145 443 218 490 c 128,-1,42
 291 537 291 537 411.5 567.5 c 128,-1,43
 532 598 532 598 712 602 c 1,44,-1
 712 664 l 2,45,46
 712 769 712 769 667.5 819.5 c 128,-1,47
 623 870 623 870 538 870 c 0,48,49
 477 870 477 870 435.5 856 c 128,-1,50
 394 842 394 842 364 824 c 128,-1,51
 334 806 334 806 308.5 791.5 c 128,-1,52
 283 777 283 777 252 777 c 0,53,54
 226 777 226 777 207.5 791 c 128,-1,55
 189 805 189 805 178 823 c 2,56,-1
 132 904 l 1,57,58
 313 1070 313 1070 569 1070 c 0,59,60
 661 1070 661 1070 733.5 1040 c 128,-1,61
 806 1010 806 1010 856 956 c 128,-1,62
 906 902 906 902 932 827.5 c 128,-1,63
 958 753 958 753 958 664 c 2,64,-1
 958 0 l 1,0,1
467 158 m 0,65,66
 506 158 506 158 538.5 165 c 128,-1,67
 571 172 571 172 600.5 186.5 c 128,-1,68
 630 201 630 201 657 222 c 128,-1,69
 684 243 684 243 712 271 c 1,70,-1
 712 449 l 1,71,72
 601 444 601 444 527 430 c 128,-1,73
 453 416 453 416 407.5 394.5 c 128,-1,74
 362 373 362 373 343.5 344 c 128,-1,75
 325 315 325 315 325 282 c 0,76,77
 325 215 325 215 364.5 186.5 c 128,-1,78
 404 158 404 158 467 158 c 0,65,66
EndSplineSet
Validated: 1
EndChar

StartChar: Eogonek
Encoding: 280 280 198
Width: 1185
GlyphClass: 1
Flags: W
LayerCount: 2
Fore
SplineSet
1031 -191 m 0,0,1
 1049 -191 1049 -191 1055 -208 c 2,2,-1
 1094 -301 l 1,3,4
 1060 -324 1060 -324 1009 -338.5 c 128,-1,5
 958 -353 958 -353 902 -353 c 0,6,7
 802 -353 802 -353 747.5 -311 c 128,-1,8
 693 -269 693 -269 693 -203 c 0,9,10
 693 -147 693 -147 730.5 -94.5 c 128,-1,11
 768 -42 768 -42 838 0 c 1,12,-1
 150 0 l 1,13,-1
 150 1481 l 1,14,-1
 1083 1481 l 1,15,-1
 1083 1262 l 1,16,-1
 427 1262 l 1,17,-1
 427 851 l 1,18,-1
 944 851 l 1,19,-1
 944 639 l 1,20,-1
 427 639 l 1,21,-1
 427 220 l 1,22,-1
 1083 220 l 1,23,-1
 1083 0 l 1,24,-1
 990 0 l 1,25,26
 970 -11 970 -11 950.5 -25.5 c 128,-1,27
 931 -40 931 -40 915.5 -58 c 128,-1,28
 900 -76 900 -76 891 -96.5 c 128,-1,29
 882 -117 882 -117 882 -139 c 0,30,31
 882 -170 882 -170 901.5 -188 c 128,-1,32
 921 -206 921 -206 955 -206 c 0,33,34
 974 -206 974 -206 986.5 -204 c 128,-1,35
 999 -202 999 -202 1007 -199 c 128,-1,36
 1015 -196 1015 -196 1020.5 -193.5 c 128,-1,37
 1026 -191 1026 -191 1031 -191 c 0,0,1
EndSplineSet
Validated: 1
EndChar

StartChar: eogonek
Encoding: 281 281 199
Width: 1094
GlyphClass: 1
Flags: W
LayerCount: 2
Fore
SplineSet
763 -191 m 0,0,1
 781 -191 781 -191 786 -208 c 2,2,-1
 825 -301 l 1,3,4
 791 -324 791 -324 740.5 -338.5 c 128,-1,5
 690 -353 690 -353 634 -353 c 0,6,7
 534 -353 534 -353 479.5 -311 c 128,-1,8
 425 -269 425 -269 425 -203 c 0,9,10
 425 -151 425 -151 456.5 -102.5 c 128,-1,11
 488 -54 488 -54 547 -14 c 1,12,13
 444 -9 444 -9 355.5 30 c 128,-1,14
 267 69 267 69 202.5 140 c 128,-1,15
 138 211 138 211 101.5 313.5 c 128,-1,16
 65 416 65 416 65 548 c 0,17,18
 65 656 65 656 99.5 750.5 c 128,-1,19
 134 845 134 845 199 915 c 128,-1,20
 264 985 264 985 358 1026 c 128,-1,21
 452 1067 452 1067 569 1067 c 0,22,23
 668 1067 668 1067 752 1035.5 c 128,-1,24
 836 1004 836 1004 896 943 c 128,-1,25
 956 882 956 882 990 793.5 c 128,-1,26
 1024 705 1024 705 1024 591 c 0,27,28
 1024 562 1024 562 1021.5 543 c 128,-1,29
 1019 524 1019 524 1012.5 513.5 c 128,-1,30
 1006 503 1006 503 994.5 498.5 c 128,-1,31
 983 494 983 494 966 494 c 2,32,-1
 316 494 l 1,33,34
 327 332 327 332 403 256 c 128,-1,35
 479 180 479 180 604 180 c 0,36,37
 665 180 665 180 710 194.5 c 128,-1,38
 755 209 755 209 788 226.5 c 128,-1,39
 821 244 821 244 846 258 c 128,-1,40
 871 272 871 272 895 272 c 0,41,42
 927 272 927 272 941 249 c 2,43,-1
 1015 157 l 1,44,45
 955 87 955 87 876 49 c 128,-1,46
 797 11 797 11 715 -3 c 1,47,48
 696 -14 696 -14 677 -28.5 c 128,-1,49
 658 -43 658 -43 644.5 -60.5 c 128,-1,50
 631 -78 631 -78 622 -98 c 128,-1,51
 613 -118 613 -118 613 -139 c 0,52,53
 613 -170 613 -170 632.5 -188 c 128,-1,54
 652 -206 652 -206 687 -206 c 0,55,56
 706 -206 706 -206 718.5 -204 c 128,-1,57
 731 -202 731 -202 738.5 -199 c 128,-1,58
 746 -196 746 -196 752 -193.5 c 128,-1,59
 758 -191 758 -191 763 -191 c 0,0,1
574 886 m 0,60,61
 463 886 463 886 401 823.5 c 128,-1,62
 339 761 339 761 322 646 c 1,63,-1
 797 646 l 1,64,65
 797 695 797 695 783.5 738.5 c 128,-1,66
 770 782 770 782 742.5 815 c 128,-1,67
 715 848 715 848 672.5 867 c 128,-1,68
 630 886 630 886 574 886 c 0,60,61
EndSplineSet
Validated: 1
EndChar

StartChar: dotlessi
Encoding: 305 305 200
Width: 555
GlyphClass: 1
Flags: W
LayerCount: 2
Fore
SplineSet
404 1051 m 1,0,-1
 404 0 l 1,1,-1
 152 0 l 1,2,-1
 152 1051 l 1,3,-1
 404 1051 l 1,0,-1
EndSplineSet
Validated: 1
EndChar

StartChar: Lslash
Encoding: 321 321 201
Width: 1127
GlyphClass: 1
Flags: W
LayerCount: 2
Fore
SplineSet
495 891 m 1,0,-1
 861 1074 l 1,1,-1
 861 890 l 2,2,3
 861 852 861 852 827 835 c 2,4,-1
 495 662 l 1,5,-1
 495 227 l 1,6,-1
 1087 227 l 1,7,-1
 1087 0 l 1,8,-1
 219 0 l 1,9,-1
 219 541 l 1,10,-1
 35 449 l 1,11,-1
 35 638 l 2,12,13
 35 671 35 671 67 687 c 2,14,-1
 219 766 l 1,15,-1
 219 1481 l 1,16,-1
 495 1481 l 1,17,-1
 495 891 l 1,0,-1
EndSplineSet
Validated: 1
EndChar

StartChar: lslash
Encoding: 322 322 202
Width: 694
GlyphClass: 1
Flags: W
LayerCount: 2
Fore
SplineSet
474 1522 m 1,0,-1
 474 951 l 1,1,-1
 641 1019 l 1,2,-1
 641 873 l 2,3,4
 641 831 641 831 606 818 c 2,5,-1
 474 762 l 1,6,-1
 474 0 l 1,7,-1
 221 0 l 1,8,-1
 221 673 l 1,9,-1
 53 605 l 1,10,-1
 53 755 l 2,11,12
 53 791 53 791 85 804 c 2,13,-1
 221 861 l 1,14,-1
 221 1522 l 1,15,-1
 474 1522 l 1,0,-1
EndSplineSet
Validated: 1
EndChar

StartChar: OE
Encoding: 338 338 205
Width: 2214
GlyphClass: 1
Flags: W
LayerCount: 2
Fore
SplineSet
2125 1481 m 1,0,-1
 2125 1262 l 1,1,-1
 1468 1262 l 1,2,-1
 1468 851 l 1,3,-1
 1987 851 l 1,4,-1
 1987 639 l 1,5,-1
 1468 639 l 1,6,-1
 1468 220 l 1,7,-1
 2125 220 l 1,8,-1
 2125 0 l 1,9,-1
 1224 0 l 1,10,-1
 1224 189 l 1,11,12
 1135 93 1135 93 1014.5 39 c 128,-1,13
 894 -15 894 -15 744 -15 c 0,14,15
 592 -15 592 -15 468 41.5 c 128,-1,16
 344 98 344 98 255 199 c 128,-1,17
 166 300 166 300 117.5 439 c 128,-1,18
 69 578 69 578 69 740 c 256,19,20
 69 903 69 903 117.5 1042 c 128,-1,21
 166 1181 166 1181 255 1282 c 128,-1,22
 344 1383 344 1383 468.5 1440 c 128,-1,23
 593 1497 593 1497 744 1497 c 0,24,25
 892 1497 892 1497 1013.5 1443 c 128,-1,26
 1135 1389 1135 1389 1224 1291 c 1,27,-1
 1224 1481 l 1,28,-1
 2125 1481 l 1,0,-1
1192 740 m 256,29,30
 1192 862 1192 862 1163.5 960 c 128,-1,31
 1135 1058 1135 1058 1080.5 1127 c 128,-1,32
 1026 1196 1026 1196 948 1233 c 128,-1,33
 870 1270 870 1270 773 1270 c 0,34,35
 675 1270 675 1270 596 1233 c 128,-1,36
 517 1196 517 1196 463 1127 c 128,-1,37
 409 1058 409 1058 379.5 960 c 128,-1,38
 350 862 350 862 350 740 c 256,39,40
 350 618 350 618 379.5 520.5 c 128,-1,41
 409 423 409 423 463 354.5 c 128,-1,42
 517 286 517 286 596 249 c 128,-1,43
 675 212 675 212 773 212 c 0,44,45
 870 212 870 212 948 249 c 128,-1,46
 1026 286 1026 286 1080.5 354.5 c 128,-1,47
 1135 423 1135 423 1163.5 520.5 c 128,-1,48
 1192 618 1192 618 1192 740 c 256,29,30
EndSplineSet
Validated: 1
EndChar

StartChar: oe
Encoding: 339 339 206
Width: 1790
GlyphClass: 1
Flags: W
LayerCount: 2
Fore
SplineSet
1303 1067 m 0,0,1
 1392 1067 1392 1067 1468.5 1032.5 c 128,-1,2
 1545 998 1545 998 1601 933.5 c 128,-1,3
 1657 869 1657 869 1688.5 777 c 128,-1,4
 1720 685 1720 685 1720 570 c 0,5,6
 1720 541 1720 541 1717.5 522.5 c 128,-1,7
 1715 504 1715 504 1709 493 c 128,-1,8
 1703 482 1703 482 1692 477.5 c 128,-1,9
 1681 473 1681 473 1664 473 c 2,10,-1
 1052 473 l 1,11,12
 1066 322 1066 322 1137 251 c 128,-1,13
 1208 180 1208 180 1321 180 c 0,14,15
 1378 180 1378 180 1419 194.5 c 128,-1,16
 1460 209 1460 209 1491.5 226.5 c 128,-1,17
 1523 244 1523 244 1547.5 258 c 128,-1,18
 1572 272 1572 272 1595 272 c 0,19,20
 1622 272 1622 272 1640 249 c 2,21,-1
 1714 157 l 1,22,23
 1672 108 1672 108 1622 74.5 c 128,-1,24
 1572 41 1572 41 1517 21 c 128,-1,25
 1462 1 1462 1 1406 -7 c 128,-1,26
 1350 -15 1350 -15 1296 -15 c 0,27,28
 1185 -15 1185 -15 1088.5 34.5 c 128,-1,29
 992 84 992 84 930 190 c 1,30,31
 869 91 869 91 770 38 c 128,-1,32
 671 -15 671 -15 540 -15 c 0,33,34
 436 -15 436 -15 348 22.5 c 128,-1,35
 260 60 260 60 196.5 131 c 128,-1,36
 133 202 133 202 97.5 302 c 128,-1,37
 62 402 62 402 62 527 c 0,38,39
 62 651 62 651 98 751.5 c 128,-1,40
 134 852 134 852 198 921.5 c 128,-1,41
 262 991 262 991 351.5 1029 c 128,-1,42
 441 1067 441 1067 549 1067 c 0,43,44
 676 1067 676 1067 771.5 1014.5 c 128,-1,45
 867 962 867 962 928 864 c 1,46,47
 984 956 984 956 1078.5 1011.5 c 128,-1,48
 1173 1067 1173 1067 1303 1067 c 0,0,1
563 179 m 0,49,50
 684 179 684 179 742.5 267 c 128,-1,51
 801 355 801 355 801 525 c 256,52,53
 801 695 801 695 742.5 784 c 128,-1,54
 684 873 684 873 563 873 c 0,55,56
 440 873 440 873 382 783.5 c 128,-1,57
 324 694 324 694 324 525 c 0,58,59
 324 355 324 355 381.5 267 c 128,-1,60
 439 179 439 179 563 179 c 0,49,50
1291 886 m 0,61,62
 1183 886 1183 886 1124.5 818 c 128,-1,63
 1066 750 1066 750 1053 626 c 1,64,-1
 1496 626 l 1,65,66
 1496 676 1496 676 1483.5 723 c 128,-1,67
 1471 770 1471 770 1446 806.5 c 128,-1,68
 1421 843 1421 843 1382 864.5 c 128,-1,69
 1343 886 1343 886 1291 886 c 0,61,62
EndSplineSet
Validated: 1
EndChar

StartChar: florin
Encoding: 402 402 218
Width: 1187
GlyphClass: 1
Flags: W
LayerCount: 2
Fore
SplineSet
723 763 m 1,0,-1
 638 58 l 2,1,2
 625 -51 625 -51 586.5 -128.5 c 128,-1,3
 548 -206 548 -206 482 -256 c 128,-1,4
 416 -306 416 -306 321 -329.5 c 128,-1,5
 226 -353 226 -353 100 -353 c 1,6,-1
 100 -221 l 2,7,8
 100 -143 100 -143 181 -143 c 0,9,10
 222 -143 222 -143 257 -132 c 128,-1,11
 292 -121 292 -121 318.5 -96.5 c 128,-1,12
 345 -72 345 -72 362.5 -32 c 128,-1,13
 380 8 380 8 387 66 c 2,14,-1
 472 758 l 1,15,-1
 346 776 l 2,16,17
 289 788 289 788 289 840 c 2,18,-1
 289 943 l 1,19,-1
 495 943 l 1,20,-1
 513 1095 l 2,21,22
 539 1300 539 1300 669 1403 c 128,-1,23
 799 1506 799 1506 1051 1506 c 1,24,-1
 1051 1368 l 2,25,26
 1051 1328 1051 1328 1032 1312 c 128,-1,27
 1013 1296 1013 1296 971 1296 c 256,28,29
 929 1296 929 1296 893.5 1285 c 128,-1,30
 858 1274 858 1274 830.5 1249.5 c 128,-1,31
 803 1225 803 1225 784.5 1185 c 128,-1,32
 766 1145 766 1145 759 1087 c 2,33,-1
 739 943 l 1,34,-1
 1040 943 l 1,35,-1
 1040 763 l 1,36,-1
 723 763 l 1,0,-1
EndSplineSet
Validated: 1
EndChar

StartChar: circumflex
Encoding: 710 710 219
Width: 653
GlyphClass: 1
Flags: W
LayerCount: 2
Fore
SplineSet
680 1196 m 1,0,-1
 511 1196 l 2,1,2
 479 1196 479 1196 460 1214 c 2,3,-1
 352 1312 l 2,4,5
 347 1317 347 1317 341.5 1322 c 128,-1,6
 336 1327 336 1327 331 1334 c 1,7,8
 326 1327 326 1327 320 1322 c 128,-1,9
 314 1317 314 1317 309 1312 c 2,10,-1
 200 1214 l 2,11,12
 192 1207 192 1207 178 1201.5 c 128,-1,13
 164 1196 164 1196 148 1196 c 2,14,-1
 -27 1196 l 1,15,-1
 208 1481 l 1,16,-1
 445 1481 l 1,17,-1
 680 1196 l 1,0,-1
EndSplineSet
Validated: 1
Substitution2: "'case' Case-Sensitive Forms in Latin lookup 0 subtable" circumflex.case
EndChar

StartChar: caron
Encoding: 711 711 220
Width: 653
GlyphClass: 1
Flags: W
LayerCount: 2
Fore
SplineSet
445 1196 m 1,0,-1
 208 1196 l 1,1,-1
 -27 1481 l 1,2,-1
 148 1481 l 2,3,4
 163 1481 163 1481 177 1475.5 c 128,-1,5
 191 1470 191 1470 200 1463 c 2,6,-1
 308 1365 l 2,7,8
 317 1357 317 1357 330 1341 c 1,9,10
 335 1348 335 1348 341 1354 c 128,-1,11
 347 1360 347 1360 352 1365 c 2,12,-1
 460 1463 l 2,13,14
 468 1470 468 1470 482.5 1475.5 c 128,-1,15
 497 1481 497 1481 511 1481 c 2,16,-1
 680 1481 l 1,17,-1
 445 1196 l 1,0,-1
EndSplineSet
Validated: 1
Substitution2: "'case' Case-Sensitive Forms in Latin lookup 0 subtable" caron.case
EndChar

StartChar: breve
Encoding: 728 728 222
Width: 653
GlyphClass: 1
Flags: W
LayerCount: 2
Fore
SplineSet
327 1189 m 0,0,1
 239 1189 239 1189 180 1212 c 128,-1,2
 121 1235 121 1235 84.5 1275 c 128,-1,3
 48 1315 48 1315 32.5 1368 c 128,-1,4
 17 1421 17 1421 17 1481 c 1,5,-1
 195 1481 l 1,6,7
 195 1450 195 1450 200.5 1425.5 c 128,-1,8
 206 1401 206 1401 221 1384 c 128,-1,9
 236 1367 236 1367 261.5 1358 c 128,-1,10
 287 1349 287 1349 327 1349 c 256,11,12
 367 1349 367 1349 392.5 1358 c 128,-1,13
 418 1367 418 1367 432.5 1384 c 128,-1,14
 447 1401 447 1401 453 1425.5 c 128,-1,15
 459 1450 459 1450 459 1481 c 1,16,-1
 636 1481 l 1,17,18
 636 1422 636 1422 620.5 1368.5 c 128,-1,19
 605 1315 605 1315 568.5 1275 c 128,-1,20
 532 1235 532 1235 473 1212 c 128,-1,21
 414 1189 414 1189 327 1189 c 0,0,1
EndSplineSet
Validated: 1
Substitution2: "'case' Case-Sensitive Forms in Latin lookup 0 subtable" breve.case
EndChar

StartChar: dotaccent
Encoding: 729 729 223
Width: 653
GlyphClass: 1
Flags: W
LayerCount: 2
Fore
SplineSet
489 1361 m 0,0,1
 489 1328 489 1328 476 1299 c 128,-1,2
 463 1270 463 1270 441 1248.5 c 128,-1,3
 419 1227 419 1227 388.5 1214 c 128,-1,4
 358 1201 358 1201 325 1201 c 256,5,6
 292 1201 292 1201 263 1214 c 128,-1,7
 234 1227 234 1227 212.5 1248.5 c 128,-1,8
 191 1270 191 1270 178.5 1299 c 128,-1,9
 166 1328 166 1328 166 1361 c 0,10,11
 166 1395 166 1395 178.5 1424 c 128,-1,12
 191 1453 191 1453 212.5 1475 c 128,-1,13
 234 1497 234 1497 263 1510 c 128,-1,14
 292 1523 292 1523 325 1523 c 0,15,16
 359 1523 359 1523 389 1510 c 128,-1,17
 419 1497 419 1497 441 1475 c 128,-1,18
 463 1453 463 1453 476 1424 c 128,-1,19
 489 1395 489 1395 489 1361 c 0,0,1
EndSplineSet
Validated: 1
Substitution2: "'case' Case-Sensitive Forms in Latin lookup 0 subtable" dotaccent.case
EndChar

StartChar: ring
Encoding: 730 730 224
Width: 653
GlyphClass: 1
Flags: W
LayerCount: 2
Fore
SplineSet
98 1357 m 0,0,1
 98 1404 98 1404 116.5 1443 c 128,-1,2
 135 1482 135 1482 166.5 1509.5 c 128,-1,3
 198 1537 198 1537 239 1552.5 c 128,-1,4
 280 1568 280 1568 325 1568 c 0,5,6
 371 1568 371 1568 413 1552.5 c 128,-1,7
 455 1537 455 1537 486.5 1509.5 c 128,-1,8
 518 1482 518 1482 537 1443 c 128,-1,9
 556 1404 556 1404 556 1357 c 0,10,11
 556 1311 556 1311 537 1273 c 128,-1,12
 518 1235 518 1235 486.5 1208 c 128,-1,13
 455 1181 455 1181 413 1166 c 128,-1,14
 371 1151 371 1151 325 1151 c 0,15,16
 280 1151 280 1151 239 1166 c 128,-1,17
 198 1181 198 1181 166.5 1208 c 128,-1,18
 135 1235 135 1235 116.5 1273 c 128,-1,19
 98 1311 98 1311 98 1357 c 0,0,1
236 1357 m 0,20,21
 236 1318 236 1318 260 1292 c 128,-1,22
 284 1266 284 1266 329 1266 c 0,23,24
 370 1266 370 1266 394.5 1292 c 128,-1,25
 419 1318 419 1318 419 1357 c 0,26,27
 419 1400 419 1400 394.5 1425 c 128,-1,28
 370 1450 370 1450 329 1450 c 0,29,30
 284 1450 284 1450 260 1425 c 128,-1,31
 236 1400 236 1400 236 1357 c 0,20,21
EndSplineSet
Validated: 1
Substitution2: "'case' Case-Sensitive Forms in Latin lookup 0 subtable" ring.case
EndChar

StartChar: ogonek
Encoding: 731 731 225
Width: 653
GlyphClass: 1
Flags: W
LayerCount: 2
Fore
SplineSet
472 -191 m 0,0,1
 490 -191 490 -191 496 -208 c 2,2,-1
 535 -301 l 1,3,4
 501 -324 501 -324 450 -338.5 c 128,-1,5
 399 -353 399 -353 343 -353 c 0,6,7
 243 -353 243 -353 188.5 -311 c 128,-1,8
 134 -269 134 -269 134 -203 c 0,9,10
 134 -143 134 -143 177 -87 c 128,-1,11
 220 -31 220 -31 300 12 c 1,12,-1
 431 0 l 1,13,14
 411 -11 411 -11 391.5 -25.5 c 128,-1,15
 372 -40 372 -40 356.5 -58 c 128,-1,16
 341 -76 341 -76 332 -96.5 c 128,-1,17
 323 -117 323 -117 323 -139 c 0,18,19
 323 -170 323 -170 342 -188 c 128,-1,20
 361 -206 361 -206 396 -206 c 0,21,22
 415 -206 415 -206 427.5 -204 c 128,-1,23
 440 -202 440 -202 448 -199 c 128,-1,24
 456 -196 456 -196 461.5 -193.5 c 128,-1,25
 467 -191 467 -191 472 -191 c 0,0,1
EndSplineSet
Validated: 1
EndChar

StartChar: tilde
Encoding: 732 732 226
Width: 653
GlyphClass: 1
Flags: W
LayerCount: 2
Fore
SplineSet
436 1392 m 0,0,1
 467 1392 467 1392 484.5 1408.5 c 128,-1,2
 502 1425 502 1425 502 1469 c 1,3,-1
 655 1469 l 1,4,5
 655 1412 655 1412 639.5 1365.5 c 128,-1,6
 624 1319 624 1319 596 1285.5 c 128,-1,7
 568 1252 568 1252 530 1234.5 c 128,-1,8
 492 1217 492 1217 445 1217 c 0,9,10
 408 1217 408 1217 376.5 1230 c 128,-1,11
 345 1243 345 1243 317.5 1258.5 c 128,-1,12
 290 1274 290 1274 266 1287 c 128,-1,13
 242 1300 242 1300 221 1300 c 0,14,15
 191 1300 191 1300 174.5 1282.5 c 128,-1,16
 158 1265 158 1265 158 1222 c 1,17,-1
 1 1222 l 1,18,19
 1 1279 1 1279 17 1325.5 c 128,-1,20
 33 1372 33 1372 61.5 1405.5 c 128,-1,21
 90 1439 90 1439 128.5 1457.5 c 128,-1,22
 167 1476 167 1476 212 1476 c 0,23,24
 249 1476 249 1476 281 1462.5 c 128,-1,25
 313 1449 313 1449 341 1433.5 c 128,-1,26
 369 1418 369 1418 392.5 1405 c 128,-1,27
 416 1392 416 1392 436 1392 c 0,0,1
EndSplineSet
Validated: 1
Substitution2: "'case' Case-Sensitive Forms in Latin lookup 0 subtable" tilde.case
EndChar

StartChar: hungarumlaut
Encoding: 733 733 227
Width: 653
GlyphClass: 1
Flags: W
LayerCount: 2
Fore
SplineSet
462 1497 m 1,0,-1
 258 1230 l 2,1,2
 242 1210 242 1210 222.5 1202 c 128,-1,3
 203 1194 203 1194 174 1194 c 2,4,-1
 71 1194 l 1,5,-1
 200 1443 l 2,6,7
 214 1470 214 1470 235 1483.5 c 128,-1,8
 256 1497 256 1497 297 1497 c 2,9,-1
 462 1497 l 1,0,-1
819 1497 m 1,10,-1
 561 1230 l 2,11,12
 542 1211 542 1211 524.5 1202.5 c 128,-1,13
 507 1194 507 1194 477 1194 c 2,14,-1
 358 1194 l 1,15,-1
 540 1443 l 2,16,17
 549 1456 549 1456 557.5 1466 c 128,-1,18
 566 1476 566 1476 577 1483 c 128,-1,19
 588 1490 588 1490 602 1493.5 c 128,-1,20
 616 1497 616 1497 637 1497 c 2,21,-1
 819 1497 l 1,10,-1
EndSplineSet
Validated: 1
Substitution2: "'case' Case-Sensitive Forms in Latin lookup 0 subtable" hungarumlaut.case
EndChar

StartChar: pi
Encoding: 960 960 228
Width: 1318
GlyphClass: 1
Flags: W
LayerCount: 2
Fore
SplineSet
1281 1051 m 1,0,-1
 1281 950 l 2,1,2
 1281 917 1281 917 1261 893.5 c 128,-1,3
 1241 870 1241 870 1202 870 c 2,4,-1
 1093 870 l 1,5,-1
 1093 0 l 1,6,-1
 840 0 l 1,7,-1
 840 870 l 1,8,-1
 493 870 l 1,9,-1
 493 272 l 2,10,11
 493 207 493 207 477 154.5 c 128,-1,12
 461 102 461 102 426.5 64.5 c 128,-1,13
 392 27 392 27 338 6.5 c 128,-1,14
 284 -14 284 -14 207 -14 c 0,15,16
 170 -14 170 -14 129.5 -7 c 128,-1,17
 89 0 89 0 53 19 c 1,18,-1
 60 126 l 2,19,20
 63 146 63 146 76 156.5 c 128,-1,21
 89 167 89 167 130 167 c 0,22,23
 192 167 192 167 216 192 c 128,-1,24
 240 217 240 217 240 275 c 2,25,-1
 240 870 l 1,26,-1
 56 870 l 1,27,-1
 56 961 l 2,28,29
 56 976 56 976 62.5 992 c 128,-1,30
 69 1008 69 1008 81 1020.5 c 128,-1,31
 93 1033 93 1033 110.5 1042 c 128,-1,32
 128 1051 128 1051 151 1051 c 2,33,-1
 1281 1051 l 1,0,-1
EndSplineSet
Validated: 1
EndChar

StartChar: endash
Encoding: 8211 8211 229
Width: 1164
GlyphClass: 1
Flags: W
LayerCount: 2
Fore
SplineSet
167 703 m 1,0,-1
 997 703 l 1,1,-1
 997 524 l 1,2,-1
 167 524 l 1,3,-1
 167 703 l 1,0,-1
EndSplineSet
Validated: 1
EndChar

StartChar: emdash
Encoding: 8212 8212 230
Width: 1724
GlyphClass: 1
Flags: W
LayerCount: 2
Fore
SplineSet
167 703 m 1,0,-1
 1556 703 l 1,1,-1
 1556 524 l 1,2,-1
 167 524 l 1,3,-1
 167 703 l 1,0,-1
EndSplineSet
Validated: 1
EndChar

StartChar: quoteleft
Encoding: 8216 8216 231
Width: 460
GlyphClass: 1
Flags: W
LayerCount: 2
Fore
SplineSet
170 1000 m 1,0,1
 100 1114 100 1114 100 1230 c 0,2,3
 100 1332 100 1332 152 1426 c 128,-1,4
 204 1520 204 1520 302 1597 c 1,5,-1
 381 1549 l 2,6,7
 391 1543 391 1543 395 1534.5 c 128,-1,8
 399 1526 399 1526 399 1518 c 0,9,10
 399 1509 399 1509 395 1500.5 c 128,-1,11
 391 1492 391 1492 386 1486 c 0,12,13
 373 1471 373 1471 358 1450.5 c 128,-1,14
 343 1430 343 1430 330.5 1405.5 c 128,-1,15
 318 1381 318 1381 310 1352.5 c 128,-1,16
 302 1324 302 1324 302 1291 c 0,17,18
 302 1256 302 1256 313.5 1217 c 128,-1,19
 325 1178 325 1178 351 1135 c 0,20,21
 360 1121 360 1121 360 1106 c 0,22,23
 360 1073 360 1073 324 1060 c 2,24,-1
 170 1000 l 1,0,1
EndSplineSet
Validated: 1
EndChar

StartChar: quoteright
Encoding: 8217 8217 232
Width: 460
GlyphClass: 1
Flags: W
LayerCount: 2
Fore
SplineSet
316 1569 m 1,0,1
 352 1512 352 1512 369 1454.5 c 128,-1,2
 386 1397 386 1397 386 1339 c 0,3,4
 386 1237 386 1237 334.5 1144 c 128,-1,5
 283 1051 283 1051 185 972 c 1,6,-1
 106 1020 l 2,7,8
 96 1026 96 1026 92 1034.5 c 128,-1,9
 88 1043 88 1043 88 1052 c 0,10,11
 88 1071 88 1071 101 1084 c 0,12,13
 114 1099 114 1099 129 1119.5 c 128,-1,14
 144 1140 144 1140 156.5 1164 c 128,-1,15
 169 1188 169 1188 176.5 1216.5 c 128,-1,16
 184 1245 184 1245 184 1278 c 0,17,18
 184 1313 184 1313 173 1352.5 c 128,-1,19
 162 1392 162 1392 135 1436 c 0,20,21
 126 1449 126 1449 126 1463 c 0,22,23
 126 1496 126 1496 164 1509 c 2,24,-1
 316 1569 l 1,0,1
EndSplineSet
Validated: 1
EndChar

StartChar: quotesinglbase
Encoding: 8218 8218 233
Width: 460
GlyphClass: 1
Flags: W
LayerCount: 2
Fore
SplineSet
316 298 m 1,0,1
 352 241 352 241 369 183.5 c 128,-1,2
 386 126 386 126 386 69 c 0,3,4
 386 -33 386 -33 334.5 -126.5 c 128,-1,5
 283 -220 283 -220 185 -299 c 1,6,-1
 106 -251 l 2,7,8
 96 -245 96 -245 92 -236 c 128,-1,9
 88 -227 88 -227 88 -219 c 0,10,11
 88 -200 88 -200 101 -186 c 0,12,13
 114 -171 114 -171 129 -151 c 128,-1,14
 144 -131 144 -131 156.5 -107 c 128,-1,15
 169 -83 169 -83 176.5 -54.5 c 128,-1,16
 184 -26 184 -26 184 7 c 0,17,18
 184 42 184 42 173 81.5 c 128,-1,19
 162 121 162 121 135 165 c 0,20,21
 126 178 126 178 126 193 c 0,22,23
 126 226 126 226 164 239 c 2,24,-1
 316 298 l 1,0,1
EndSplineSet
Validated: 1
EndChar

StartChar: quotedblleft
Encoding: 8220 8220 234
Width: 800
GlyphClass: 1
Flags: W
LayerCount: 2
Fore
SplineSet
170 1000 m 1,0,1
 100 1114 100 1114 100 1230 c 0,2,3
 100 1332 100 1332 152 1426 c 128,-1,4
 204 1520 204 1520 302 1597 c 1,5,-1
 381 1549 l 2,6,7
 391 1543 391 1543 395 1534.5 c 128,-1,8
 399 1526 399 1526 399 1518 c 0,9,10
 399 1509 399 1509 395 1500.5 c 128,-1,11
 391 1492 391 1492 386 1486 c 0,12,13
 373 1471 373 1471 358 1450.5 c 128,-1,14
 343 1430 343 1430 330.5 1405.5 c 128,-1,15
 318 1381 318 1381 310 1352.5 c 128,-1,16
 302 1324 302 1324 302 1291 c 0,17,18
 302 1256 302 1256 313.5 1217 c 128,-1,19
 325 1178 325 1178 351 1135 c 0,20,21
 360 1121 360 1121 360 1106 c 0,22,23
 360 1073 360 1073 324 1060 c 2,24,-1
 170 1000 l 1,0,1
510 1000 m 1,25,26
 440 1114 440 1114 440 1230 c 0,27,28
 440 1332 440 1332 492 1426 c 128,-1,29
 544 1520 544 1520 642 1597 c 1,30,-1
 721 1549 l 2,31,32
 731 1543 731 1543 735 1534.5 c 128,-1,33
 739 1526 739 1526 739 1518 c 0,34,35
 739 1509 739 1509 735 1500.5 c 128,-1,36
 731 1492 731 1492 726 1486 c 0,37,38
 713 1471 713 1471 698 1450.5 c 128,-1,39
 683 1430 683 1430 670.5 1405.5 c 128,-1,40
 658 1381 658 1381 650 1352.5 c 128,-1,41
 642 1324 642 1324 642 1291 c 0,42,43
 642 1256 642 1256 653.5 1217 c 128,-1,44
 665 1178 665 1178 691 1135 c 0,45,46
 700 1121 700 1121 700 1106 c 0,47,48
 700 1073 700 1073 664 1060 c 2,49,-1
 510 1000 l 1,25,26
EndSplineSet
Validated: 1
EndChar

StartChar: quotedblright
Encoding: 8221 8221 235
Width: 800
GlyphClass: 1
Flags: W
LayerCount: 2
Fore
SplineSet
316 1569 m 1,0,1
 352 1512 352 1512 369 1454.5 c 128,-1,2
 386 1397 386 1397 386 1339 c 0,3,4
 386 1237 386 1237 334.5 1144 c 128,-1,5
 283 1051 283 1051 185 972 c 1,6,-1
 106 1020 l 2,7,8
 96 1026 96 1026 92 1034.5 c 128,-1,9
 88 1043 88 1043 88 1052 c 0,10,11
 88 1071 88 1071 101 1084 c 0,12,13
 114 1099 114 1099 129 1119 c 128,-1,14
 144 1139 144 1139 156.5 1163.5 c 128,-1,15
 169 1188 169 1188 176.5 1216.5 c 128,-1,16
 184 1245 184 1245 184 1278 c 0,17,18
 184 1313 184 1313 173 1352.5 c 128,-1,19
 162 1392 162 1392 135 1436 c 0,20,21
 126 1449 126 1449 126 1463 c 0,22,23
 126 1496 126 1496 164 1509 c 2,24,-1
 316 1569 l 1,0,1
656 1569 m 1,25,26
 692 1512 692 1512 709 1454.5 c 128,-1,27
 726 1397 726 1397 726 1339 c 0,28,29
 726 1237 726 1237 674.5 1144 c 128,-1,30
 623 1051 623 1051 525 972 c 1,31,-1
 446 1020 l 2,32,33
 436 1026 436 1026 432 1034.5 c 128,-1,34
 428 1043 428 1043 428 1052 c 0,35,36
 428 1071 428 1071 441 1084 c 0,37,38
 454 1099 454 1099 469 1119 c 128,-1,39
 484 1139 484 1139 496.5 1163.5 c 128,-1,40
 509 1188 509 1188 516.5 1216.5 c 128,-1,41
 524 1245 524 1245 524 1278 c 0,42,43
 524 1313 524 1313 513 1352.5 c 128,-1,44
 502 1392 502 1392 475 1436 c 0,45,46
 466 1449 466 1449 466 1463 c 0,47,48
 466 1496 466 1496 504 1509 c 2,49,-1
 656 1569 l 1,25,26
EndSplineSet
Validated: 1
EndChar

StartChar: quotedblbase
Encoding: 8222 8222 236
Width: 800
GlyphClass: 1
Flags: W
LayerCount: 2
Fore
SplineSet
316 298 m 1,0,1
 352 241 352 241 369 183.5 c 128,-1,2
 386 126 386 126 386 69 c 0,3,4
 386 -33 386 -33 334.5 -126.5 c 128,-1,5
 283 -220 283 -220 185 -299 c 1,6,-1
 106 -251 l 2,7,8
 96 -245 96 -245 92 -236 c 128,-1,9
 88 -227 88 -227 88 -219 c 0,10,11
 88 -200 88 -200 101 -186 c 0,12,13
 114 -171 114 -171 129 -151.5 c 128,-1,14
 144 -132 144 -132 156.5 -107.5 c 128,-1,15
 169 -83 169 -83 176.5 -54.5 c 128,-1,16
 184 -26 184 -26 184 7 c 0,17,18
 184 42 184 42 173 81.5 c 128,-1,19
 162 121 162 121 135 165 c 0,20,21
 126 178 126 178 126 193 c 0,22,23
 126 226 126 226 164 239 c 2,24,-1
 316 298 l 1,0,1
656 298 m 1,25,26
 692 241 692 241 709 183.5 c 128,-1,27
 726 126 726 126 726 69 c 0,28,29
 726 -33 726 -33 674.5 -126.5 c 128,-1,30
 623 -220 623 -220 525 -299 c 1,31,-1
 446 -251 l 2,32,33
 436 -245 436 -245 432 -236 c 128,-1,34
 428 -227 428 -227 428 -219 c 0,35,36
 428 -200 428 -200 441 -186 c 0,37,38
 454 -171 454 -171 469 -151.5 c 128,-1,39
 484 -132 484 -132 496.5 -107.5 c 128,-1,40
 509 -83 509 -83 516.5 -54.5 c 128,-1,41
 524 -26 524 -26 524 7 c 0,42,43
 524 42 524 42 513 81.5 c 128,-1,44
 502 121 502 121 475 165 c 0,45,46
 466 178 466 178 466 193 c 0,47,48
 466 226 466 226 504 239 c 2,49,-1
 656 298 l 1,25,26
EndSplineSet
Validated: 1
EndChar

StartChar: dagger
Encoding: 8224 8224 237
Width: 1187
GlyphClass: 1
Flags: W
LayerCount: 2
Fore
SplineSet
86 935 m 2,0,1
 86 957 86 957 92.5 976 c 128,-1,2
 99 995 99 995 114 1010.5 c 128,-1,3
 129 1026 129 1026 151 1035 c 128,-1,4
 173 1044 173 1044 204 1044 c 0,5,6
 269 1043 269 1043 344.5 1027 c 128,-1,7
 420 1011 420 1011 497 999 c 1,8,-1
 465 1500 l 1,9,10
 521 1533 521 1533 596 1533 c 0,11,12
 633 1533 633 1533 666.5 1525 c 128,-1,13
 700 1517 700 1517 727 1500 c 1,14,-1
 694 999 l 1,15,16
 771 1010 771 1010 847.5 1026.5 c 128,-1,17
 924 1043 924 1043 988 1044 c 0,18,19
 1019 1044 1019 1044 1041.5 1035 c 128,-1,20
 1064 1026 1064 1026 1078.5 1010.5 c 128,-1,21
 1093 995 1093 995 1100 975.5 c 128,-1,22
 1107 956 1107 956 1107 935 c 2,23,-1
 1107 851 l 1,24,-1
 694 851 l 1,25,-1
 694 488 l 1,26,-1
 727 -331 l 1,27,28
 700 -347 700 -347 666.5 -355.5 c 128,-1,29
 633 -364 633 -364 596 -364 c 0,30,31
 521 -364 521 -364 465 -331 c 1,32,-1
 498 488 l 1,33,-1
 498 851 l 1,34,-1
 86 851 l 1,35,-1
 86 935 l 2,0,1
EndSplineSet
Validated: 1
EndChar

StartChar: daggerdbl
Encoding: 8225 8225 238
Width: 1187
GlyphClass: 1
Flags: W
LayerCount: 2
Fore
SplineSet
86 935 m 2,0,1
 86 957 86 957 92.5 976 c 128,-1,2
 99 995 99 995 114 1010.5 c 128,-1,3
 129 1026 129 1026 151 1035 c 128,-1,4
 173 1044 173 1044 204 1044 c 0,5,6
 269 1043 269 1043 344.5 1027 c 128,-1,7
 420 1011 420 1011 497 999 c 1,8,-1
 465 1500 l 1,9,10
 521 1533 521 1533 596 1533 c 0,11,12
 633 1533 633 1533 666.5 1525 c 128,-1,13
 700 1517 700 1517 727 1500 c 1,14,-1
 694 999 l 1,15,16
 771 1010 771 1010 847.5 1026.5 c 128,-1,17
 924 1043 924 1043 988 1044 c 0,18,19
 1019 1044 1019 1044 1041.5 1035 c 128,-1,20
 1064 1026 1064 1026 1078.5 1010.5 c 128,-1,21
 1093 995 1093 995 1100 975.5 c 128,-1,22
 1107 956 1107 956 1107 935 c 2,23,-1
 1107 851 l 1,24,-1
 694 851 l 1,25,-1
 694 318 l 1,26,-1
 1107 318 l 1,27,-1
 1107 234 l 2,28,29
 1107 212 1107 212 1100 193 c 128,-1,30
 1093 174 1093 174 1078.5 158.5 c 128,-1,31
 1064 143 1064 143 1041.5 134 c 128,-1,32
 1019 125 1019 125 988 125 c 0,33,34
 923 126 923 126 847 142 c 128,-1,35
 771 158 771 158 694 169 c 1,36,-1
 727 -331 l 1,37,38
 700 -347 700 -347 666.5 -355.5 c 128,-1,39
 633 -364 633 -364 596 -364 c 0,40,41
 521 -364 521 -364 465 -331 c 1,42,-1
 497 169 l 1,43,44
 420 158 420 158 344 142 c 128,-1,45
 268 126 268 126 204 125 c 0,46,47
 173 125 173 125 151 134 c 128,-1,48
 129 143 129 143 114 158.5 c 128,-1,49
 99 174 99 174 92.5 193.5 c 128,-1,50
 86 213 86 213 86 234 c 2,51,-1
 86 318 l 1,52,-1
 498 318 l 1,53,-1
 498 851 l 1,54,-1
 86 851 l 1,55,-1
 86 935 l 2,0,1
EndSplineSet
Validated: 1
EndChar

StartChar: bullet
Encoding: 8226 8226 239
Width: 1187
GlyphClass: 1
Flags: W
LayerCount: 2
Fore
SplineSet
146 607 m 0,0,1
 146 699 146 699 181.5 780 c 128,-1,2
 217 861 217 861 277.5 922 c 128,-1,3
 338 983 338 983 419 1018 c 128,-1,4
 500 1053 500 1053 592 1053 c 256,5,6
 684 1053 684 1053 766 1018 c 128,-1,7
 848 983 848 983 908.5 922 c 128,-1,8
 969 861 969 861 1004 780 c 128,-1,9
 1039 699 1039 699 1039 607 c 0,10,11
 1039 516 1039 516 1004 435.5 c 128,-1,12
 969 355 969 355 908.5 294.5 c 128,-1,13
 848 234 848 234 766 199.5 c 128,-1,14
 684 165 684 165 592 165 c 256,15,16
 500 165 500 165 419 199.5 c 128,-1,17
 338 234 338 234 277.5 294.5 c 128,-1,18
 217 355 217 355 181.5 435.5 c 128,-1,19
 146 516 146 516 146 607 c 0,0,1
EndSplineSet
Validated: 1
EndChar

StartChar: ellipsis
Encoding: 8230 8230 240
Width: 1553
GlyphClass: 1
Flags: W
LayerCount: 2
Fore
SplineSet
75 139 m 0,0,1
 75 171 75 171 86.5 199.5 c 128,-1,2
 98 228 98 228 119 248.5 c 128,-1,3
 140 269 140 269 169 281.5 c 128,-1,4
 198 294 198 294 230 294 c 256,5,6
 262 294 262 294 290.5 281.5 c 128,-1,7
 319 269 319 269 339.5 248.5 c 128,-1,8
 360 228 360 228 372.5 199.5 c 128,-1,9
 385 171 385 171 385 139 c 0,10,11
 385 106 385 106 372.5 78 c 128,-1,12
 360 50 360 50 339.5 29.5 c 128,-1,13
 319 9 319 9 290.5 -2.5 c 128,-1,14
 262 -14 262 -14 230 -14 c 0,15,16
 197 -14 197 -14 168.5 -2.5 c 128,-1,17
 140 9 140 9 119 29.5 c 128,-1,18
 98 50 98 50 86.5 78 c 128,-1,19
 75 106 75 106 75 139 c 0,0,1
1168 139 m 0,20,21
 1168 171 1168 171 1180 199.5 c 128,-1,22
 1192 228 1192 228 1213 248.5 c 128,-1,23
 1234 269 1234 269 1262.5 281.5 c 128,-1,24
 1291 294 1291 294 1324 294 c 0,25,26
 1356 294 1356 294 1384.5 281.5 c 128,-1,27
 1413 269 1413 269 1433.5 248.5 c 128,-1,28
 1454 228 1454 228 1466.5 199.5 c 128,-1,29
 1479 171 1479 171 1479 139 c 0,30,31
 1479 106 1479 106 1466.5 78 c 128,-1,32
 1454 50 1454 50 1433.5 29.5 c 128,-1,33
 1413 9 1413 9 1384.5 -2.5 c 128,-1,34
 1356 -14 1356 -14 1324 -14 c 0,35,36
 1291 -14 1291 -14 1262.5 -2.5 c 128,-1,37
 1234 9 1234 9 1213 29.5 c 128,-1,38
 1192 50 1192 50 1180 78 c 128,-1,39
 1168 106 1168 106 1168 139 c 0,20,21
622 139 m 0,40,41
 622 171 622 171 633.5 199.5 c 128,-1,42
 645 228 645 228 666 248.5 c 128,-1,43
 687 269 687 269 715.5 281.5 c 128,-1,44
 744 294 744 294 777 294 c 0,45,46
 809 294 809 294 837.5 281.5 c 128,-1,47
 866 269 866 269 886.5 248.5 c 128,-1,48
 907 228 907 228 919.5 199.5 c 128,-1,49
 932 171 932 171 932 139 c 0,50,51
 932 106 932 106 919.5 78 c 128,-1,52
 907 50 907 50 886.5 29.5 c 128,-1,53
 866 9 866 9 837.5 -2.5 c 128,-1,54
 809 -14 809 -14 777 -14 c 0,55,56
 744 -14 744 -14 715.5 -2.5 c 128,-1,57
 687 9 687 9 666 29.5 c 128,-1,58
 645 50 645 50 633.5 78 c 128,-1,59
 622 106 622 106 622 139 c 0,40,41
EndSplineSet
Validated: 1
EndChar

